<svg width="723" height="396" viewBox="0 0 723 396" fill="none" xmlns="http://www.w3.org/2000/svg">
<rect width="723" height="396" fill="#D0DCD2"/>
<path d="M340.295 199.809C339.746 199.704 339.368 199.651 339.002 199.559C336.482 198.901 335.111 197.164 334.472 194.716C334.276 193.952 334.002 193.202 333.884 192.426C333.754 191.596 333.714 190.741 333.727 189.899C333.727 189.28 333.688 188.727 333.479 188.122C333.166 187.187 333.101 186.161 332.892 185.174C332.801 184.766 332.605 184.371 332.435 183.989C332.37 183.831 332.226 183.713 332.135 183.555C331.443 182.476 330.881 181.344 329.954 180.396C329.367 179.804 329.04 178.909 328.714 178.106C328.166 176.763 328.688 175.671 330.085 175.131C331.417 174.618 332.801 174.381 334.237 174.566C335.634 174.75 337.044 174.842 338.441 175.039C341.692 175.5 344.603 176.803 347.279 178.698C350.948 181.317 353.833 184.7 356.418 188.346C357.685 190.136 358.755 192.07 359.944 193.979C360.897 192.57 361.497 193.057 362.176 194.044C362.777 192.939 363.351 191.873 363.913 190.794C365.453 187.845 367.516 185.279 369.54 182.673C371.629 179.975 374.135 177.79 377.06 176.066C380.506 174.039 384.201 172.815 388.222 172.552C389.698 172.46 391.134 172.433 392.518 172.973C394.28 173.657 394.985 175.329 394.15 177.04C393.693 177.974 393.04 178.804 392.453 179.672C391.865 180.554 391.212 181.409 390.69 182.331C390.429 182.778 390.39 183.371 390.298 183.897C390.142 184.792 389.998 185.7 389.881 186.608C389.737 187.687 389.659 188.78 389.502 189.859C389.189 192.083 388.836 194.321 387.648 196.282C386.878 197.559 385.69 198.296 384.267 198.664C383.875 198.769 383.47 198.862 382.883 198.993C383.444 199.296 383.849 199.52 384.253 199.743C386.16 200.783 386.982 203.007 386.277 205.087C386.107 205.587 386.212 206.166 386.134 206.706C386.055 207.232 385.859 207.745 385.768 208.272C385.611 209.206 385.402 210.154 385.376 211.088C385.363 211.878 385.233 212.549 384.893 213.273C384.567 213.971 384.502 214.839 384.515 215.629C384.541 216.774 384.358 217.669 383.222 218.235C382.4 218.643 381.721 219.222 381.564 220.275C381.46 220.973 380.833 221.157 380.193 221.302C379.632 221.42 379.005 221.525 378.548 221.841C377.464 222.592 376.329 222.644 375.18 222.276C373.156 221.618 371.08 220.96 369.448 219.538C368.352 218.59 367.464 217.406 366.55 216.274C365.988 215.577 365.584 214.761 365.061 214.037C364.565 213.352 363.991 212.734 363.495 212.049C362.881 211.22 362.32 210.378 361.732 209.535C361.562 209.285 361.419 209.022 361.223 208.719C361.092 208.891 360.975 208.969 360.949 209.088C360.387 210.852 359.265 212.286 358.259 213.8C357.202 215.379 356.21 217.011 355.087 218.538C354.525 219.301 353.768 219.92 353.037 220.525C351.47 221.802 349.773 222.855 347.815 223.421C347.384 223.539 346.875 223.513 346.418 223.421C345.347 223.21 344.303 222.921 343.245 222.671C342.71 222.552 342.331 222.249 342.162 221.723C341.9 220.854 341.3 220.394 340.438 220.209C339.368 219.986 338.767 219.354 338.715 218.222C338.715 217.88 338.597 217.524 338.584 217.182C338.558 216.287 338.336 215.498 337.853 214.721C337.501 214.168 337.448 213.405 337.37 212.707C337.266 211.826 337.122 211.01 336.639 210.22C336.339 209.733 336.313 209.048 336.247 208.456C336.169 207.798 336.104 207.18 335.66 206.614C335.229 206.074 335.477 204.139 335.477 203.942C335.464 202.31 336.965 201.836 338.114 201.112C338.767 200.691 339.433 200.283 340.242 199.796L340.295 199.809Z" fill="#6F8F72"/>
</svg>
