<svg width="723" height="396" viewBox="0 0 723 396" fill="none" xmlns="http://www.w3.org/2000/svg">
<rect width="723" height="396" fill="#D0DCD2"/>
<ellipse cx="28.1565" cy="28.1565" rx="28.1565" ry="28.1565" transform="matrix(0.991525 -0.129917 0.149061 0.988828 318.442 163.865)" fill="#6F8F72"/>
<path fill-rule="evenodd" clip-rule="evenodd" d="M368.986 199.681C366.656 197.562 362.908 197.54 360.412 199.63C357.859 201.767 357.519 205.353 359.641 207.745L384.211 235.427C387.207 238.802 392.709 239.05 396.249 235.969C399.767 232.906 399.914 227.8 396.571 224.761L368.986 199.681ZM387.09 221.183C385.596 219.686 383.045 219.638 381.393 221.076C379.74 222.515 379.611 224.895 381.105 226.392L385.335 230.633C386.829 232.13 389.38 232.178 391.032 230.739C392.685 229.301 392.814 226.921 391.32 225.423L387.09 221.183Z" fill="#6F8F72"/>
</svg>
