 <svg width="40" height="40" viewBox="0 0 40 40" fill="none" xmlns="http://www.w3.org/2000/svg">
<path fillRule="evenodd" clipRule="evenodd" d="M27.385 23.405L39.7867 31.3108C39.8377 31.3432 39.8819 31.3855 39.9166 31.435C39.9513 31.4846 39.9758 31.5406 39.9887 31.5997C40.0017 31.6588 40.0028 31.7199 39.992 31.7795C39.9812 31.839 39.9587 31.8958 39.9258 31.9466L39.9108 31.9683L36 37.3116C35.9274 37.4104 35.8187 37.4765 35.6976 37.4955C35.5765 37.5146 35.4528 37.485 35.3533 37.4133L35.3333 37.3933L23.7258 27.6541C21.113 29.6918 17.8918 30.7937 14.5783 30.7833C10.7702 30.8403 7.09533 29.3827 4.36159 26.731C1.62784 24.0793 0.0590056 20.4505 0 16.6425C0.0590056 12.8344 1.62784 9.20559 4.36159 6.55388C7.09533 3.90218 10.7702 2.44461 14.5783 2.50162C18.3866 2.44438 22.0617 3.90185 24.7956 6.55359C27.5295 9.20532 29.0985 12.8342 29.1575 16.6425C29.1594 19.0117 28.5488 21.3412 27.385 23.405ZM32.815 29.4433C32.7158 29.378 32.5955 29.3532 32.4786 29.374C32.3617 29.3948 32.2573 29.4595 32.1867 29.555L31.4367 30.5758C31.3669 30.6704 31.3361 30.7881 31.3507 30.9048C31.3653 31.0214 31.4241 31.128 31.515 31.2025L35.3483 34.3533L35.365 34.3658C35.4631 34.4393 35.5863 34.471 35.7077 34.4542C35.8291 34.4373 35.9389 34.3732 36.0133 34.2758L37.0967 32.8466L37.1125 32.8241C37.146 32.7738 37.1693 32.7173 37.1809 32.658C37.1926 32.5986 37.1923 32.5376 37.1802 32.4783C37.1682 32.419 37.1445 32.3628 37.1105 32.3127C37.0766 32.2626 37.0331 32.2198 36.9825 32.1866L32.815 29.4433Z" fill="#EFEAE6"/>
</svg>