<svg width="40" height="40" viewBox="0 0 40 40" fill="none" xmlns="http://www.w3.org/2000/svg">
<ellipse cx="12.5" cy="12.5" rx="12.5" ry="12.5" transform="matrix(0.991525 -0.129917 0.149061 0.988828 0.884644 4.8457)" fill="#6F8F72"/>
<path fill-rule="evenodd" clip-rule="evenodd" d="M23.3232 20.7459C22.2889 19.8055 20.6249 19.7956 19.5169 20.7232C18.3836 21.6721 18.2323 23.2643 19.1746 24.326L30.0823 36.6153C31.4124 38.1139 33.8549 38.2238 35.4265 36.8558C36.9885 35.4962 37.0537 33.2296 35.5695 31.8802L23.3232 20.7459ZM31.3605 30.2922C30.6973 29.6274 29.5649 29.6062 28.8312 30.2449C28.0976 30.8835 28.0404 31.9401 28.7035 32.6048L30.5814 34.4873C31.2446 35.1521 32.377 35.1733 33.1106 34.5346C33.8443 33.896 33.9015 32.8394 33.2384 32.1747L31.3605 30.2922Z" fill="#6F8F72"/>
</svg>
