<svg width="310" height="57" viewBox="0 0 310 57" fill="none" xmlns="http://www.w3.org/2000/svg">
<path d="M85.4545 19.0698C84.1239 18.7984 83.2129 18.1638 82.7216 17.1657C82.2406 16.1676 82 14.8401 82 13.1831C82 12.7083 82.0103 12.1657 82.0307 11.5552C82.0614 10.935 82.1024 10.2907 82.1535 9.62209C82.2047 8.95349 82.261 8.29942 82.3224 7.65988C82.3838 7.02035 82.4453 6.43411 82.5067 5.90116C82.5681 5.36822 82.6244 4.93702 82.6756 4.60756C82.8802 3.3188 83.1822 2.38372 83.5814 1.80233C83.9806 1.22093 84.5231 0.930233 85.2089 0.930233C85.6491 0.930233 85.9766 1.02228 86.1915 1.2064C86.4065 1.38081 86.5497 1.63275 86.6214 1.96221C86.6931 2.29167 86.7289 2.68411 86.7289 3.13954C86.7289 3.43993 86.7186 3.79361 86.6982 4.20058C86.6777 4.59787 86.6572 5.02423 86.6368 5.47965C86.6163 5.93508 86.5958 6.41473 86.5754 6.91861C86.5549 7.41279 86.5344 7.90698 86.5139 8.40116C86.4935 8.89535 86.4781 9.37982 86.4679 9.85465C86.4679 10.3198 86.473 10.7606 86.4832 11.1773C86.5037 12.001 86.5549 12.689 86.6368 13.2413C86.7289 13.7936 86.9029 14.2297 87.1588 14.5494C87.4147 14.8595 87.7883 15.0872 88.2796 15.2326C88.7812 15.3682 89.4516 15.4409 90.2909 15.4506C91.0176 15.4797 91.7034 15.5087 92.3483 15.5378C93.0034 15.5571 93.5408 15.5814 93.9604 15.6105C94.5745 15.5717 95.0761 15.5571 95.4651 15.5669C95.854 15.5669 96.1457 15.6007 96.3402 15.6686C96.504 15.7461 96.6217 15.8576 96.6933 16.0029C96.7752 16.1385 96.8162 16.3324 96.8162 16.5843C96.8162 16.9913 96.6831 17.3353 96.417 17.6163C96.1509 17.8973 95.7772 18.1347 95.2962 18.3285C94.8253 18.5223 94.2777 18.6919 93.6533 18.8372C92.9982 18.9826 92.2408 19.0988 91.381 19.186C90.5212 19.2733 89.6665 19.3169 88.817 19.3169C88.4792 19.3169 88.1004 19.3071 87.6808 19.2878C87.2714 19.2781 86.8671 19.2539 86.4679 19.2151C86.079 19.1763 85.7412 19.1279 85.4545 19.0698ZM105.498 20C104.669 20 103.881 19.9225 103.134 19.7674C102.397 19.6124 101.742 19.3653 101.169 19.0262C100.595 18.687 100.145 18.2461 99.8176 17.7035C99.49 17.1609 99.3263 16.4971 99.3263 15.7122C99.3263 14.8208 99.5566 14.0891 100.017 13.5174C100.478 12.9458 101.102 12.5 101.89 12.1802C102.689 11.8507 103.584 11.6231 104.577 11.4971C105.57 11.3711 106.599 11.3081 107.663 11.3081C107.991 11.3081 108.323 11.3179 108.661 11.3372C108.999 11.3566 109.316 11.376 109.613 11.3953C109.92 11.4147 110.171 11.4244 110.365 11.4244C110.632 11.4244 110.811 11.3856 110.903 11.3081C110.995 11.2209 111.041 11.0756 111.041 10.8721C111.041 10.4942 110.99 10.1599 110.887 9.86919C110.795 9.57849 110.657 9.32168 110.473 9.09884C110.289 8.876 110.069 8.68705 109.813 8.53198C109.403 8.27035 108.907 8.08624 108.323 7.97965C107.75 7.86337 107.131 7.80523 106.466 7.80523C105.677 7.80523 104.976 7.88275 104.362 8.03779C103.758 8.19283 103.221 8.35272 102.75 8.51744C102.279 8.68214 101.849 8.76454 101.46 8.76454C100.928 8.76454 100.519 8.68214 100.232 8.51744C99.9455 8.35272 99.8022 8.08624 99.8022 7.71802C99.8022 7.34012 99.9711 6.99128 100.309 6.67151C100.647 6.35175 101.112 6.07074 101.706 5.82849C102.31 5.58624 103.006 5.39728 103.794 5.26163C104.593 5.12597 105.442 5.05814 106.343 5.05814C108.155 5.05814 109.669 5.27616 110.887 5.71221C112.116 6.13856 113.037 6.83624 113.651 7.80523C114.265 8.76454 114.572 10.0581 114.572 11.686C114.572 12.1705 114.547 12.592 114.496 12.9506C114.444 13.3091 114.378 13.624 114.296 13.8953C114.224 14.157 114.163 14.3847 114.112 14.5785C114.06 14.7723 114.035 14.9516 114.035 15.1163C114.035 15.3488 114.112 15.5717 114.265 15.7849C114.429 15.9884 114.618 16.1919 114.833 16.3953C115.058 16.5988 115.253 16.8169 115.417 17.0494C115.58 17.2723 115.662 17.5243 115.662 17.8052C115.662 18.2219 115.519 18.5223 115.233 18.7064C114.946 18.8905 114.629 18.9826 114.281 18.9826C113.963 18.9826 113.697 18.8808 113.482 18.6773C113.277 18.4836 113.088 18.2897 112.914 18.0959C112.75 17.9022 112.546 17.8052 112.3 17.8052C112.157 17.8052 111.998 17.844 111.824 17.9215C111.66 17.999 111.456 18.1202 111.21 18.2849C110.903 18.4981 110.509 18.7355 110.028 18.9971C109.557 19.2684 108.953 19.501 108.216 19.6948C107.479 19.8983 106.573 20 105.498 20ZM105.913 17.7762C106.548 17.7762 107.162 17.6841 107.755 17.5C108.349 17.3062 108.881 17.0446 109.352 16.7151C109.823 16.376 110.197 15.9836 110.473 15.5378C110.749 15.0824 110.887 14.593 110.887 14.0698C110.887 13.7403 110.77 13.5029 110.534 13.3576C110.309 13.2122 109.936 13.1202 109.414 13.0814C108.892 13.0426 108.201 13.0233 107.341 13.0233C106.491 13.0233 105.703 13.1057 104.976 13.2703C104.25 13.4254 103.666 13.6919 103.226 14.0698C102.786 14.438 102.566 14.9419 102.566 15.5814C102.566 16.0756 102.699 16.4826 102.965 16.8023C103.231 17.1221 103.615 17.3644 104.117 17.5291C104.618 17.6938 105.217 17.7762 105.913 17.7762ZM124.736 19.0843C124.101 19.0843 123.441 19.0552 122.755 18.9971C122.069 18.9487 121.424 18.8711 120.82 18.7645C120.217 18.658 119.705 18.5272 119.285 18.3721C118.906 18.2267 118.594 18.062 118.349 17.8779C118.113 17.6938 117.995 17.4321 117.995 17.093C117.995 16.7151 118.113 16.4292 118.349 16.2355C118.584 16.032 118.927 15.9302 119.377 15.9302C119.695 15.9302 120.089 15.9836 120.559 16.0901C121.04 16.187 121.583 16.2936 122.187 16.4099C122.791 16.5164 123.431 16.5698 124.106 16.5698C124.771 16.5698 125.406 16.5164 126.01 16.4099C126.614 16.2936 127.105 16.1047 127.484 15.843C127.863 15.5814 128.052 15.2228 128.052 14.7674C128.052 14.3507 127.929 14.0116 127.683 13.75C127.448 13.4884 127.034 13.2606 126.44 13.0669C125.846 12.8731 125.012 12.6744 123.937 12.4709C122.76 12.2481 121.762 11.9574 120.943 11.5988C120.135 11.2403 119.515 10.7994 119.086 10.2762C118.666 9.74319 118.456 9.10856 118.456 8.37209C118.456 7.73256 118.645 7.18023 119.024 6.71512C119.413 6.24031 119.94 5.85272 120.606 5.55233C121.271 5.24225 122.028 5.01454 122.878 4.86919C123.738 4.71415 124.639 4.63663 125.58 4.63663C126.153 4.63663 126.736 4.67054 127.33 4.73837C127.934 4.79651 128.492 4.88856 129.004 5.01454C129.526 5.13082 129.945 5.28586 130.263 5.47965C130.581 5.66376 130.739 5.88663 130.739 6.14826C130.739 6.42926 130.667 6.65698 130.524 6.8314C130.381 7.00581 130.191 7.13179 129.956 7.2093C129.73 7.28682 129.48 7.32558 129.203 7.32558C128.763 7.32558 128.256 7.27714 127.683 7.18023C127.12 7.08333 126.506 7.03488 125.841 7.03488C125.258 7.03488 124.715 7.09302 124.214 7.2093C123.712 7.31589 123.308 7.49031 123.001 7.73256C122.704 7.96512 122.555 8.27519 122.555 8.66279C122.555 9.23447 122.883 9.67542 123.538 9.98547C124.203 10.2955 125.176 10.5766 126.455 10.8285C127.642 11.0513 128.625 11.3372 129.403 11.686C130.191 12.0252 130.785 12.4612 131.184 12.9942C131.583 13.5174 131.783 14.1715 131.783 14.9564C131.783 15.7025 131.594 16.3372 131.215 16.8605C130.836 17.3837 130.319 17.81 129.664 18.1395C129.009 18.4593 128.256 18.6967 127.407 18.8517C126.558 19.0068 125.667 19.0843 124.736 19.0843ZM147.653 18.968C147.355 18.968 147.089 18.9099 146.854 18.7936C146.618 18.687 146.403 18.5368 146.209 18.343C146.025 18.1493 145.856 17.9215 145.703 17.6599C145.519 17.2917 145.35 16.8653 145.196 16.3808C145.043 15.8963 144.909 15.3924 144.797 14.8692C144.694 14.3362 144.617 13.8081 144.567 13.2849C144.515 12.7616 144.49 12.2772 144.49 11.8314C144.49 10.2519 144.802 8.9147 145.425 7.81977C146.05 6.72481 146.951 5.89147 148.129 5.31977C149.305 4.74807 150.718 4.46221 152.366 4.46221C153.062 4.46221 153.727 4.51066 154.362 4.60756C155.007 4.70446 155.58 4.84981 156.082 5.04361C156.583 5.22772 156.977 5.46028 157.264 5.74128C157.561 6.0126 157.709 6.32752 157.709 6.68605C157.709 6.97675 157.642 7.21415 157.51 7.39826C157.376 7.57268 157.203 7.69865 156.988 7.77616C156.782 7.85368 156.567 7.89244 156.343 7.89244C155.872 7.89244 155.354 7.81977 154.792 7.67442C154.239 7.51938 153.518 7.44186 152.627 7.44186C151.286 7.44186 150.278 7.8343 149.603 8.61919C148.937 9.40407 148.605 10.4699 148.605 11.8169C148.605 12.3013 148.63 12.7713 148.681 13.2267C148.732 13.6725 148.794 14.1037 148.866 14.5203C148.937 14.9273 149.009 15.3052 149.081 15.6541C149.152 16.0029 149.208 16.313 149.249 16.5843C149.3 16.8557 149.326 17.0785 149.326 17.2529C149.326 17.8537 149.182 18.2897 148.896 18.561C148.62 18.8324 148.205 18.968 147.653 18.968ZM168.462 19.593C166.743 19.593 165.254 19.3459 163.995 18.8517C162.736 18.3576 161.763 17.5969 161.077 16.5698C160.391 15.533 160.049 14.2151 160.049 12.6163C160.049 11.2888 160.279 10.1308 160.74 9.14244C161.21 8.14438 161.855 7.31105 162.674 6.64244C163.493 5.97384 164.44 5.47481 165.515 5.14535C166.589 4.80621 167.735 4.63663 168.954 4.63663C169.783 4.63663 170.566 4.719 171.303 4.88372C172.049 5.04845 172.71 5.30523 173.283 5.65407C173.867 5.99322 174.322 6.42926 174.65 6.96221C174.977 7.49516 175.141 8.12984 175.141 8.86628C175.141 9.65116 174.967 10.2907 174.619 10.7849C174.271 11.2694 173.795 11.6522 173.191 11.9331C172.587 12.2045 171.902 12.408 171.134 12.5436C170.376 12.6696 169.583 12.7664 168.754 12.8343C168.334 12.9022 167.838 12.9603 167.265 13.0087C166.691 13.0475 166.134 13.0814 165.591 13.1105C165.059 13.1298 164.644 13.1395 164.348 13.1395C164.041 13.1395 163.83 13.1783 163.718 13.2558C163.605 13.3333 163.549 13.4738 163.549 13.6773C163.549 13.9196 163.62 14.2054 163.764 14.5349C163.907 14.8547 164.112 15.1696 164.378 15.4797C164.87 16.0513 165.438 16.4341 166.083 16.6279C166.737 16.812 167.541 16.9041 168.493 16.9041C169.322 16.9041 170.079 16.812 170.765 16.6279C171.451 16.4341 172.065 16.2452 172.608 16.061C173.161 15.8673 173.657 15.7703 174.097 15.7703C174.496 15.7703 174.808 15.843 175.034 15.9884C175.269 16.124 175.387 16.3953 175.387 16.8023C175.387 17.1705 175.207 17.5243 174.85 17.8634C174.501 18.2025 174.015 18.4981 173.391 18.75C172.766 19.0116 172.034 19.2151 171.195 19.3605C170.356 19.5155 169.445 19.593 168.462 19.593ZM167.25 11.5116C168.079 11.5116 168.851 11.439 169.568 11.2936C170.284 11.1385 170.862 10.8818 171.303 10.5233C171.753 10.1551 171.978 9.65116 171.978 9.01163C171.978 8.25581 171.687 7.68895 171.103 7.31105C170.52 6.92345 169.7 6.72965 168.647 6.72965C168.022 6.72965 167.413 6.83624 166.82 7.04942C166.226 7.25291 165.699 7.53876 165.238 7.90698C164.778 8.27519 164.409 8.69186 164.133 9.15698C163.856 9.62209 163.718 10.1211 163.718 10.6541C163.718 10.9254 163.831 11.124 164.056 11.25C164.291 11.3663 164.664 11.439 165.177 11.468C165.699 11.4971 166.39 11.5116 167.25 11.5116ZM186.754 19.4622C185.536 19.4622 184.395 19.3023 183.33 18.9826C182.276 18.6725 181.344 18.2074 180.536 17.5872C179.738 16.967 179.108 16.2016 178.648 15.2907C178.197 14.3702 177.971 13.2994 177.971 12.0785C177.971 10.7994 178.187 9.65598 178.617 8.64826C179.047 7.63081 179.655 6.76842 180.444 6.06105C181.242 5.344 182.199 4.80135 183.315 4.43314C184.441 4.05523 185.684 3.86628 187.046 3.86628C188.1 3.86628 189.001 3.96318 189.748 4.15698C190.495 4.35077 191.069 4.59787 191.468 4.89826C191.867 5.19865 192.067 5.50388 192.067 5.81395C192.067 6.00775 192.01 6.18702 191.898 6.35175C191.784 6.51647 191.637 6.64728 191.452 6.74419C191.268 6.8314 191.073 6.875 190.869 6.875C190.633 6.875 190.378 6.8314 190.101 6.74419C189.835 6.64728 189.487 6.55039 189.057 6.45349C188.627 6.35659 188.059 6.30814 187.353 6.30814C186.534 6.30814 185.787 6.43411 185.111 6.68605C184.436 6.93798 183.852 7.29651 183.361 7.76163C182.87 8.22674 182.491 8.77907 182.225 9.41861C181.958 10.0484 181.826 10.7461 181.826 11.5116C181.826 12.5388 182.046 13.406 182.486 14.1134C182.936 14.811 183.545 15.3391 184.313 15.6977C185.09 16.0562 185.965 16.2355 186.939 16.2355C187.829 16.2355 188.586 16.1531 189.211 15.9884C189.835 15.814 190.357 15.6105 190.777 15.3779C191.207 15.1453 191.56 14.9419 191.836 14.7674C192.113 14.593 192.343 14.5058 192.527 14.5058C192.865 14.5058 193.126 14.5785 193.31 14.7238C193.494 14.8595 193.622 15.0339 193.694 15.2471C193.776 15.4506 193.817 15.6493 193.817 15.843C193.817 16.2597 193.653 16.6812 193.325 17.1076C193.008 17.5339 192.547 17.9263 191.944 18.2849C191.339 18.6337 190.597 18.9147 189.718 19.1279C188.847 19.3507 187.86 19.4622 186.754 19.4622ZM205.257 19.593C203.538 19.593 202.048 19.3459 200.789 18.8517C199.53 18.3576 198.557 17.5969 197.872 16.5698C197.186 15.533 196.843 14.2151 196.843 12.6163C196.843 11.2888 197.074 10.1308 197.534 9.14244C198.005 8.14438 198.649 7.31105 199.469 6.64244C200.287 5.97384 201.235 5.47481 202.309 5.14535C203.384 4.80621 204.53 4.63663 205.749 4.63663C206.578 4.63663 207.361 4.719 208.098 4.88372C208.844 5.04845 209.504 5.30523 210.078 5.65407C210.662 5.99322 211.117 6.42926 211.444 6.96221C211.772 7.49516 211.936 8.12984 211.936 8.86628C211.936 9.65116 211.761 10.2907 211.414 10.7849C211.066 11.2694 210.59 11.6522 209.986 11.9331C209.382 12.2045 208.696 12.408 207.929 12.5436C207.171 12.6696 206.378 12.7664 205.549 12.8343C205.129 12.9022 204.633 12.9603 204.06 13.0087C203.486 13.0475 202.928 13.0814 202.386 13.1105C201.854 13.1298 201.439 13.1395 201.142 13.1395C200.835 13.1395 200.625 13.1783 200.513 13.2558C200.4 13.3333 200.344 13.4738 200.344 13.6773C200.344 13.9196 200.415 14.2054 200.559 14.5349C200.702 14.8547 200.906 15.1696 201.173 15.4797C201.664 16.0513 202.233 16.4341 202.877 16.6279C203.532 16.812 204.336 16.9041 205.288 16.9041C206.117 16.9041 206.874 16.812 207.56 16.6279C208.245 16.4341 208.86 16.2452 209.403 16.061C209.955 15.8673 210.452 15.7703 210.892 15.7703C211.291 15.7703 211.603 15.843 211.829 15.9884C212.064 16.124 212.182 16.3953 212.182 16.8023C212.182 17.1705 212.002 17.5243 211.644 17.8634C211.296 18.2025 210.809 18.4981 210.186 18.75C209.561 19.0116 208.829 19.2151 207.99 19.3605C207.15 19.5155 206.24 19.593 205.257 19.593ZM204.043 11.5116C204.873 11.5116 205.646 11.439 206.363 11.2936C207.079 11.1385 207.657 10.8818 208.098 10.5233C208.548 10.1551 208.773 9.65116 208.773 9.01163C208.773 8.25581 208.481 7.68895 207.898 7.31105C207.315 6.92345 206.495 6.72965 205.441 6.72965C204.817 6.72965 204.207 6.83624 203.613 7.04942C203.02 7.25291 202.494 7.53876 202.033 7.90698C201.572 8.27519 201.204 8.69186 200.928 9.15698C200.651 9.62209 200.513 10.1211 200.513 10.6541C200.513 10.9254 200.625 11.124 200.851 11.25C201.086 11.3663 201.459 11.439 201.972 11.468C202.494 11.4971 203.184 11.5116 204.043 11.5116ZM223.84 18.8953C223.287 18.8953 222.73 18.8179 222.166 18.6628C221.614 18.5077 221.138 18.217 220.738 17.7907C220.35 17.3547 220.119 16.7394 220.047 15.9448C220.017 15.6638 219.986 15.344 219.955 14.9855C219.925 14.6269 219.894 14.2442 219.863 13.8372C219.843 13.4205 219.823 12.9942 219.802 12.5581C219.792 12.1124 219.777 11.6618 219.756 11.2064C219.746 10.7413 219.74 10.281 219.74 9.82558C219.731 9.38954 219.643 9.10365 219.479 8.96802C219.326 8.8324 219.086 8.75 218.758 8.72093C218.564 8.70158 218.313 8.68705 218.005 8.67733C217.709 8.66761 217.402 8.65307 217.084 8.63372C216.768 8.61437 216.485 8.59496 216.24 8.57558C215.841 8.53682 215.539 8.4157 215.334 8.21221C215.13 7.99903 215.027 7.69865 215.027 7.31105C215.027 7.04942 215.083 6.85077 215.196 6.71512C215.319 6.56977 215.487 6.45833 215.702 6.38081C215.928 6.3033 216.178 6.25 216.455 6.22093C216.998 6.17248 217.443 6.12888 217.79 6.09012C218.149 6.05135 218.481 6.01744 218.788 5.98837C219.117 5.94961 219.347 5.86725 219.479 5.74128C219.623 5.61531 219.715 5.38275 219.756 5.04361C219.777 4.84012 219.792 4.60272 219.802 4.3314C219.823 4.06008 219.843 3.79361 219.863 3.53198C219.894 3.26066 219.925 3.0281 219.955 2.8343C220.069 2.35949 220.227 2.01066 220.431 1.78779C220.637 1.56493 220.964 1.45349 221.414 1.45349C221.782 1.45349 222.069 1.51163 222.274 1.62791C222.489 1.73449 222.648 1.90407 222.75 2.13663C222.852 2.36919 222.934 2.66958 222.995 3.03779C223.016 3.33818 223.032 3.60465 223.041 3.83721C223.063 4.06977 223.078 4.28295 223.087 4.47675C223.098 4.66086 223.109 4.83042 223.118 4.98547C223.139 5.14051 223.159 5.29554 223.18 5.45058C223.21 5.73159 223.308 5.93508 223.471 6.06105C223.635 6.17733 223.876 6.25 224.193 6.27907C224.469 6.30814 224.772 6.34205 225.099 6.38081C225.437 6.40988 225.759 6.43895 226.066 6.46802C226.384 6.4874 226.645 6.51647 226.849 6.55523C227.269 6.60368 227.627 6.71028 227.924 6.875C228.221 7.03973 228.369 7.31105 228.369 7.68895C228.369 8.03779 228.252 8.31395 228.016 8.51744C227.781 8.71121 227.458 8.82267 227.049 8.85174C226.425 8.86146 225.846 8.86628 225.314 8.86628C224.782 8.85656 224.368 8.85656 224.07 8.86628C223.835 8.88563 223.651 8.95349 223.517 9.06977C223.395 9.17633 223.324 9.4574 223.302 9.91279C223.302 10.281 223.302 10.6589 223.302 11.0465C223.313 11.4341 223.324 11.8217 223.333 12.2093C223.344 12.5969 223.359 12.9797 223.379 13.3576C223.4 13.7257 223.425 14.0746 223.456 14.4041C223.487 14.7336 223.523 15.0339 223.563 15.3052C223.646 15.8769 223.794 16.2597 224.009 16.4535C224.234 16.6473 224.531 16.7442 224.899 16.7442C225.34 16.7442 225.682 16.6618 225.928 16.4971C226.184 16.3227 226.399 16.1483 226.573 15.9738C226.757 15.7994 226.962 15.7122 227.187 15.7122C227.443 15.7122 227.627 15.7801 227.74 15.9157C227.862 16.0417 227.924 16.2307 227.924 16.4826C227.924 16.8023 227.801 17.1076 227.555 17.3983C227.32 17.6792 227.003 17.936 226.603 18.1686C226.215 18.3914 225.78 18.5659 225.298 18.6919C224.818 18.8275 224.331 18.8953 223.84 18.8953ZM237.323 20C236.494 20 235.705 19.9225 234.959 19.7674C234.222 19.6124 233.566 19.3653 232.993 19.0262C232.42 18.687 231.969 18.2461 231.642 17.7035C231.314 17.1609 231.151 16.4971 231.151 15.7122C231.151 14.8208 231.381 14.0891 231.842 13.5174C232.302 12.9458 232.926 12.5 233.715 12.1802C234.513 11.8507 235.409 11.6231 236.402 11.4971C237.394 11.3711 238.423 11.3081 239.488 11.3081C239.815 11.3081 240.148 11.3179 240.486 11.3372C240.824 11.3566 241.14 11.376 241.438 11.3953C241.745 11.4147 241.995 11.4244 242.19 11.4244C242.456 11.4244 242.635 11.3856 242.728 11.3081C242.82 11.2209 242.866 11.0756 242.866 10.8721C242.866 10.4942 242.814 10.1599 242.712 9.86919C242.62 9.57849 242.482 9.32168 242.298 9.09884C242.113 8.876 241.893 8.68705 241.637 8.53198C241.228 8.27035 240.732 8.08624 240.148 7.97965C239.574 7.86337 238.955 7.80523 238.29 7.80523C237.502 7.80523 236.801 7.88275 236.187 8.03779C235.582 8.19283 235.045 8.35272 234.575 8.51744C234.104 8.68214 233.674 8.76454 233.285 8.76454C232.753 8.76454 232.343 8.68214 232.057 8.51744C231.77 8.35272 231.627 8.08624 231.627 7.71802C231.627 7.34012 231.796 6.99128 232.134 6.67151C232.471 6.35175 232.937 6.07074 233.531 5.82849C234.134 5.58624 234.83 5.39728 235.619 5.26163C236.417 5.12597 237.266 5.05814 238.168 5.05814C239.979 5.05814 241.493 5.27616 242.712 5.71221C243.94 6.13856 244.862 6.83624 245.476 7.80523C246.09 8.76454 246.397 10.0581 246.397 11.686C246.397 12.1705 246.371 12.592 246.32 12.9506C246.268 13.3091 246.202 13.624 246.121 13.8953C246.049 14.157 245.987 14.3847 245.936 14.5785C245.885 14.7723 245.86 14.9516 245.86 15.1163C245.86 15.3488 245.936 15.5717 246.09 15.7849C246.253 15.9884 246.443 16.1919 246.658 16.3953C246.883 16.5988 247.077 16.8169 247.241 17.0494C247.405 17.2723 247.487 17.5243 247.487 17.8052C247.487 18.2219 247.343 18.5223 247.057 18.7064C246.77 18.8905 246.453 18.9826 246.105 18.9826C245.788 18.9826 245.522 18.8808 245.307 18.6773C245.102 18.4836 244.913 18.2897 244.739 18.0959C244.575 17.9022 244.37 17.8052 244.125 17.8052C243.981 17.8052 243.822 17.844 243.649 17.9215C243.485 17.999 243.28 18.1202 243.035 18.2849C242.728 18.4981 242.333 18.7355 241.852 18.9971C241.381 19.2684 240.778 19.501 240.041 19.6948C239.304 19.8983 238.398 20 237.323 20ZM237.738 17.7762C238.372 17.7762 238.986 17.6841 239.58 17.5C240.173 17.3062 240.706 17.0446 241.177 16.7151C241.647 16.376 242.021 15.9836 242.298 15.5378C242.574 15.0824 242.712 14.593 242.712 14.0698C242.712 13.7403 242.594 13.5029 242.359 13.3576C242.134 13.2122 241.76 13.1202 241.238 13.0814C240.716 13.0426 240.025 13.0233 239.165 13.0233C238.315 13.0233 237.527 13.1057 236.801 13.2703C236.074 13.4254 235.49 13.6919 235.051 14.0698C234.61 14.438 234.391 14.9419 234.391 15.5814C234.391 16.0756 234.523 16.4826 234.79 16.8023C235.056 17.1221 235.439 17.3644 235.941 17.5291C236.442 17.6938 237.041 17.7762 237.738 17.7762ZM256.56 19.0843C255.926 19.0843 255.266 19.0552 254.579 18.9971C253.893 18.9487 253.249 18.8711 252.645 18.7645C252.041 18.658 251.529 18.5272 251.11 18.3721C250.731 18.2267 250.419 18.062 250.173 17.8779C249.938 17.6938 249.82 17.4321 249.82 17.093C249.82 16.7151 249.938 16.4292 250.173 16.2355C250.408 16.032 250.752 15.9302 251.202 15.9302C251.519 15.9302 251.913 15.9836 252.384 16.0901C252.865 16.187 253.408 16.2936 254.011 16.4099C254.615 16.5164 255.255 16.5698 255.931 16.5698C256.596 16.5698 257.231 16.5164 257.834 16.4099C258.438 16.2936 258.929 16.1047 259.308 15.843C259.687 15.5814 259.876 15.2228 259.876 14.7674C259.876 14.3507 259.754 14.0116 259.508 13.75C259.273 13.4884 258.858 13.2606 258.264 13.0669C257.67 12.8731 256.836 12.6744 255.762 12.4709C254.584 12.2481 253.586 11.9574 252.768 11.5988C251.959 11.2403 251.34 10.7994 250.91 10.2762C250.491 9.74319 250.28 9.10856 250.28 8.37209C250.28 7.73256 250.47 7.18023 250.849 6.71512C251.237 6.24031 251.765 5.85272 252.43 5.55233C253.095 5.24225 253.853 5.01454 254.702 4.86919C255.562 4.71415 256.463 4.63663 257.405 4.63663C257.977 4.63663 258.561 4.67054 259.155 4.73837C259.758 4.79651 260.317 4.88856 260.828 5.01454C261.35 5.13082 261.77 5.28586 262.087 5.47965C262.405 5.66376 262.563 5.88663 262.563 6.14826C262.563 6.42926 262.491 6.65698 262.348 6.8314C262.205 7.00581 262.015 7.13179 261.78 7.2093C261.555 7.28682 261.304 7.32558 261.028 7.32558C260.588 7.32558 260.081 7.27714 259.508 7.18023C258.945 7.08333 258.331 7.03488 257.666 7.03488C257.082 7.03488 256.54 7.09302 256.038 7.2093C255.536 7.31589 255.132 7.49031 254.825 7.73256C254.529 7.96512 254.38 8.27519 254.38 8.66279C254.38 9.23447 254.707 9.67542 255.363 9.98547C256.028 10.2955 257.001 10.5766 258.28 10.8285C259.467 11.0513 260.449 11.3372 261.228 11.686C262.015 12.0252 262.609 12.4612 263.009 12.9942C263.408 13.5174 263.607 14.1715 263.607 14.9564C263.607 15.7025 263.418 16.3372 263.039 16.8605C262.66 17.3837 262.144 17.81 261.489 18.1395C260.833 18.4593 260.081 18.6967 259.232 18.8517C258.382 19.0068 257.492 19.0843 256.56 19.0843ZM283.085 19.3605C281.581 19.3605 280.276 19.1182 279.169 18.6337C278.074 18.1493 277.225 17.4321 276.621 16.4826C276.027 15.5233 275.73 14.3411 275.73 12.936C275.73 11.6182 276.001 10.5039 276.545 9.59302C277.087 8.68214 277.865 7.99419 278.878 7.52907C279.892 7.05426 281.105 6.81686 282.517 6.81686C283.294 6.81686 283.939 6.89923 284.452 7.06395C284.974 7.219 285.398 7.38372 285.726 7.55814C285.961 7.68411 286.171 7.79554 286.356 7.89244C286.549 7.98934 286.688 8.03779 286.77 8.03779C286.933 8.03779 287.016 7.89728 287.016 7.61628C287.016 7.36434 286.99 7.04458 286.939 6.65698C286.887 6.25969 286.826 5.82849 286.755 5.36337C286.693 4.89826 286.621 4.43314 286.54 3.96802C286.468 3.50291 286.406 3.0717 286.356 2.67442C286.314 2.27714 286.294 1.95737 286.294 1.71512C286.294 0.571703 286.882 0 288.06 0C288.479 0 288.868 0.0968995 289.227 0.290698C289.595 0.47481 289.892 0.760657 290.117 1.14826C290.271 1.4874 290.418 1.95252 290.562 2.54361C290.705 3.13469 290.839 3.79361 290.962 4.52035C291.094 5.24709 291.207 5.98353 291.299 6.72965C291.401 7.47577 291.478 8.17345 291.53 8.82268C291.591 9.47193 291.622 10.0193 291.622 10.4651C291.622 12.4709 291.335 14.1327 290.762 15.4506C290.199 16.7684 289.288 17.7519 288.029 18.4012C286.78 19.0407 285.132 19.3605 283.085 19.3605ZM283.193 17.1657C284.134 17.1657 284.928 17.001 285.572 16.6715C286.217 16.342 286.703 15.8721 287.031 15.2616C287.369 14.6414 287.538 13.9051 287.538 13.0523C287.538 12.2093 287.374 11.5068 287.046 10.9448C286.718 10.3731 286.258 9.94186 285.665 9.65116C285.071 9.36047 284.354 9.21512 283.515 9.21512C282.604 9.21512 281.811 9.36528 281.135 9.6657C280.46 9.96612 279.938 10.4118 279.569 11.0029C279.201 11.5843 279.017 12.311 279.017 13.1831C279.017 13.9971 279.19 14.7045 279.539 15.3052C279.886 15.8963 280.372 16.3566 280.997 16.686C281.621 17.0058 282.353 17.1657 283.193 17.1657ZM303.076 19.593C301.356 19.593 299.867 19.3459 298.608 18.8517C297.349 18.3576 296.377 17.5969 295.69 16.5698C295.004 15.533 294.662 14.2151 294.662 12.6163C294.662 11.2888 294.892 10.1308 295.353 9.14244C295.824 8.14438 296.469 7.31105 297.287 6.64244C298.106 5.97384 299.053 5.47481 300.128 5.14535C301.202 4.80621 302.349 4.63663 303.567 4.63663C304.396 4.63663 305.179 4.719 305.916 4.88372C306.663 5.04845 307.324 5.30523 307.897 5.65407C308.48 5.99322 308.936 6.42926 309.263 6.96221C309.59 7.49516 309.754 8.12984 309.754 8.86628C309.754 9.65116 309.581 10.2907 309.232 10.7849C308.884 11.2694 308.408 11.6522 307.804 11.9331C307.201 12.2045 306.515 12.408 305.747 12.5436C304.99 12.6696 304.196 12.7664 303.367 12.8343C302.948 12.9022 302.451 12.9603 301.878 13.0087C301.305 13.0475 300.747 13.0814 300.204 13.1105C299.672 13.1298 299.257 13.1395 298.961 13.1395C298.654 13.1395 298.444 13.1783 298.331 13.2558C298.219 13.3333 298.162 13.4738 298.162 13.6773C298.162 13.9196 298.234 14.2054 298.377 14.5349C298.52 14.8547 298.726 15.1696 298.991 15.4797C299.483 16.0513 300.051 16.4341 300.696 16.6279C301.351 16.812 302.154 16.9041 303.106 16.9041C303.935 16.9041 304.692 16.812 305.379 16.6279C306.065 16.4341 306.679 16.2452 307.221 16.061C307.774 15.8673 308.27 15.7703 308.71 15.7703C309.109 15.7703 309.421 15.843 309.647 15.9884C309.882 16.124 310 16.3953 310 16.8023C310 17.1705 309.821 17.5243 309.463 17.8634C309.114 18.2025 308.629 18.4981 308.004 18.75C307.379 19.0116 306.648 19.2151 305.808 19.3605C304.969 19.5155 304.058 19.593 303.076 19.593ZM301.863 11.5116C302.692 11.5116 303.464 11.439 304.181 11.2936C304.898 11.1385 305.475 10.8818 305.916 10.5233C306.366 10.1551 306.592 9.65116 306.592 9.01163C306.592 8.25581 306.3 7.68895 305.716 7.31105C305.133 6.92345 304.314 6.72965 303.26 6.72965C302.635 6.72965 302.027 6.83624 301.433 7.04942C300.839 7.25291 300.312 7.53876 299.851 7.90698C299.391 8.27519 299.022 8.69186 298.746 9.15698C298.469 9.62209 298.331 10.1211 298.331 10.6541C298.331 10.9254 298.444 11.124 298.669 11.25C298.904 11.3663 299.278 11.439 299.79 11.468C300.312 11.4971 301.003 11.5116 301.863 11.5116Z" fill="#6F8F72"/>
<path d="M93.05 48.472C91.49 48.136 90.422 47.35 89.846 46.114C89.282 44.878 89 43.234 89 41.182C89 40.594 89.012 39.922 89.036 39.166C89.072 38.398 89.12 37.6 89.18 36.772C89.24 35.944 89.306 35.134 89.378 34.342C89.45 33.55 89.522 32.824 89.594 32.164C89.666 31.504 89.732 30.97 89.792 30.562C90.032 28.966 90.386 27.808 90.854 27.088C91.322 26.368 91.958 26.008 92.762 26.008C93.278 26.008 93.662 26.122 93.914 26.35C94.166 26.566 94.334 26.878 94.418 27.286C94.502 27.694 94.544 28.18 94.544 28.744C94.544 29.116 94.532 29.554 94.508 30.058C94.484 30.55 94.46 31.078 94.436 31.642C94.412 32.206 94.388 32.8 94.364 33.424C94.34 34.036 94.316 34.648 94.292 35.26C94.268 35.872 94.25 36.472 94.238 37.06C94.238 37.636 94.244 38.182 94.256 38.698C94.28 39.718 94.34 40.57 94.436 41.254C94.544 41.938 94.748 42.478 95.048 42.874C95.348 43.258 95.786 43.54 96.362 43.72C96.95 43.888 97.736 43.978 98.72 43.99C99.572 44.026 100.376 44.062 101.132 44.098C101.9 44.122 102.53 44.152 103.022 44.188C103.742 44.14 104.33 44.122 104.786 44.134C105.242 44.134 105.584 44.176 105.812 44.26C106.004 44.356 106.142 44.494 106.226 44.674C106.322 44.842 106.37 45.082 106.37 45.394C106.37 45.898 106.214 46.324 105.902 46.672C105.59 47.02 105.152 47.314 104.588 47.554C104.036 47.794 103.394 48.004 102.662 48.184C101.894 48.364 101.006 48.508 99.998 48.616C98.99 48.724 97.988 48.778 96.992 48.778C96.596 48.778 96.152 48.766 95.66 48.742C95.18 48.73 94.706 48.7 94.238 48.652C93.782 48.604 93.386 48.544 93.05 48.472ZM116.455 49.624C115.483 49.624 114.559 49.528 113.683 49.336C112.819 49.144 112.051 48.838 111.379 48.418C110.707 47.998 110.179 47.452 109.795 46.78C109.411 46.108 109.219 45.286 109.219 44.314C109.219 43.21 109.489 42.304 110.029 41.596C110.569 40.888 111.301 40.336 112.225 39.94C113.161 39.532 114.211 39.25 115.375 39.094C116.539 38.938 117.745 38.86 118.993 38.86C119.377 38.86 119.767 38.872 120.163 38.896C120.559 38.92 120.931 38.944 121.279 38.968C121.639 38.992 121.933 39.004 122.161 39.004C122.473 39.004 122.683 38.956 122.791 38.86C122.899 38.752 122.953 38.572 122.953 38.32C122.953 37.852 122.893 37.438 122.773 37.078C122.665 36.718 122.503 36.4 122.287 36.124C122.071 35.848 121.813 35.614 121.513 35.422C121.033 35.098 120.451 34.87 119.767 34.738C119.095 34.594 118.369 34.522 117.589 34.522C116.665 34.522 115.843 34.618 115.123 34.81C114.415 35.002 113.785 35.2 113.233 35.404C112.681 35.608 112.177 35.71 111.721 35.71C111.097 35.71 110.617 35.608 110.281 35.404C109.945 35.2 109.777 34.87 109.777 34.414C109.777 33.946 109.975 33.514 110.371 33.118C110.767 32.722 111.313 32.374 112.009 32.074C112.717 31.774 113.533 31.54 114.457 31.372C115.393 31.204 116.389 31.12 117.445 31.12C119.569 31.12 121.345 31.39 122.773 31.93C124.213 32.458 125.293 33.322 126.013 34.522C126.733 35.71 127.093 37.312 127.093 39.328C127.093 39.928 127.063 40.45 127.003 40.894C126.943 41.338 126.865 41.728 126.769 42.064C126.685 42.388 126.613 42.67 126.553 42.91C126.493 43.15 126.463 43.372 126.463 43.576C126.463 43.864 126.553 44.14 126.733 44.404C126.925 44.656 127.147 44.908 127.399 45.16C127.663 45.412 127.891 45.682 128.083 45.97C128.275 46.246 128.371 46.558 128.371 46.906C128.371 47.422 128.203 47.794 127.867 48.022C127.531 48.25 127.159 48.364 126.751 48.364C126.379 48.364 126.067 48.238 125.815 47.986C125.575 47.746 125.353 47.506 125.149 47.266C124.957 47.026 124.717 46.906 124.429 46.906C124.261 46.906 124.075 46.954 123.871 47.05C123.679 47.146 123.439 47.296 123.151 47.5C122.791 47.764 122.329 48.058 121.765 48.382C121.213 48.718 120.505 49.006 119.641 49.246C118.777 49.498 117.715 49.624 116.455 49.624ZM116.941 46.87C117.685 46.87 118.405 46.756 119.101 46.528C119.797 46.288 120.421 45.964 120.973 45.556C121.525 45.136 121.963 44.65 122.287 44.098C122.611 43.534 122.773 42.928 122.773 42.28C122.773 41.872 122.635 41.578 122.359 41.398C122.095 41.218 121.657 41.104 121.045 41.056C120.433 41.008 119.623 40.984 118.615 40.984C117.619 40.984 116.695 41.086 115.843 41.29C114.991 41.482 114.307 41.812 113.791 42.28C113.275 42.736 113.017 43.36 113.017 44.152C113.017 44.764 113.173 45.268 113.485 45.664C113.797 46.06 114.247 46.36 114.835 46.564C115.423 46.768 116.125 46.87 116.941 46.87ZM146.491 48.742C145.807 48.742 145.321 48.532 145.033 48.112C144.745 47.704 144.505 47.11 144.313 46.33C144.217 45.838 144.133 45.298 144.061 44.71C143.989 44.122 143.935 43.51 143.899 42.874C143.863 42.226 143.833 41.566 143.809 40.894C143.797 40.21 143.791 39.526 143.791 38.842C143.815 37.978 143.851 37.114 143.899 36.25C143.947 35.386 144.013 34.558 144.097 33.766C144.181 32.962 144.277 32.248 144.385 31.624C144.505 30.988 144.631 30.484 144.763 30.112C145.075 29.224 145.489 28.516 146.005 27.988C146.521 27.46 147.115 27.082 147.787 26.854C148.459 26.614 149.161 26.494 149.893 26.494C150.733 26.494 151.459 26.68 152.071 27.052C152.695 27.424 153.175 27.964 153.511 28.672C153.703 29.068 153.895 29.56 154.087 30.148C154.279 30.736 154.459 31.36 154.627 32.02C154.807 32.68 154.969 33.34 155.113 34C155.269 34.648 155.401 35.248 155.509 35.8C155.641 36.484 155.791 37.09 155.959 37.618C156.139 38.134 156.403 38.392 156.751 38.392C157.099 38.392 157.357 38.176 157.525 37.744C157.705 37.312 157.843 36.832 157.939 36.304C158.035 35.692 158.143 35.038 158.263 34.342C158.383 33.646 158.515 32.956 158.659 32.272C158.815 31.576 158.977 30.916 159.145 30.292C159.325 29.668 159.505 29.116 159.685 28.636C160.009 27.952 160.465 27.424 161.053 27.052C161.653 26.68 162.421 26.494 163.357 26.494C164.053 26.494 164.689 26.62 165.265 26.872C165.841 27.112 166.357 27.466 166.813 27.934C167.269 28.402 167.653 28.978 167.965 29.662C168.241 30.226 168.475 30.976 168.667 31.912C168.871 32.836 169.027 33.886 169.135 35.062C169.243 36.226 169.309 37.444 169.333 38.716C169.333 39.352 169.333 39.988 169.333 40.624C169.333 41.26 169.321 41.896 169.297 42.532C169.273 43.156 169.237 43.774 169.189 44.386C169.153 44.986 169.093 45.574 169.009 46.15C168.841 46.846 168.571 47.356 168.199 47.68C167.839 47.992 167.317 48.148 166.633 48.148C166.213 48.148 165.877 48.04 165.625 47.824C165.385 47.608 165.229 47.302 165.157 46.906C165.133 46.498 165.109 46.072 165.085 45.628C165.061 45.172 165.031 44.704 164.995 44.224C164.971 43.732 164.947 43.24 164.923 42.748C164.899 42.256 164.875 41.77 164.851 41.29C164.815 40.342 164.767 39.43 164.707 38.554C164.647 37.666 164.575 36.874 164.491 36.178C164.419 35.47 164.329 34.936 164.221 34.576C164.017 33.904 163.783 33.394 163.519 33.046C163.267 32.698 162.889 32.524 162.385 32.524C161.965 32.524 161.593 32.698 161.269 33.046C160.957 33.382 160.723 33.886 160.567 34.558C160.507 34.846 160.435 35.212 160.351 35.656C160.267 36.088 160.177 36.568 160.081 37.096C159.997 37.612 159.907 38.152 159.811 38.716C159.727 39.268 159.643 39.814 159.559 40.354C159.475 40.882 159.397 41.374 159.325 41.83C159.145 42.766 158.845 43.474 158.425 43.954C158.017 44.422 157.441 44.656 156.697 44.656C155.809 44.656 155.173 44.344 154.789 43.72C154.405 43.096 154.057 42.256 153.745 41.2C153.673 40.852 153.583 40.426 153.475 39.922C153.367 39.418 153.253 38.884 153.133 38.32C153.013 37.744 152.893 37.174 152.773 36.61C152.653 36.046 152.539 35.536 152.431 35.08C152.335 34.612 152.245 34.234 152.161 33.946C152.005 33.322 151.789 32.866 151.513 32.578C151.249 32.29 150.931 32.146 150.559 32.146C150.031 32.146 149.647 32.344 149.407 32.74C149.179 33.136 148.993 33.766 148.849 34.63C148.801 34.918 148.759 35.29 148.723 35.746C148.687 36.202 148.657 36.718 148.633 37.294C148.609 37.858 148.585 38.464 148.561 39.112C148.549 39.76 148.543 40.42 148.543 41.092C148.543 41.788 148.537 42.448 148.525 43.072C148.525 43.696 148.513 44.278 148.489 44.818C148.465 45.358 148.435 45.838 148.399 46.258C148.375 46.666 148.339 47.002 148.291 47.266C148.159 47.71 147.949 48.064 147.661 48.328C147.385 48.604 146.995 48.742 146.491 48.742ZM180.017 49.624C179.045 49.624 178.121 49.528 177.245 49.336C176.381 49.144 175.613 48.838 174.941 48.418C174.269 47.998 173.741 47.452 173.357 46.78C172.973 46.108 172.781 45.286 172.781 44.314C172.781 43.21 173.051 42.304 173.591 41.596C174.131 40.888 174.863 40.336 175.787 39.94C176.723 39.532 177.773 39.25 178.937 39.094C180.101 38.938 181.307 38.86 182.555 38.86C182.939 38.86 183.329 38.872 183.725 38.896C184.121 38.92 184.493 38.944 184.841 38.968C185.201 38.992 185.495 39.004 185.723 39.004C186.035 39.004 186.245 38.956 186.353 38.86C186.461 38.752 186.515 38.572 186.515 38.32C186.515 37.852 186.455 37.438 186.335 37.078C186.227 36.718 186.065 36.4 185.849 36.124C185.633 35.848 185.375 35.614 185.075 35.422C184.595 35.098 184.013 34.87 183.329 34.738C182.657 34.594 181.931 34.522 181.151 34.522C180.227 34.522 179.405 34.618 178.685 34.81C177.977 35.002 177.347 35.2 176.795 35.404C176.243 35.608 175.739 35.71 175.283 35.71C174.659 35.71 174.179 35.608 173.843 35.404C173.507 35.2 173.339 34.87 173.339 34.414C173.339 33.946 173.537 33.514 173.933 33.118C174.329 32.722 174.875 32.374 175.571 32.074C176.279 31.774 177.095 31.54 178.019 31.372C178.955 31.204 179.951 31.12 181.007 31.12C183.131 31.12 184.907 31.39 186.335 31.93C187.775 32.458 188.855 33.322 189.575 34.522C190.295 35.71 190.655 37.312 190.655 39.328C190.655 39.928 190.625 40.45 190.565 40.894C190.505 41.338 190.427 41.728 190.331 42.064C190.247 42.388 190.175 42.67 190.115 42.91C190.055 43.15 190.025 43.372 190.025 43.576C190.025 43.864 190.115 44.14 190.295 44.404C190.487 44.656 190.709 44.908 190.961 45.16C191.225 45.412 191.453 45.682 191.645 45.97C191.837 46.246 191.933 46.558 191.933 46.906C191.933 47.422 191.765 47.794 191.429 48.022C191.093 48.25 190.721 48.364 190.313 48.364C189.941 48.364 189.629 48.238 189.377 47.986C189.137 47.746 188.915 47.506 188.711 47.266C188.519 47.026 188.279 46.906 187.991 46.906C187.823 46.906 187.637 46.954 187.433 47.05C187.241 47.146 187.001 47.296 186.713 47.5C186.353 47.764 185.891 48.058 185.327 48.382C184.775 48.718 184.067 49.006 183.203 49.246C182.339 49.498 181.277 49.624 180.017 49.624ZM180.503 46.87C181.247 46.87 181.967 46.756 182.663 46.528C183.359 46.288 183.983 45.964 184.535 45.556C185.087 45.136 185.525 44.65 185.849 44.098C186.173 43.534 186.335 42.928 186.335 42.28C186.335 41.872 186.197 41.578 185.921 41.398C185.657 41.218 185.219 41.104 184.607 41.056C183.995 41.008 183.185 40.984 182.177 40.984C181.181 40.984 180.257 41.086 179.405 41.29C178.553 41.482 177.869 41.812 177.353 42.28C176.837 42.736 176.579 43.36 176.579 44.152C176.579 44.764 176.735 45.268 177.047 45.664C177.359 46.06 177.809 46.36 178.397 46.564C178.985 46.768 179.687 46.87 180.503 46.87ZM198.758 48.346C198.41 48.346 198.098 48.274 197.822 48.13C197.546 47.998 197.294 47.812 197.066 47.572C196.85 47.332 196.652 47.05 196.472 46.726C196.256 46.27 196.058 45.742 195.878 45.142C195.698 44.542 195.542 43.918 195.41 43.27C195.29 42.61 195.2 41.956 195.14 41.308C195.08 40.66 195.05 40.06 195.05 39.508C195.05 37.552 195.416 35.896 196.148 34.54C196.88 33.184 197.936 32.152 199.316 31.444C200.696 30.736 202.352 30.382 204.284 30.382C205.1 30.382 205.88 30.442 206.624 30.562C207.38 30.682 208.052 30.862 208.64 31.102C209.228 31.33 209.69 31.618 210.026 31.966C210.374 32.302 210.548 32.692 210.548 33.136C210.548 33.496 210.47 33.79 210.314 34.018C210.158 34.234 209.954 34.39 209.702 34.486C209.462 34.582 209.21 34.63 208.946 34.63C208.394 34.63 207.788 34.54 207.128 34.36C206.48 34.168 205.634 34.072 204.59 34.072C203.018 34.072 201.836 34.558 201.044 35.53C200.264 36.502 199.874 37.822 199.874 39.49C199.874 40.09 199.904 40.672 199.964 41.236C200.024 41.788 200.096 42.322 200.18 42.838C200.264 43.342 200.348 43.81 200.432 44.242C200.516 44.674 200.582 45.058 200.63 45.394C200.69 45.73 200.72 46.006 200.72 46.222C200.72 46.966 200.552 47.506 200.216 47.842C199.892 48.178 199.406 48.346 198.758 48.346ZM216.311 48.364C215.747 48.364 215.297 48.25 214.961 48.022C214.637 47.806 214.409 47.458 214.277 46.978C214.145 46.486 214.079 45.868 214.079 45.124C214.079 44.716 214.085 44.224 214.097 43.648C214.121 43.072 214.151 42.448 214.187 41.776C214.223 41.092 214.265 40.402 214.313 39.706C214.361 39.01 214.415 38.344 214.475 37.708C214.535 37.06 214.595 36.478 214.655 35.962C214.715 35.446 214.775 35.032 214.835 34.72C215.075 33.964 215.429 33.4 215.897 33.028C216.377 32.656 216.977 32.47 217.697 32.47C218.381 32.47 218.879 32.728 219.191 33.244C219.503 33.76 219.659 34.504 219.659 35.476C219.659 35.836 219.647 36.322 219.623 36.934C219.599 37.546 219.563 38.224 219.515 38.968C219.467 39.712 219.413 40.474 219.353 41.254C219.305 42.034 219.239 42.784 219.155 43.504C219.083 44.212 219.011 44.842 218.939 45.394C218.867 45.934 218.783 46.342 218.687 46.618C218.447 47.266 218.129 47.716 217.733 47.968C217.349 48.232 216.875 48.364 216.311 48.364ZM217.535 29.68C216.407 29.68 215.633 29.488 215.213 29.104C214.793 28.72 214.583 28.288 214.583 27.808C214.583 27.196 214.805 26.686 215.249 26.278C215.693 25.858 216.239 25.54 216.887 25.324C217.535 25.108 218.183 25 218.831 25C219.299 25 219.731 25.078 220.127 25.234C220.523 25.39 220.835 25.63 221.063 25.954C221.303 26.278 221.423 26.704 221.423 27.232C221.423 27.808 221.243 28.276 220.883 28.636C220.523 28.996 220.049 29.26 219.461 29.428C218.873 29.596 218.231 29.68 217.535 29.68ZM227.201 56.32C226.865 56.32 226.565 56.236 226.301 56.068C226.049 55.9 225.827 55.624 225.635 55.24C225.443 54.868 225.281 54.37 225.149 53.746C225.065 53.23 224.987 52.672 224.915 52.072C224.843 51.484 224.777 50.878 224.717 50.254C224.669 49.642 224.627 49.012 224.591 48.364C224.555 47.728 224.525 47.104 224.501 46.492C224.489 45.88 224.483 45.286 224.483 44.71C224.483 42.214 224.837 40.006 225.545 38.086C226.265 36.154 227.381 34.642 228.893 33.55C230.405 32.446 232.361 31.894 234.761 31.894C236.285 31.894 237.623 32.11 238.775 32.542C239.939 32.962 240.911 33.562 241.691 34.342C242.471 35.11 243.053 36.028 243.437 37.096C243.833 38.152 244.031 39.322 244.031 40.606C244.031 41.902 243.845 43.066 243.473 44.098C243.113 45.118 242.537 45.988 241.745 46.708C240.953 47.428 239.927 47.974 238.667 48.346C237.407 48.718 235.871 48.904 234.059 48.904C233.219 48.904 232.523 48.838 231.971 48.706C231.419 48.586 230.981 48.46 230.657 48.328C230.333 48.208 230.093 48.148 229.937 48.148C229.709 48.148 229.535 48.22 229.415 48.364C229.307 48.508 229.235 48.82 229.199 49.3C229.163 49.54 229.139 49.888 229.127 50.344C229.115 50.812 229.097 51.31 229.073 51.838C229.061 52.378 229.049 52.876 229.037 53.332C229.037 53.788 229.031 54.136 229.019 54.376C228.971 55.108 228.791 55.612 228.479 55.888C228.179 56.176 227.753 56.32 227.201 56.32ZM233.411 45.664C235.103 45.664 236.441 45.448 237.425 45.016C238.409 44.584 239.111 43.96 239.531 43.144C239.963 42.316 240.179 41.332 240.179 40.192C240.179 39.304 240.029 38.47 239.729 37.69C239.429 36.898 238.895 36.256 238.127 35.764C237.359 35.272 236.279 35.026 234.887 35.026C233.903 35.026 233.057 35.194 232.349 35.53C231.641 35.854 231.065 36.322 230.621 36.934C230.189 37.546 229.871 38.266 229.667 39.094C229.463 39.922 229.361 40.846 229.361 41.866C229.361 42.886 229.481 43.672 229.721 44.224C229.961 44.764 230.375 45.142 230.963 45.358C231.563 45.562 232.379 45.664 233.411 45.664ZM257.688 48.832C256.296 48.832 254.952 48.676 253.656 48.364C252.372 48.052 251.22 47.554 250.2 46.87C249.192 46.186 248.394 45.298 247.806 44.206C247.218 43.102 246.924 41.758 246.924 40.174C246.924 38.434 247.206 36.916 247.77 35.62C248.346 34.312 249.138 33.226 250.146 32.362C251.154 31.486 252.318 30.832 253.638 30.4C254.97 29.956 256.392 29.734 257.904 29.734C259.272 29.734 260.61 29.908 261.918 30.256C263.226 30.604 264.402 31.15 265.446 31.894C266.49 32.638 267.318 33.604 267.93 34.792C268.554 35.968 268.866 37.39 268.866 39.058C268.866 40.318 268.608 41.53 268.092 42.694C267.588 43.858 266.85 44.902 265.878 45.826C264.918 46.738 263.748 47.464 262.368 48.004C261 48.556 259.44 48.832 257.688 48.832ZM257.526 44.854C258.75 44.854 259.788 44.668 260.64 44.296C261.492 43.912 262.182 43.414 262.71 42.802C263.25 42.178 263.64 41.5 263.88 40.768C264.132 40.036 264.258 39.31 264.258 38.59C264.258 37.582 264.06 36.73 263.664 36.034C263.28 35.326 262.764 34.756 262.116 34.324C261.48 33.892 260.766 33.58 259.974 33.388C259.182 33.184 258.372 33.082 257.544 33.082C256.464 33.082 255.444 33.316 254.484 33.784C253.524 34.24 252.744 34.936 252.144 35.872C251.556 36.796 251.262 37.966 251.262 39.382C251.262 40.534 251.496 41.524 251.964 42.352C252.444 43.168 253.152 43.792 254.088 44.224C255.024 44.644 256.17 44.854 257.526 44.854ZM279.621 48.49C278.877 48.49 278.103 48.454 277.299 48.382C276.495 48.322 275.739 48.226 275.031 48.094C274.323 47.962 273.723 47.8 273.231 47.608C272.787 47.428 272.421 47.224 272.133 46.996C271.857 46.768 271.719 46.444 271.719 46.024C271.719 45.556 271.857 45.202 272.133 44.962C272.409 44.71 272.811 44.584 273.339 44.584C273.711 44.584 274.173 44.65 274.725 44.782C275.289 44.902 275.925 45.034 276.633 45.178C277.341 45.31 278.091 45.376 278.883 45.376C279.663 45.376 280.407 45.31 281.115 45.178C281.823 45.034 282.399 44.8 282.843 44.476C283.287 44.152 283.509 43.708 283.509 43.144C283.509 42.628 283.365 42.208 283.077 41.884C282.801 41.56 282.315 41.278 281.619 41.038C280.923 40.798 279.945 40.552 278.685 40.3C277.305 40.024 276.135 39.664 275.175 39.22C274.227 38.776 273.501 38.23 272.997 37.582C272.505 36.922 272.259 36.136 272.259 35.224C272.259 34.432 272.481 33.748 272.925 33.172C273.381 32.584 273.999 32.104 274.779 31.732C275.559 31.348 276.447 31.066 277.443 30.886C278.451 30.694 279.507 30.598 280.611 30.598C281.283 30.598 281.967 30.64 282.663 30.724C283.371 30.796 284.025 30.91 284.625 31.066C285.237 31.21 285.729 31.402 286.101 31.642C286.473 31.87 286.659 32.146 286.659 32.47C286.659 32.818 286.575 33.1 286.407 33.316C286.239 33.532 286.017 33.688 285.741 33.784C285.477 33.88 285.183 33.928 284.859 33.928C284.343 33.928 283.749 33.868 283.077 33.748C282.417 33.628 281.697 33.568 280.917 33.568C280.233 33.568 279.597 33.64 279.009 33.784C278.421 33.916 277.947 34.132 277.587 34.432C277.239 34.72 277.065 35.104 277.065 35.584C277.065 36.292 277.449 36.838 278.217 37.222C278.997 37.606 280.137 37.954 281.637 38.266C283.029 38.542 284.181 38.896 285.093 39.328C286.017 39.748 286.713 40.288 287.181 40.948C287.649 41.596 287.883 42.406 287.883 43.378C287.883 44.302 287.661 45.088 287.217 45.736C286.773 46.384 286.167 46.912 285.399 47.32C284.631 47.716 283.749 48.01 282.753 48.202C281.757 48.394 280.713 48.49 279.621 48.49ZM297.932 49.624C296.96 49.624 296.036 49.528 295.16 49.336C294.296 49.144 293.528 48.838 292.856 48.418C292.184 47.998 291.656 47.452 291.272 46.78C290.888 46.108 290.696 45.286 290.696 44.314C290.696 43.21 290.966 42.304 291.506 41.596C292.046 40.888 292.778 40.336 293.702 39.94C294.638 39.532 295.688 39.25 296.852 39.094C298.016 38.938 299.222 38.86 300.47 38.86C300.854 38.86 301.244 38.872 301.64 38.896C302.036 38.92 302.408 38.944 302.756 38.968C303.116 38.992 303.41 39.004 303.638 39.004C303.95 39.004 304.16 38.956 304.268 38.86C304.376 38.752 304.43 38.572 304.43 38.32C304.43 37.852 304.37 37.438 304.25 37.078C304.142 36.718 303.98 36.4 303.764 36.124C303.548 35.848 303.29 35.614 302.99 35.422C302.51 35.098 301.928 34.87 301.244 34.738C300.572 34.594 299.846 34.522 299.066 34.522C298.142 34.522 297.32 34.618 296.6 34.81C295.892 35.002 295.262 35.2 294.71 35.404C294.158 35.608 293.654 35.71 293.198 35.71C292.574 35.71 292.094 35.608 291.758 35.404C291.422 35.2 291.254 34.87 291.254 34.414C291.254 33.946 291.452 33.514 291.848 33.118C292.244 32.722 292.79 32.374 293.486 32.074C294.194 31.774 295.01 31.54 295.934 31.372C296.87 31.204 297.866 31.12 298.922 31.12C301.046 31.12 302.822 31.39 304.25 31.93C305.69 32.458 306.77 33.322 307.49 34.522C308.21 35.71 308.57 37.312 308.57 39.328C308.57 39.928 308.54 40.45 308.48 40.894C308.42 41.338 308.342 41.728 308.246 42.064C308.162 42.388 308.09 42.67 308.03 42.91C307.97 43.15 307.94 43.372 307.94 43.576C307.94 43.864 308.03 44.14 308.21 44.404C308.402 44.656 308.624 44.908 308.876 45.16C309.14 45.412 309.368 45.682 309.56 45.97C309.752 46.246 309.848 46.558 309.848 46.906C309.848 47.422 309.68 47.794 309.344 48.022C309.008 48.25 308.636 48.364 308.228 48.364C307.856 48.364 307.544 48.238 307.292 47.986C307.052 47.746 306.83 47.506 306.626 47.266C306.434 47.026 306.194 46.906 305.906 46.906C305.738 46.906 305.552 46.954 305.348 47.05C305.156 47.146 304.916 47.296 304.628 47.5C304.268 47.764 303.806 48.058 303.242 48.382C302.69 48.718 301.982 49.006 301.118 49.246C300.254 49.498 299.192 49.624 297.932 49.624ZM298.418 46.87C299.162 46.87 299.882 46.756 300.578 46.528C301.274 46.288 301.898 45.964 302.45 45.556C303.002 45.136 303.44 44.65 303.764 44.098C304.088 43.534 304.25 42.928 304.25 42.28C304.25 41.872 304.112 41.578 303.836 41.398C303.572 41.218 303.134 41.104 302.522 41.056C301.91 41.008 301.1 40.984 300.092 40.984C299.096 40.984 298.172 41.086 297.32 41.29C296.468 41.482 295.784 41.812 295.268 42.28C294.752 42.736 294.494 43.36 294.494 44.152C294.494 44.764 294.65 45.268 294.962 45.664C295.274 46.06 295.724 46.36 296.312 46.564C296.9 46.768 297.602 46.87 298.418 46.87Z" fill="#6F8F72"/>
<path d="M11.7946 27.3091C11.2462 27.2039 10.8676 27.1512 10.502 27.0591C7.98227 26.401 6.6114 24.6637 5.97167 22.2157C5.77583 21.4523 5.50166 20.7021 5.38416 19.9256C5.2536 19.0964 5.21443 18.2409 5.22749 17.3986C5.22749 16.78 5.18832 16.2272 4.97943 15.6218C4.66609 14.6873 4.60081 13.6608 4.39192 12.6736C4.30053 12.2656 4.10469 11.8708 3.93496 11.4891C3.86968 11.3312 3.72607 11.2127 3.63468 11.0548C2.94272 9.97556 2.38132 8.84367 1.45436 7.89605C0.866846 7.30379 0.54045 6.40881 0.214055 5.60596C-0.334289 4.2635 0.187944 3.1711 1.58492 2.63148C2.91661 2.11819 4.30052 1.88128 5.73666 2.06554C7.13364 2.2498 8.54367 2.34193 9.94064 2.53935C13.1915 3 16.103 4.30298 18.7794 6.19823C22.4481 8.81735 25.3334 12.1998 27.9185 15.8455C29.1849 17.6355 30.2555 19.5702 31.4436 21.4786C32.3966 20.0704 32.9972 20.5573 33.6761 21.5444C34.2767 20.4389 34.8511 19.3728 35.4125 18.2936C36.9531 15.3454 39.0159 12.7789 41.0396 10.173C43.1285 7.47489 45.6352 5.29009 48.5597 3.56594C52.0065 1.53909 55.7013 0.315074 59.7225 0.0518453C61.1978 -0.0402846 62.6339 -0.0666079 64.0178 0.47301C65.7804 1.1574 66.4854 2.8289 65.6498 4.53989C65.1928 5.47435 64.5401 6.30352 63.9525 7.17217C63.365 8.05399 62.7122 8.90948 62.19 9.83078C61.9289 10.2783 61.8897 10.8705 61.7983 11.397C61.6417 12.292 61.498 13.2001 61.3805 14.1082C61.2369 15.1875 61.1586 16.2799 61.0019 17.3591C60.6886 19.5834 60.3361 21.8208 59.148 23.7819C58.3777 25.0585 57.1896 25.7956 55.7665 26.1641C55.3749 26.2694 54.9701 26.3615 54.3826 26.4931C54.944 26.7958 55.3488 27.0196 55.7535 27.2433C57.6596 28.2831 58.4822 30.5074 57.7771 32.5869C57.6074 33.087 57.7119 33.6661 57.6335 34.2057C57.5552 34.7322 57.3594 35.2455 57.268 35.7719C57.1113 36.7064 56.9024 37.654 56.8763 38.5885C56.8632 39.3782 56.7327 40.0494 56.3932 40.7733C56.0668 41.4708 56.0016 42.3395 56.0146 43.1292C56.0407 44.2742 55.8579 45.1692 54.7221 45.7351C53.8996 46.1431 53.2207 46.7222 53.064 47.7752C52.9595 48.4727 52.3329 48.657 51.6931 48.8017C51.1317 48.9202 50.5051 49.0255 50.0481 49.3414C48.9645 50.0916 47.8286 50.1442 46.6797 49.7757C44.6561 49.1176 42.5802 48.4595 40.9482 47.0381C39.8515 46.0905 38.9637 44.906 38.0498 43.7741C37.4884 43.0765 37.0837 42.2605 36.5614 41.5366C36.0653 40.8522 35.4909 40.2337 34.9947 39.5493C34.3811 38.7201 33.8197 37.8778 33.2322 37.0354C33.0625 36.7854 32.9189 36.5221 32.723 36.2194C32.5925 36.3905 32.475 36.4695 32.4489 36.5879C31.8875 38.3516 30.7647 39.7862 29.7594 41.2997C28.7018 42.8791 27.7096 44.5111 26.5868 46.0378C26.0254 46.8012 25.2682 47.4198 24.537 48.0252C22.9703 49.3019 21.2731 50.3548 19.3147 50.9207C18.8839 51.0392 18.3747 51.0129 17.9177 50.9207C16.8472 50.7101 15.8027 50.4206 14.7452 50.1705C14.2099 50.0521 13.8313 49.7494 13.6615 49.2229C13.4004 48.3543 12.7999 47.8936 11.9382 47.7093C10.8676 47.4856 10.267 46.8538 10.2148 45.722C10.2148 45.3798 10.0973 45.0244 10.0843 44.6822C10.0581 43.7872 9.83619 42.9976 9.35313 42.221C9.00062 41.6683 8.9484 40.9049 8.87006 40.2073C8.76561 39.3255 8.622 38.5095 8.13893 37.7198C7.83865 37.2329 7.81254 36.5485 7.74726 35.9562C7.66893 35.2981 7.60365 34.6795 7.15975 34.1136C6.72891 33.574 6.97697 31.6393 6.97697 31.4418C6.96391 29.8098 8.46533 29.336 9.61424 28.6121C10.267 28.191 10.9329 27.783 11.7423 27.296L11.7946 27.3091Z" fill="#6F8F72"/>
</svg>
