<svg width="301" height="68" viewBox="0 0 301 68" fill="none" xmlns="http://www.w3.org/2000/svg">
<path d="M60.928 21.528C59.5413 21.2293 58.592 20.5307 58.08 19.432C57.5787 18.3333 57.328 16.872 57.328 15.048C57.328 14.5253 57.3387 13.928 57.36 13.256C57.392 12.5733 57.4347 11.864 57.488 11.128C57.5413 10.392 57.6 9.672 57.664 8.968C57.728 8.264 57.792 7.61867 57.856 7.032C57.92 6.44533 57.9787 5.97067 58.032 5.608C58.2453 4.18933 58.56 3.16 58.976 2.52C59.392 1.88 59.9573 1.56 60.672 1.56C61.1307 1.56 61.472 1.66133 61.696 1.864C61.92 2.056 62.0693 2.33333 62.144 2.696C62.2187 3.05867 62.256 3.49067 62.256 3.992C62.256 4.32267 62.2453 4.712 62.224 5.16C62.2027 5.59733 62.1813 6.06667 62.16 6.568C62.1387 7.06933 62.1173 7.59733 62.096 8.152C62.0747 8.696 62.0533 9.24 62.032 9.784C62.0107 10.328 61.9947 10.8613 61.984 11.384C61.984 11.896 61.9893 12.3813 62 12.84C62.0213 13.7467 62.0747 14.504 62.16 15.112C62.256 15.72 62.4373 16.2 62.704 16.552C62.9707 16.8933 63.36 17.144 63.872 17.304C64.3947 17.4533 65.0933 17.5333 65.968 17.544C66.7253 17.576 67.44 17.608 68.112 17.64C68.7947 17.6613 69.3547 17.688 69.792 17.72C70.432 17.6773 70.9547 17.6613 71.36 17.672C71.7653 17.672 72.0693 17.7093 72.272 17.784C72.4427 17.8693 72.5653 17.992 72.64 18.152C72.7253 18.3013 72.768 18.5147 72.768 18.792C72.768 19.24 72.6293 19.6187 72.352 19.928C72.0747 20.2373 71.6853 20.4987 71.184 20.712C70.6933 20.9253 70.1227 21.112 69.472 21.272C68.7893 21.432 68 21.56 67.104 21.656C66.208 21.752 65.3173 21.8 64.432 21.8C64.08 21.8 63.6853 21.7893 63.248 21.768C62.8213 21.7573 62.4 21.7307 61.984 21.688C61.5787 21.6453 61.2267 21.592 60.928 21.528ZM81.8158 22.552C80.9518 22.552 80.1304 22.4667 79.3518 22.296C78.5838 22.1253 77.9011 21.8533 77.3038 21.48C76.7064 21.1067 76.2371 20.6213 75.8958 20.024C75.5544 19.4267 75.3838 18.696 75.3838 17.832C75.3838 16.8507 75.6238 16.0453 76.1038 15.416C76.5838 14.7867 77.2344 14.296 78.0558 13.944C78.8878 13.5813 79.8211 13.3307 80.8558 13.192C81.8904 13.0533 82.9624 12.984 84.0718 12.984C84.4131 12.984 84.7598 12.9947 85.1118 13.016C85.4638 13.0373 85.7944 13.0587 86.1038 13.08C86.4238 13.1013 86.6851 13.112 86.8878 13.112C87.1651 13.112 87.3518 13.0693 87.4478 12.984C87.5438 12.888 87.5918 12.728 87.5918 12.504C87.5918 12.088 87.5384 11.72 87.4318 11.4C87.3358 11.08 87.1918 10.7973 86.9998 10.552C86.8078 10.3067 86.5784 10.0987 86.3118 9.928C85.8851 9.64 85.3678 9.43733 84.7598 9.32C84.1624 9.192 83.5171 9.128 82.8238 9.128C82.0024 9.128 81.2718 9.21333 80.6318 9.384C80.0024 9.55467 79.4424 9.73067 78.9518 9.912C78.4611 10.0933 78.0131 10.184 77.6078 10.184C77.0531 10.184 76.6264 10.0933 76.3278 9.912C76.0291 9.73067 75.8798 9.43733 75.8798 9.032C75.8798 8.616 76.0558 8.232 76.4078 7.88C76.7598 7.528 77.2451 7.21867 77.8638 6.952C78.4931 6.68533 79.2184 6.47733 80.0398 6.328C80.8718 6.17867 81.7571 6.104 82.6958 6.104C84.5838 6.104 86.1624 6.344 87.4318 6.824C88.7118 7.29333 89.6718 8.06133 90.3118 9.128C90.9518 10.184 91.2718 11.608 91.2718 13.4C91.2718 13.9333 91.2451 14.3973 91.1918 14.792C91.1384 15.1867 91.0691 15.5333 90.9838 15.832C90.9091 16.12 90.8451 16.3707 90.7917 16.584C90.7384 16.7973 90.7118 16.9947 90.7118 17.176C90.7118 17.432 90.7918 17.6773 90.9518 17.912C91.1224 18.136 91.3198 18.36 91.5438 18.584C91.7784 18.808 91.9811 19.048 92.1518 19.304C92.3224 19.5493 92.4078 19.8267 92.4078 20.136C92.4078 20.5947 92.2584 20.9253 91.9598 21.128C91.6611 21.3307 91.3304 21.432 90.9678 21.432C90.6371 21.432 90.3598 21.32 90.1358 21.096C89.9224 20.8827 89.7251 20.6693 89.5438 20.456C89.3731 20.2427 89.1598 20.136 88.9038 20.136C88.7544 20.136 88.5891 20.1787 88.4078 20.264C88.2371 20.3493 88.0238 20.4827 87.7678 20.664C87.4478 20.8987 87.0371 21.16 86.5358 21.448C86.0451 21.7467 85.4158 22.0027 84.6478 22.216C83.8798 22.44 82.9358 22.552 81.8158 22.552ZM82.2478 20.104C82.9091 20.104 83.5491 20.0027 84.1678 19.8C84.7864 19.5867 85.3411 19.2987 85.8318 18.936C86.3224 18.5627 86.7118 18.1307 86.9998 17.64C87.2878 17.1387 87.4318 16.6 87.4318 16.024C87.4318 15.6613 87.3091 15.4 87.0638 15.24C86.8291 15.08 86.4398 14.9787 85.8958 14.936C85.3518 14.8933 84.6318 14.872 83.7358 14.872C82.8504 14.872 82.0291 14.9627 81.2718 15.144C80.5144 15.3147 79.9064 15.608 79.4478 16.024C78.9891 16.4293 78.7598 16.984 78.7598 17.688C78.7598 18.232 78.8984 18.68 79.1758 19.032C79.4531 19.384 79.8531 19.6507 80.3758 19.832C80.8984 20.0133 81.5224 20.104 82.2478 20.104ZM101.863 21.544C101.202 21.544 100.514 21.512 99.799 21.448C99.0843 21.3947 98.4123 21.3093 97.783 21.192C97.1537 21.0747 96.6203 20.9307 96.183 20.76C95.7883 20.6 95.463 20.4187 95.207 20.216C94.9617 20.0133 94.839 19.7253 94.839 19.352C94.839 18.936 94.9617 18.6213 95.207 18.408C95.4523 18.184 95.8097 18.072 96.279 18.072C96.6097 18.072 97.0203 18.1307 97.511 18.248C98.0123 18.3547 98.5777 18.472 99.207 18.6C99.8363 18.7173 100.503 18.776 101.207 18.776C101.9 18.776 102.562 18.7173 103.191 18.6C103.82 18.472 104.332 18.264 104.727 17.976C105.122 17.688 105.319 17.2933 105.319 16.792C105.319 16.3333 105.191 15.96 104.935 15.672C104.69 15.384 104.258 15.1333 103.639 14.92C103.02 14.7067 102.151 14.488 101.031 14.264C99.8043 14.0187 98.7643 13.6987 97.911 13.304C97.0683 12.9093 96.423 12.424 95.975 11.848C95.5377 11.2613 95.319 10.5627 95.319 9.752C95.319 9.048 95.5163 8.44 95.911 7.928C96.3163 7.40533 96.8657 6.97867 97.559 6.648C98.2523 6.30667 99.0417 6.056 99.927 5.896C100.823 5.72533 101.762 5.64 102.743 5.64C103.34 5.64 103.948 5.67733 104.567 5.752C105.196 5.816 105.778 5.91733 106.311 6.056C106.855 6.184 107.292 6.35467 107.623 6.568C107.954 6.77067 108.119 7.016 108.119 7.304C108.119 7.61333 108.044 7.864 107.895 8.056C107.746 8.248 107.548 8.38667 107.303 8.472C107.068 8.55733 106.807 8.6 106.519 8.6C106.06 8.6 105.532 8.54667 104.935 8.44C104.348 8.33333 103.708 8.28 103.015 8.28C102.407 8.28 101.842 8.344 101.319 8.472C100.796 8.58933 100.375 8.78133 100.055 9.048C99.7457 9.304 99.591 9.64533 99.591 10.072C99.591 10.7013 99.9323 11.1867 100.615 11.528C101.308 11.8693 102.322 12.1787 103.655 12.456C104.892 12.7013 105.916 13.016 106.727 13.4C107.548 13.7733 108.167 14.2533 108.583 14.84C108.999 15.416 109.207 16.136 109.207 17C109.207 17.8213 109.01 18.52 108.615 19.096C108.22 19.672 107.682 20.1413 106.999 20.504C106.316 20.856 105.532 21.1173 104.647 21.288C103.762 21.4587 102.834 21.544 101.863 21.544ZM125.745 21.416C125.435 21.416 125.158 21.352 124.913 21.224C124.667 21.1067 124.443 20.9413 124.241 20.728C124.049 20.5147 123.873 20.264 123.713 19.976C123.521 19.5707 123.345 19.1013 123.185 18.568C123.025 18.0347 122.886 17.48 122.769 16.904C122.662 16.3173 122.582 15.736 122.529 15.16C122.475 14.584 122.449 14.0507 122.449 13.56C122.449 11.8213 122.774 10.3493 123.424 9.144C124.075 7.93867 125.014 7.02133 126.241 6.392C127.467 5.76267 128.939 5.448 130.657 5.448C131.382 5.448 132.075 5.50133 132.737 5.608C133.409 5.71467 134.006 5.87467 134.529 6.088C135.051 6.29067 135.462 6.54667 135.761 6.856C136.07 7.15467 136.225 7.50133 136.225 7.896C136.225 8.216 136.155 8.47733 136.017 8.68C135.878 8.872 135.697 9.01067 135.473 9.096C135.259 9.18133 135.035 9.224 134.801 9.224C134.31 9.224 133.771 9.144 133.185 8.984C132.609 8.81333 131.857 8.728 130.929 8.728C129.531 8.728 128.481 9.16 127.777 10.024C127.083 10.888 126.737 12.0613 126.737 13.544C126.737 14.0773 126.763 14.5947 126.817 15.096C126.87 15.5867 126.934 16.0613 127.009 16.52C127.083 16.968 127.158 17.384 127.233 17.768C127.307 18.152 127.366 18.4933 127.409 18.792C127.462 19.0907 127.489 19.336 127.489 19.528C127.489 20.1893 127.339 20.6693 127.041 20.968C126.753 21.2667 126.321 21.416 125.745 21.416ZM147.431 22.104C145.639 22.104 144.087 21.832 142.775 21.288C141.463 20.744 140.449 19.9067 139.735 18.776C139.02 17.6347 138.663 16.184 138.663 14.424C138.663 12.9627 138.903 11.688 139.383 10.6C139.873 9.50133 140.545 8.584 141.399 7.848C142.252 7.112 143.239 6.56267 144.359 6.2C145.479 5.82667 146.673 5.64 147.943 5.64C148.807 5.64 149.623 5.73067 150.391 5.912C151.169 6.09333 151.857 6.376 152.455 6.76C153.063 7.13333 153.537 7.61333 153.879 8.2C154.22 8.78667 154.391 9.48533 154.391 10.296C154.391 11.16 154.209 11.864 153.847 12.408C153.484 12.9413 152.988 13.3627 152.359 13.672C151.729 13.9707 151.015 14.1947 150.215 14.344C149.425 14.4827 148.599 14.5893 147.735 14.664C147.297 14.7387 146.78 14.8027 146.183 14.856C145.585 14.8987 145.004 14.936 144.439 14.968C143.884 14.9893 143.452 15 143.143 15C142.823 15 142.604 15.0427 142.487 15.128C142.369 15.2133 142.311 15.368 142.311 15.592C142.311 15.8587 142.385 16.1733 142.535 16.536C142.684 16.888 142.897 17.2347 143.175 17.576C143.687 18.2053 144.279 18.6267 144.951 18.84C145.633 19.0427 146.471 19.144 147.463 19.144C148.327 19.144 149.116 19.0427 149.831 18.84C150.545 18.6267 151.185 18.4187 151.751 18.216C152.327 18.0027 152.844 17.896 153.303 17.896C153.719 17.896 154.044 17.976 154.279 18.136C154.524 18.2853 154.647 18.584 154.647 19.032C154.647 19.4373 154.46 19.8267 154.087 20.2C153.724 20.5733 153.217 20.8987 152.567 21.176C151.916 21.464 151.153 21.688 150.279 21.848C149.404 22.0187 148.455 22.104 147.431 22.104ZM146.167 13.208C147.031 13.208 147.836 13.128 148.583 12.968C149.329 12.7973 149.932 12.5147 150.391 12.12C150.86 11.7147 151.095 11.16 151.095 10.456C151.095 9.624 150.791 9 150.183 8.584C149.575 8.15733 148.721 7.944 147.623 7.944C146.972 7.944 146.337 8.06133 145.719 8.296C145.1 8.52 144.551 8.83467 144.071 9.24C143.591 9.64533 143.207 10.104 142.919 10.616C142.631 11.128 142.487 11.6773 142.487 12.264C142.487 12.5627 142.604 12.7813 142.839 12.92C143.084 13.048 143.473 13.128 144.007 13.16C144.551 13.192 145.271 13.208 146.167 13.208ZM166.493 21.96C165.223 21.96 164.034 21.784 162.925 21.432C161.826 21.0907 160.855 20.5787 160.013 19.896C159.181 19.2133 158.525 18.3707 158.045 17.368C157.575 16.3547 157.34 15.176 157.34 13.832C157.34 12.424 157.565 11.1653 158.013 10.056C158.461 8.936 159.095 7.98667 159.917 7.208C160.749 6.41867 161.746 5.82133 162.909 5.416C164.082 5 165.378 4.792 166.797 4.792C167.895 4.792 168.834 4.89867 169.613 5.112C170.391 5.32533 170.989 5.59733 171.405 5.928C171.821 6.25867 172.029 6.59467 172.029 6.936C172.029 7.14933 171.97 7.34667 171.853 7.528C171.735 7.70933 171.581 7.85333 171.389 7.96C171.197 8.056 170.994 8.104 170.781 8.104C170.535 8.104 170.269 8.056 169.981 7.96C169.703 7.85333 169.341 7.74667 168.893 7.64C168.445 7.53333 167.853 7.48 167.117 7.48C166.263 7.48 165.485 7.61867 164.781 7.896C164.077 8.17333 163.469 8.568 162.957 9.08C162.445 9.592 162.05 10.2 161.773 10.904C161.495 11.5973 161.357 12.3653 161.357 13.208C161.357 14.3387 161.586 15.2933 162.045 16.072C162.514 16.84 163.149 17.4213 163.949 17.816C164.759 18.2107 165.671 18.408 166.685 18.408C167.613 18.408 168.402 18.3173 169.053 18.136C169.703 17.944 170.247 17.72 170.685 17.464C171.133 17.208 171.501 16.984 171.789 16.792C172.077 16.6 172.317 16.504 172.509 16.504C172.861 16.504 173.133 16.584 173.325 16.744C173.517 16.8933 173.65 17.0853 173.725 17.32C173.81 17.544 173.853 17.7627 173.853 17.976C173.853 18.4347 173.682 18.8987 173.34 19.368C173.01 19.8373 172.53 20.2693 171.901 20.664C171.271 21.048 170.498 21.3573 169.581 21.592C168.674 21.8373 167.645 21.96 166.493 21.96ZM185.775 22.104C183.983 22.104 182.431 21.832 181.119 21.288C179.807 20.744 178.793 19.9067 178.079 18.776C177.364 17.6347 177.007 16.184 177.007 14.424C177.007 12.9627 177.247 11.688 177.727 10.6C178.217 9.50133 178.889 8.584 179.743 7.848C180.596 7.112 181.583 6.56267 182.703 6.2C183.823 5.82667 185.017 5.64 186.287 5.64C187.151 5.64 187.967 5.73067 188.735 5.912C189.513 6.09333 190.201 6.376 190.799 6.76C191.407 7.13333 191.881 7.61333 192.222 8.2C192.564 8.78667 192.735 9.48533 192.735 10.296C192.735 11.16 192.553 11.864 192.191 12.408C191.828 12.9413 191.332 13.3627 190.703 13.672C190.073 13.9707 189.359 14.1947 188.559 14.344C187.769 14.4827 186.943 14.5893 186.079 14.664C185.641 14.7387 185.124 14.8027 184.527 14.856C183.929 14.8987 183.348 14.936 182.783 14.968C182.228 14.9893 181.796 15 181.487 15C181.167 15 180.948 15.0427 180.831 15.128C180.713 15.2133 180.655 15.368 180.655 15.592C180.655 15.8587 180.729 16.1733 180.879 16.536C181.028 16.888 181.241 17.2347 181.519 17.576C182.031 18.2053 182.623 18.6267 183.295 18.84C183.977 19.0427 184.815 19.144 185.807 19.144C186.671 19.144 187.46 19.0427 188.175 18.84C188.889 18.6267 189.529 18.4187 190.095 18.216C190.671 18.0027 191.188 17.896 191.647 17.896C192.063 17.896 192.388 17.976 192.623 18.136C192.868 18.2853 192.991 18.584 192.991 19.032C192.991 19.4373 192.804 19.8267 192.431 20.2C192.068 20.5733 191.561 20.8987 190.911 21.176C190.26 21.464 189.497 21.688 188.623 21.848C187.748 22.0187 186.799 22.104 185.775 22.104ZM184.51 13.208C185.375 13.208 186.18 13.128 186.927 12.968C187.673 12.7973 188.276 12.5147 188.735 12.12C189.204 11.7147 189.439 11.16 189.439 10.456C189.439 9.624 189.135 9 188.527 8.584C187.919 8.15733 187.065 7.944 185.967 7.944C185.316 7.944 184.681 8.06133 184.062 8.296C183.444 8.52 182.895 8.83467 182.415 9.24C181.935 9.64533 181.551 10.104 181.263 10.616C180.975 11.128 180.831 11.6773 180.831 12.264C180.831 12.5627 180.948 12.7813 181.183 12.92C181.428 13.048 181.817 13.128 182.351 13.16C182.895 13.192 183.615 13.208 184.51 13.208ZM205.14 21.336C204.564 21.336 203.983 21.2507 203.396 21.08C202.82 20.9093 202.324 20.5893 201.908 20.12C201.503 19.64 201.263 18.9627 201.188 18.088C201.156 17.7787 201.124 17.4267 201.092 17.032C201.06 16.6373 201.028 16.216 200.996 15.768C200.975 15.3093 200.954 14.84 200.932 14.36C200.922 13.8693 200.906 13.3733 200.884 12.872C200.874 12.36 200.868 11.8533 200.868 11.352C200.858 10.872 200.767 10.5573 200.596 10.408C200.436 10.2587 200.186 10.168 199.844 10.136C199.642 10.1147 199.38 10.0987 199.06 10.088C198.751 10.0773 198.431 10.0613 198.1 10.04C197.77 10.0187 197.476 9.99733 197.22 9.976C196.804 9.93333 196.49 9.8 196.276 9.576C196.063 9.34133 195.956 9.01067 195.956 8.584C195.956 8.296 196.015 8.07733 196.132 7.928C196.26 7.768 196.436 7.64533 196.66 7.56C196.895 7.47467 197.156 7.416 197.444 7.384C198.01 7.33067 198.474 7.28267 198.836 7.24C199.21 7.19733 199.556 7.16 199.876 7.128C200.218 7.08533 200.458 6.99467 200.596 6.856C200.746 6.71733 200.842 6.46133 200.884 6.088C200.906 5.864 200.922 5.60267 200.932 5.304C200.954 5.00533 200.975 4.712 200.996 4.424C201.028 4.12533 201.06 3.86933 201.092 3.656C201.21 3.13333 201.375 2.74933 201.588 2.504C201.802 2.25867 202.143 2.136 202.612 2.136C202.996 2.136 203.295 2.2 203.508 2.328C203.732 2.44533 203.898 2.632 204.004 2.888C204.111 3.144 204.196 3.47467 204.26 3.88C204.282 4.21067 204.298 4.504 204.308 4.76C204.33 5.016 204.346 5.25067 204.356 5.464C204.367 5.66667 204.378 5.85333 204.388 6.024C204.41 6.19467 204.431 6.36533 204.452 6.536C204.484 6.84533 204.586 7.06933 204.756 7.208C204.927 7.336 205.178 7.416 205.508 7.448C205.796 7.48 206.111 7.51733 206.452 7.56C206.804 7.592 207.14 7.624 207.46 7.656C207.791 7.67733 208.063 7.70933 208.276 7.752C208.714 7.80533 209.087 7.92267 209.396 8.104C209.706 8.28533 209.86 8.584 209.86 9C209.86 9.384 209.738 9.688 209.492 9.912C209.247 10.1253 208.911 10.248 208.484 10.28C207.834 10.2907 207.231 10.296 206.676 10.296C206.122 10.2853 205.69 10.2853 205.38 10.296C205.135 10.3173 204.943 10.392 204.804 10.52C204.676 10.6373 204.602 10.9467 204.58 11.448C204.58 11.8533 204.58 12.2693 204.58 12.696C204.591 13.1227 204.602 13.5493 204.612 13.976C204.623 14.4027 204.639 14.824 204.66 15.24C204.682 15.6453 204.708 16.0293 204.74 16.392C204.772 16.7547 204.81 17.0853 204.852 17.384C204.938 18.0133 205.092 18.4347 205.316 18.648C205.551 18.8613 205.86 18.968 206.244 18.968C206.703 18.968 207.06 18.8773 207.316 18.696C207.583 18.504 207.807 18.312 207.988 18.12C208.18 17.928 208.394 17.832 208.628 17.832C208.895 17.832 209.087 17.9067 209.204 18.056C209.332 18.1947 209.396 18.4027 209.396 18.68C209.396 19.032 209.268 19.368 209.012 19.688C208.767 19.9973 208.436 20.28 208.02 20.536C207.615 20.7813 207.162 20.9733 206.66 21.112C206.159 21.2613 205.652 21.336 205.14 21.336ZM219.191 22.552C218.327 22.552 217.505 22.4667 216.727 22.296C215.959 22.1253 215.276 21.8533 214.679 21.48C214.081 21.1067 213.612 20.6213 213.271 20.024C212.929 19.4267 212.759 18.696 212.759 17.832C212.759 16.8507 212.999 16.0453 213.479 15.416C213.959 14.7867 214.609 14.296 215.431 13.944C216.263 13.5813 217.196 13.3307 218.231 13.192C219.265 13.0533 220.337 12.984 221.447 12.984C221.788 12.984 222.135 12.9947 222.487 13.016C222.839 13.0373 223.169 13.0587 223.479 13.08C223.799 13.1013 224.06 13.112 224.263 13.112C224.54 13.112 224.727 13.0693 224.823 12.984C224.919 12.888 224.967 12.728 224.967 12.504C224.967 12.088 224.913 11.72 224.807 11.4C224.711 11.08 224.567 10.7973 224.375 10.552C224.183 10.3067 223.953 10.0987 223.687 9.928C223.26 9.64 222.743 9.43733 222.135 9.32C221.537 9.192 220.892 9.128 220.199 9.128C219.377 9.128 218.647 9.21333 218.007 9.384C217.377 9.55467 216.817 9.73067 216.327 9.912C215.836 10.0933 215.388 10.184 214.983 10.184C214.428 10.184 214.001 10.0933 213.703 9.912C213.404 9.73067 213.255 9.43733 213.255 9.032C213.255 8.616 213.431 8.232 213.783 7.88C214.135 7.528 214.62 7.21867 215.239 6.952C215.868 6.68533 216.593 6.47733 217.415 6.328C218.247 6.17867 219.132 6.104 220.071 6.104C221.959 6.104 223.537 6.344 224.807 6.824C226.087 7.29333 227.047 8.06133 227.687 9.128C228.327 10.184 228.647 11.608 228.647 13.4C228.647 13.9333 228.62 14.3973 228.567 14.792C228.513 15.1867 228.444 15.5333 228.359 15.832C228.284 16.12 228.22 16.3707 228.167 16.584C228.113 16.7973 228.087 16.9947 228.087 17.176C228.087 17.432 228.167 17.6773 228.327 17.912C228.497 18.136 228.695 18.36 228.919 18.584C229.153 18.808 229.356 19.048 229.527 19.304C229.697 19.5493 229.783 19.8267 229.783 20.136C229.783 20.5947 229.633 20.9253 229.335 21.128C229.036 21.3307 228.705 21.432 228.343 21.432C228.012 21.432 227.735 21.32 227.511 21.096C227.297 20.8827 227.1 20.6693 226.919 20.456C226.748 20.2427 226.535 20.136 226.279 20.136C226.129 20.136 225.964 20.1787 225.783 20.264C225.612 20.3493 225.399 20.4827 225.143 20.664C224.823 20.8987 224.412 21.16 223.911 21.448C223.42 21.7467 222.791 22.0027 222.023 22.216C221.255 22.44 220.311 22.552 219.191 22.552ZM219.623 20.104C220.284 20.104 220.924 20.0027 221.543 19.8C222.161 19.5867 222.716 19.2987 223.207 18.936C223.697 18.5627 224.087 18.1307 224.375 17.64C224.663 17.1387 224.807 16.6 224.807 16.024C224.807 15.6613 224.684 15.4 224.439 15.24C224.204 15.08 223.815 14.9787 223.271 14.936C222.727 14.8933 222.007 14.872 221.111 14.872C220.225 14.872 219.404 14.9627 218.647 15.144C217.889 15.3147 217.281 15.608 216.823 16.024C216.364 16.4293 216.135 16.984 216.135 17.688C216.135 18.232 216.273 18.68 216.551 19.032C216.828 19.384 217.228 19.6507 217.751 19.832C218.273 20.0133 218.897 20.104 219.623 20.104ZM239.238 21.544C238.577 21.544 237.889 21.512 237.174 21.448C236.459 21.3947 235.787 21.3093 235.158 21.192C234.529 21.0747 233.995 20.9307 233.558 20.76C233.163 20.6 232.838 20.4187 232.582 20.216C232.337 20.0133 232.214 19.7253 232.214 19.352C232.214 18.936 232.337 18.6213 232.582 18.408C232.827 18.184 233.185 18.072 233.654 18.072C233.985 18.072 234.395 18.1307 234.886 18.248C235.387 18.3547 235.953 18.472 236.582 18.6C237.211 18.7173 237.878 18.776 238.582 18.776C239.275 18.776 239.937 18.7173 240.566 18.6C241.195 18.472 241.707 18.264 242.102 17.976C242.497 17.688 242.694 17.2933 242.694 16.792C242.694 16.3333 242.566 15.96 242.31 15.672C242.065 15.384 241.633 15.1333 241.014 14.92C240.395 14.7067 239.526 14.488 238.406 14.264C237.179 14.0187 236.139 13.6987 235.286 13.304C234.443 12.9093 233.798 12.424 233.35 11.848C232.913 11.2613 232.694 10.5627 232.694 9.752C232.694 9.048 232.891 8.44 233.286 7.928C233.691 7.40533 234.241 6.97867 234.934 6.648C235.627 6.30667 236.417 6.056 237.302 5.896C238.198 5.72533 239.137 5.64 240.118 5.64C240.715 5.64 241.323 5.67733 241.942 5.752C242.571 5.816 243.153 5.91733 243.686 6.056C244.23 6.184 244.667 6.35467 244.998 6.568C245.329 6.77067 245.494 7.016 245.494 7.304C245.494 7.61333 245.419 7.864 245.27 8.056C245.121 8.248 244.923 8.38667 244.678 8.472C244.443 8.55733 244.182 8.6 243.894 8.6C243.435 8.6 242.907 8.54667 242.31 8.44C241.723 8.33333 241.083 8.28 240.39 8.28C239.782 8.28 239.217 8.344 238.694 8.472C238.171 8.58933 237.75 8.78133 237.43 9.048C237.121 9.304 236.966 9.64533 236.966 10.072C236.966 10.7013 237.307 11.1867 237.99 11.528C238.683 11.8693 239.697 12.1787 241.03 12.456C242.267 12.7013 243.291 13.016 244.102 13.4C244.923 13.7733 245.542 14.2533 245.958 14.84C246.374 15.416 246.582 16.136 246.582 17C246.582 17.8213 246.385 18.52 245.99 19.096C245.595 19.672 245.057 20.1413 244.374 20.504C243.691 20.856 242.907 21.1173 242.022 21.288C241.137 21.4587 240.209 21.544 239.238 21.544ZM266.88 21.848C265.312 21.848 263.952 21.5813 262.799 21.048C261.658 20.5147 260.773 19.7253 260.144 18.68C259.525 17.624 259.215 16.3227 259.215 14.776C259.215 13.3253 259.498 12.0987 260.064 11.096C260.629 10.0933 261.44 9.336 262.496 8.824C263.552 8.30133 264.816 8.04 266.288 8.04C267.098 8.04 267.77 8.13067 268.304 8.312C268.848 8.48267 269.29 8.664 269.632 8.856C269.877 8.99467 270.096 9.11733 270.288 9.224C270.49 9.33067 270.634 9.384 270.72 9.384C270.89 9.384 270.976 9.22933 270.976 8.92C270.976 8.64267 270.949 8.29067 270.896 7.864C270.842 7.42667 270.778 6.952 270.704 6.44C270.64 5.928 270.565 5.416 270.48 4.904C270.405 4.392 270.341 3.91733 270.288 3.48C270.245 3.04267 270.224 2.69067 270.224 2.424C270.224 1.16533 270.837 0.535999 272.064 0.535999C272.501 0.535999 272.906 0.642666 273.28 0.855999C273.664 1.05867 273.973 1.37333 274.208 1.8C274.368 2.17333 274.522 2.68533 274.672 3.336C274.821 3.98667 274.96 4.712 275.088 5.512C275.226 6.312 275.344 7.12267 275.44 7.944C275.546 8.76533 275.626 9.53333 275.68 10.248C275.744 10.9627 275.776 11.5653 275.776 12.056C275.776 14.264 275.477 16.0933 274.88 17.544C274.293 18.9947 273.344 20.0773 272.032 20.792C270.73 21.496 269.013 21.848 266.88 21.848ZM266.992 19.432C267.973 19.432 268.8 19.2507 269.472 18.888C270.144 18.5253 270.65 18.008 270.992 17.336C271.344 16.6533 271.52 15.8427 271.52 14.904C271.52 13.976 271.349 13.2027 271.008 12.584C270.666 11.9547 270.186 11.48 269.568 11.16C268.949 10.84 268.202 10.68 267.328 10.68C266.378 10.68 265.552 10.8453 264.848 11.176C264.144 11.5067 263.6 11.9973 263.216 12.648C262.832 13.288 262.64 14.088 262.64 15.048C262.64 15.944 262.821 16.7227 263.184 17.384C263.546 18.0347 264.053 18.5413 264.704 18.904C265.354 19.256 266.117 19.432 266.992 19.432ZM287.712 22.104C285.92 22.104 284.368 21.832 283.056 21.288C281.744 20.744 280.731 19.9067 280.016 18.776C279.301 17.6347 278.944 16.184 278.944 14.424C278.944 12.9627 279.184 11.688 279.664 10.6C280.155 9.50133 280.827 8.584 281.68 7.848C282.533 7.112 283.52 6.56267 284.64 6.2C285.76 5.82667 286.955 5.64 288.224 5.64C289.088 5.64 289.904 5.73067 290.672 5.912C291.451 6.09333 292.139 6.376 292.736 6.76C293.344 7.13333 293.819 7.61333 294.16 8.2C294.501 8.78667 294.672 9.48533 294.672 10.296C294.672 11.16 294.491 11.864 294.128 12.408C293.765 12.9413 293.269 13.3627 292.64 13.672C292.011 13.9707 291.296 14.1947 290.496 14.344C289.707 14.4827 288.88 14.5893 288.016 14.664C287.579 14.7387 287.061 14.8027 286.464 14.856C285.867 14.8987 285.285 14.936 284.72 14.968C284.165 14.9893 283.733 15 283.424 15C283.104 15 282.885 15.0427 282.768 15.128C282.651 15.2133 282.592 15.368 282.592 15.592C282.592 15.8587 282.667 16.1733 282.816 16.536C282.965 16.888 283.179 17.2347 283.456 17.576C283.968 18.2053 284.56 18.6267 285.232 18.84C285.915 19.0427 286.752 19.144 287.744 19.144C288.608 19.144 289.397 19.0427 290.112 18.84C290.827 18.6267 291.467 18.4187 292.032 18.216C292.608 18.0027 293.125 17.896 293.584 17.896C294 17.896 294.325 17.976 294.56 18.136C294.805 18.2853 294.928 18.584 294.928 19.032C294.928 19.4373 294.741 19.8267 294.368 20.2C294.005 20.5733 293.499 20.8987 292.848 21.176C292.197 21.464 291.435 21.688 290.56 21.848C289.685 22.0187 288.736 22.104 287.712 22.104ZM286.448 13.208C287.312 13.208 288.117 13.128 288.864 12.968C289.611 12.7973 290.213 12.5147 290.672 12.12C291.141 11.7147 291.376 11.16 291.376 10.456C291.376 9.624 291.072 9 290.464 8.584C289.856 8.15733 289.003 7.944 287.904 7.944C287.253 7.944 286.619 8.06133 286 8.296C285.381 8.52 284.832 8.83467 284.352 9.24C283.872 9.64533 283.488 10.104 283.2 10.616C282.912 11.128 282.768 11.6773 282.768 12.264C282.768 12.5627 282.885 12.7813 283.12 12.92C283.365 13.048 283.755 13.128 284.288 13.16C284.832 13.192 285.552 13.208 286.448 13.208Z" fill="#6F8F72"/>
<path d="M82.544 59.594C80.984 59.258 79.916 58.472 79.34 57.236C78.776 56 78.494 54.356 78.494 52.304C78.494 51.716 78.506 51.044 78.53 50.288C78.566 49.52 78.614 48.722 78.674 47.894C78.734 47.066 78.8 46.256 78.872 45.464C78.944 44.672 79.016 43.946 79.088 43.286C79.16 42.626 79.226 42.092 79.286 41.684C79.526 40.088 79.88 38.93 80.348 38.21C80.816 37.49 81.452 37.13 82.256 37.13C82.772 37.13 83.156 37.244 83.408 37.472C83.66 37.688 83.828 38 83.912 38.408C83.996 38.816 84.038 39.302 84.038 39.866C84.038 40.238 84.026 40.676 84.002 41.18C83.978 41.672 83.954 42.2 83.93 42.764C83.906 43.328 83.882 43.922 83.858 44.546C83.834 45.158 83.81 45.77 83.786 46.382C83.762 46.994 83.744 47.594 83.732 48.182C83.732 48.758 83.738 49.304 83.75 49.82C83.774 50.84 83.834 51.692 83.93 52.376C84.038 53.06 84.242 53.6 84.542 53.996C84.842 54.38 85.28 54.662 85.856 54.842C86.444 55.01 87.23 55.1 88.214 55.112C89.066 55.148 89.87 55.184 90.626 55.22C91.394 55.244 92.024 55.274 92.516 55.31C93.236 55.262 93.824 55.244 94.28 55.256C94.736 55.256 95.078 55.298 95.306 55.382C95.498 55.478 95.636 55.616 95.72 55.796C95.816 55.964 95.864 56.204 95.864 56.516C95.864 57.02 95.708 57.446 95.396 57.794C95.084 58.142 94.646 58.436 94.082 58.676C93.53 58.916 92.888 59.126 92.156 59.306C91.388 59.486 90.5 59.63 89.492 59.738C88.484 59.846 87.482 59.9 86.486 59.9C86.09 59.9 85.646 59.888 85.154 59.864C84.674 59.852 84.2 59.822 83.732 59.774C83.276 59.726 82.88 59.666 82.544 59.594ZM105.949 60.746C104.977 60.746 104.053 60.65 103.177 60.458C102.313 60.266 101.545 59.96 100.873 59.54C100.201 59.12 99.673 58.574 99.289 57.902C98.905 57.23 98.713 56.408 98.713 55.436C98.713 54.332 98.983 53.426 99.523 52.718C100.063 52.01 100.795 51.458 101.719 51.062C102.655 50.654 103.705 50.372 104.869 50.216C106.033 50.06 107.239 49.982 108.487 49.982C108.871 49.982 109.261 49.994 109.657 50.018C110.053 50.042 110.425 50.066 110.773 50.09C111.133 50.114 111.427 50.126 111.655 50.126C111.967 50.126 112.177 50.078 112.285 49.982C112.393 49.874 112.447 49.694 112.447 49.442C112.447 48.974 112.387 48.56 112.267 48.2C112.159 47.84 111.997 47.522 111.781 47.246C111.565 46.97 111.307 46.736 111.007 46.544C110.527 46.22 109.945 45.992 109.261 45.86C108.589 45.716 107.863 45.644 107.083 45.644C106.159 45.644 105.337 45.74 104.617 45.932C103.909 46.124 103.279 46.322 102.727 46.526C102.175 46.73 101.671 46.832 101.215 46.832C100.591 46.832 100.111 46.73 99.775 46.526C99.439 46.322 99.271 45.992 99.271 45.536C99.271 45.068 99.469 44.636 99.865 44.24C100.261 43.844 100.807 43.496 101.503 43.196C102.211 42.896 103.027 42.662 103.951 42.494C104.887 42.326 105.883 42.242 106.939 42.242C109.063 42.242 110.839 42.512 112.267 43.052C113.707 43.58 114.787 44.444 115.507 45.644C116.227 46.832 116.587 48.434 116.587 50.45C116.587 51.05 116.557 51.572 116.497 52.016C116.437 52.46 116.359 52.85 116.263 53.186C116.179 53.51 116.107 53.792 116.047 54.032C115.987 54.272 115.957 54.494 115.957 54.698C115.957 54.986 116.047 55.262 116.227 55.526C116.419 55.778 116.641 56.03 116.893 56.282C117.157 56.534 117.385 56.804 117.577 57.092C117.769 57.368 117.865 57.68 117.865 58.028C117.865 58.544 117.697 58.916 117.361 59.144C117.025 59.372 116.653 59.486 116.245 59.486C115.873 59.486 115.561 59.36 115.309 59.108C115.069 58.868 114.847 58.628 114.643 58.388C114.451 58.148 114.211 58.028 113.923 58.028C113.755 58.028 113.569 58.076 113.365 58.172C113.173 58.268 112.933 58.418 112.645 58.622C112.285 58.886 111.823 59.18 111.259 59.504C110.707 59.84 109.999 60.128 109.135 60.368C108.271 60.62 107.209 60.746 105.949 60.746ZM106.435 57.992C107.179 57.992 107.899 57.878 108.595 57.65C109.291 57.41 109.915 57.086 110.467 56.678C111.019 56.258 111.457 55.772 111.781 55.22C112.105 54.656 112.267 54.05 112.267 53.402C112.267 52.994 112.129 52.7 111.853 52.52C111.589 52.34 111.151 52.226 110.539 52.178C109.927 52.13 109.117 52.106 108.109 52.106C107.113 52.106 106.189 52.208 105.337 52.412C104.485 52.604 103.801 52.934 103.285 53.402C102.769 53.858 102.511 54.482 102.511 55.274C102.511 55.886 102.667 56.39 102.979 56.786C103.291 57.182 103.741 57.482 104.329 57.686C104.917 57.89 105.619 57.992 106.435 57.992ZM135.985 59.864C135.301 59.864 134.815 59.654 134.527 59.234C134.239 58.826 133.999 58.232 133.807 57.452C133.711 56.96 133.627 56.42 133.555 55.832C133.483 55.244 133.429 54.632 133.393 53.996C133.357 53.348 133.327 52.688 133.303 52.016C133.291 51.332 133.285 50.648 133.285 49.964C133.309 49.1 133.345 48.236 133.393 47.372C133.441 46.508 133.507 45.68 133.591 44.888C133.675 44.084 133.771 43.37 133.879 42.746C133.999 42.11 134.125 41.606 134.257 41.234C134.569 40.346 134.983 39.638 135.499 39.11C136.015 38.582 136.609 38.204 137.281 37.976C137.953 37.736 138.655 37.616 139.387 37.616C140.227 37.616 140.953 37.802 141.565 38.174C142.189 38.546 142.669 39.086 143.005 39.794C143.197 40.19 143.389 40.682 143.581 41.27C143.773 41.858 143.953 42.482 144.121 43.142C144.301 43.802 144.463 44.462 144.607 45.122C144.763 45.77 144.895 46.37 145.003 46.922C145.135 47.606 145.285 48.212 145.453 48.74C145.633 49.256 145.897 49.514 146.245 49.514C146.593 49.514 146.851 49.298 147.019 48.866C147.199 48.434 147.337 47.954 147.433 47.426C147.529 46.814 147.637 46.16 147.757 45.464C147.877 44.768 148.009 44.078 148.153 43.394C148.309 42.698 148.471 42.038 148.639 41.414C148.819 40.79 148.999 40.238 149.179 39.758C149.503 39.074 149.959 38.546 150.547 38.174C151.147 37.802 151.915 37.616 152.851 37.616C153.547 37.616 154.183 37.742 154.759 37.994C155.335 38.234 155.851 38.588 156.307 39.056C156.763 39.524 157.147 40.1 157.459 40.784C157.735 41.348 157.969 42.098 158.161 43.034C158.365 43.958 158.521 45.008 158.629 46.184C158.737 47.348 158.803 48.566 158.827 49.838C158.827 50.474 158.827 51.11 158.827 51.746C158.827 52.382 158.815 53.018 158.791 53.654C158.767 54.278 158.731 54.896 158.683 55.508C158.647 56.108 158.587 56.696 158.503 57.272C158.335 57.968 158.065 58.478 157.693 58.802C157.333 59.114 156.811 59.27 156.127 59.27C155.707 59.27 155.371 59.162 155.119 58.946C154.879 58.73 154.723 58.424 154.651 58.028C154.627 57.62 154.603 57.194 154.579 56.75C154.555 56.294 154.525 55.826 154.489 55.346C154.465 54.854 154.441 54.362 154.417 53.87C154.393 53.378 154.369 52.892 154.345 52.412C154.309 51.464 154.261 50.552 154.201 49.676C154.141 48.788 154.069 47.996 153.985 47.3C153.913 46.592 153.823 46.058 153.715 45.698C153.511 45.026 153.277 44.516 153.013 44.168C152.761 43.82 152.383 43.646 151.879 43.646C151.459 43.646 151.087 43.82 150.763 44.168C150.451 44.504 150.217 45.008 150.061 45.68C150.001 45.968 149.929 46.334 149.845 46.778C149.761 47.21 149.671 47.69 149.575 48.218C149.491 48.734 149.401 49.274 149.305 49.838C149.221 50.39 149.137 50.936 149.053 51.476C148.969 52.004 148.891 52.496 148.819 52.952C148.639 53.888 148.339 54.596 147.919 55.076C147.511 55.544 146.935 55.778 146.191 55.778C145.303 55.778 144.667 55.466 144.283 54.842C143.899 54.218 143.551 53.378 143.239 52.322C143.167 51.974 143.077 51.548 142.969 51.044C142.861 50.54 142.747 50.006 142.627 49.442C142.507 48.866 142.387 48.296 142.267 47.732C142.147 47.168 142.033 46.658 141.925 46.202C141.829 45.734 141.739 45.356 141.655 45.068C141.499 44.444 141.283 43.988 141.007 43.7C140.743 43.412 140.425 43.268 140.053 43.268C139.525 43.268 139.141 43.466 138.901 43.862C138.673 44.258 138.487 44.888 138.343 45.752C138.295 46.04 138.253 46.412 138.217 46.868C138.181 47.324 138.151 47.84 138.127 48.416C138.103 48.98 138.079 49.586 138.055 50.234C138.043 50.882 138.037 51.542 138.037 52.214C138.037 52.91 138.031 53.57 138.019 54.194C138.019 54.818 138.007 55.4 137.983 55.94C137.959 56.48 137.929 56.96 137.893 57.38C137.869 57.788 137.833 58.124 137.785 58.388C137.653 58.832 137.443 59.186 137.155 59.45C136.879 59.726 136.489 59.864 135.985 59.864ZM169.511 60.746C168.539 60.746 167.615 60.65 166.739 60.458C165.875 60.266 165.107 59.96 164.435 59.54C163.763 59.12 163.235 58.574 162.851 57.902C162.467 57.23 162.275 56.408 162.275 55.436C162.275 54.332 162.545 53.426 163.085 52.718C163.625 52.01 164.357 51.458 165.281 51.062C166.217 50.654 167.267 50.372 168.431 50.216C169.595 50.06 170.801 49.982 172.049 49.982C172.433 49.982 172.823 49.994 173.219 50.018C173.615 50.042 173.987 50.066 174.335 50.09C174.695 50.114 174.989 50.126 175.217 50.126C175.529 50.126 175.739 50.078 175.847 49.982C175.955 49.874 176.009 49.694 176.009 49.442C176.009 48.974 175.949 48.56 175.829 48.2C175.721 47.84 175.559 47.522 175.343 47.246C175.127 46.97 174.869 46.736 174.569 46.544C174.089 46.22 173.507 45.992 172.823 45.86C172.151 45.716 171.425 45.644 170.645 45.644C169.721 45.644 168.899 45.74 168.179 45.932C167.471 46.124 166.841 46.322 166.289 46.526C165.737 46.73 165.233 46.832 164.777 46.832C164.153 46.832 163.673 46.73 163.337 46.526C163.001 46.322 162.833 45.992 162.833 45.536C162.833 45.068 163.031 44.636 163.427 44.24C163.823 43.844 164.369 43.496 165.065 43.196C165.773 42.896 166.589 42.662 167.513 42.494C168.449 42.326 169.445 42.242 170.501 42.242C172.625 42.242 174.401 42.512 175.829 43.052C177.269 43.58 178.349 44.444 179.069 45.644C179.789 46.832 180.149 48.434 180.149 50.45C180.149 51.05 180.119 51.572 180.059 52.016C179.999 52.46 179.921 52.85 179.825 53.186C179.741 53.51 179.669 53.792 179.609 54.032C179.549 54.272 179.519 54.494 179.519 54.698C179.519 54.986 179.609 55.262 179.789 55.526C179.981 55.778 180.203 56.03 180.455 56.282C180.719 56.534 180.947 56.804 181.139 57.092C181.331 57.368 181.427 57.68 181.427 58.028C181.427 58.544 181.259 58.916 180.923 59.144C180.587 59.372 180.215 59.486 179.807 59.486C179.435 59.486 179.123 59.36 178.871 59.108C178.631 58.868 178.409 58.628 178.205 58.388C178.013 58.148 177.773 58.028 177.485 58.028C177.317 58.028 177.131 58.076 176.927 58.172C176.735 58.268 176.495 58.418 176.207 58.622C175.847 58.886 175.385 59.18 174.821 59.504C174.269 59.84 173.561 60.128 172.697 60.368C171.833 60.62 170.771 60.746 169.511 60.746ZM169.997 57.992C170.741 57.992 171.461 57.878 172.157 57.65C172.853 57.41 173.477 57.086 174.029 56.678C174.581 56.258 175.019 55.772 175.343 55.22C175.667 54.656 175.829 54.05 175.829 53.402C175.829 52.994 175.691 52.7 175.415 52.52C175.151 52.34 174.713 52.226 174.101 52.178C173.489 52.13 172.679 52.106 171.671 52.106C170.675 52.106 169.751 52.208 168.899 52.412C168.047 52.604 167.363 52.934 166.847 53.402C166.331 53.858 166.073 54.482 166.073 55.274C166.073 55.886 166.229 56.39 166.541 56.786C166.853 57.182 167.303 57.482 167.891 57.686C168.479 57.89 169.181 57.992 169.997 57.992ZM188.252 59.468C187.904 59.468 187.592 59.396 187.316 59.252C187.04 59.12 186.788 58.934 186.56 58.694C186.344 58.454 186.146 58.172 185.966 57.848C185.75 57.392 185.552 56.864 185.372 56.264C185.192 55.664 185.036 55.04 184.904 54.392C184.784 53.732 184.694 53.078 184.634 52.43C184.574 51.782 184.544 51.182 184.544 50.63C184.544 48.674 184.91 47.018 185.642 45.662C186.374 44.306 187.43 43.274 188.81 42.566C190.19 41.858 191.846 41.504 193.778 41.504C194.594 41.504 195.374 41.564 196.118 41.684C196.874 41.804 197.546 41.984 198.134 42.224C198.722 42.452 199.184 42.74 199.52 43.088C199.868 43.424 200.042 43.814 200.042 44.258C200.042 44.618 199.964 44.912 199.808 45.14C199.652 45.356 199.448 45.512 199.196 45.608C198.956 45.704 198.704 45.752 198.44 45.752C197.888 45.752 197.282 45.662 196.622 45.482C195.974 45.29 195.128 45.194 194.084 45.194C192.512 45.194 191.33 45.68 190.538 46.652C189.758 47.624 189.368 48.944 189.368 50.612C189.368 51.212 189.398 51.794 189.458 52.358C189.518 52.91 189.59 53.444 189.674 53.96C189.758 54.464 189.842 54.932 189.926 55.364C190.01 55.796 190.076 56.18 190.124 56.516C190.184 56.852 190.214 57.128 190.214 57.344C190.214 58.088 190.046 58.628 189.71 58.964C189.386 59.3 188.9 59.468 188.252 59.468ZM205.805 59.486C205.241 59.486 204.791 59.372 204.455 59.144C204.131 58.928 203.903 58.58 203.771 58.1C203.639 57.608 203.573 56.99 203.573 56.246C203.573 55.838 203.579 55.346 203.591 54.77C203.615 54.194 203.645 53.57 203.681 52.898C203.717 52.214 203.759 51.524 203.807 50.828C203.855 50.132 203.909 49.466 203.969 48.83C204.029 48.182 204.089 47.6 204.149 47.084C204.209 46.568 204.269 46.154 204.329 45.842C204.569 45.086 204.923 44.522 205.391 44.15C205.871 43.778 206.471 43.592 207.191 43.592C207.875 43.592 208.373 43.85 208.685 44.366C208.997 44.882 209.153 45.626 209.153 46.598C209.153 46.958 209.141 47.444 209.117 48.056C209.093 48.668 209.057 49.346 209.009 50.09C208.961 50.834 208.907 51.596 208.847 52.376C208.799 53.156 208.733 53.906 208.649 54.626C208.577 55.334 208.505 55.964 208.433 56.516C208.361 57.056 208.277 57.464 208.181 57.74C207.941 58.388 207.623 58.838 207.227 59.09C206.843 59.354 206.369 59.486 205.805 59.486ZM207.029 40.802C205.901 40.802 205.127 40.61 204.707 40.226C204.287 39.842 204.077 39.41 204.077 38.93C204.077 38.318 204.299 37.808 204.743 37.4C205.187 36.98 205.733 36.662 206.381 36.446C207.029 36.23 207.677 36.122 208.325 36.122C208.793 36.122 209.225 36.2 209.621 36.356C210.017 36.512 210.329 36.752 210.557 37.076C210.797 37.4 210.917 37.826 210.917 38.354C210.917 38.93 210.737 39.398 210.377 39.758C210.017 40.118 209.543 40.382 208.955 40.55C208.367 40.718 207.725 40.802 207.029 40.802ZM216.695 67.442C216.359 67.442 216.059 67.358 215.795 67.19C215.543 67.022 215.321 66.746 215.129 66.362C214.937 65.99 214.775 65.492 214.643 64.868C214.559 64.352 214.481 63.794 214.409 63.194C214.337 62.606 214.271 62 214.211 61.376C214.163 60.764 214.121 60.134 214.085 59.486C214.049 58.85 214.019 58.226 213.995 57.614C213.983 57.002 213.977 56.408 213.977 55.832C213.977 53.336 214.331 51.128 215.039 49.208C215.759 47.276 216.875 45.764 218.387 44.672C219.899 43.568 221.855 43.016 224.255 43.016C225.779 43.016 227.117 43.232 228.269 43.664C229.433 44.084 230.405 44.684 231.185 45.464C231.965 46.232 232.547 47.15 232.931 48.218C233.327 49.274 233.525 50.444 233.525 51.728C233.525 53.024 233.339 54.188 232.967 55.22C232.607 56.24 232.031 57.11 231.239 57.83C230.447 58.55 229.421 59.096 228.161 59.468C226.901 59.84 225.365 60.026 223.553 60.026C222.713 60.026 222.017 59.96 221.465 59.828C220.913 59.708 220.475 59.582 220.151 59.45C219.827 59.33 219.587 59.27 219.431 59.27C219.203 59.27 219.029 59.342 218.909 59.486C218.801 59.63 218.729 59.942 218.693 60.422C218.657 60.662 218.633 61.01 218.621 61.466C218.609 61.934 218.591 62.432 218.567 62.96C218.555 63.5 218.543 63.998 218.531 64.454C218.531 64.91 218.525 65.258 218.513 65.498C218.465 66.23 218.285 66.734 217.973 67.01C217.673 67.298 217.247 67.442 216.695 67.442ZM222.905 56.786C224.597 56.786 225.935 56.57 226.919 56.138C227.903 55.706 228.605 55.082 229.025 54.266C229.457 53.438 229.673 52.454 229.673 51.314C229.673 50.426 229.523 49.592 229.223 48.812C228.923 48.02 228.389 47.378 227.621 46.886C226.853 46.394 225.773 46.148 224.381 46.148C223.397 46.148 222.551 46.316 221.843 46.652C221.135 46.976 220.559 47.444 220.115 48.056C219.683 48.668 219.365 49.388 219.161 50.216C218.957 51.044 218.855 51.968 218.855 52.988C218.855 54.008 218.975 54.794 219.215 55.346C219.455 55.886 219.869 56.264 220.457 56.48C221.057 56.684 221.873 56.786 222.905 56.786ZM247.182 59.954C245.79 59.954 244.446 59.798 243.15 59.486C241.866 59.174 240.714 58.676 239.694 57.992C238.686 57.308 237.888 56.42 237.3 55.328C236.712 54.224 236.418 52.88 236.418 51.296C236.418 49.556 236.7 48.038 237.264 46.742C237.84 45.434 238.632 44.348 239.64 43.484C240.648 42.608 241.812 41.954 243.132 41.522C244.464 41.078 245.886 40.856 247.398 40.856C248.766 40.856 250.104 41.03 251.412 41.378C252.72 41.726 253.896 42.272 254.94 43.016C255.984 43.76 256.812 44.726 257.424 45.914C258.048 47.09 258.36 48.512 258.36 50.18C258.36 51.44 258.102 52.652 257.586 53.816C257.082 54.98 256.344 56.024 255.372 56.948C254.412 57.86 253.242 58.586 251.862 59.126C250.494 59.678 248.934 59.954 247.182 59.954ZM247.02 55.976C248.244 55.976 249.282 55.79 250.134 55.418C250.986 55.034 251.676 54.536 252.204 53.924C252.744 53.3 253.134 52.622 253.374 51.89C253.626 51.158 253.752 50.432 253.752 49.712C253.752 48.704 253.554 47.852 253.158 47.156C252.774 46.448 252.258 45.878 251.61 45.446C250.974 45.014 250.26 44.702 249.468 44.51C248.676 44.306 247.866 44.204 247.038 44.204C245.958 44.204 244.938 44.438 243.978 44.906C243.018 45.362 242.238 46.058 241.638 46.994C241.05 47.918 240.756 49.088 240.756 50.504C240.756 51.656 240.99 52.646 241.458 53.474C241.938 54.29 242.646 54.914 243.582 55.346C244.518 55.766 245.664 55.976 247.02 55.976ZM269.115 59.612C268.371 59.612 267.597 59.576 266.793 59.504C265.989 59.444 265.233 59.348 264.525 59.216C263.817 59.084 263.217 58.922 262.725 58.73C262.281 58.55 261.915 58.346 261.627 58.118C261.351 57.89 261.213 57.566 261.213 57.146C261.213 56.678 261.351 56.324 261.627 56.084C261.903 55.832 262.305 55.706 262.833 55.706C263.205 55.706 263.667 55.772 264.219 55.904C264.783 56.024 265.419 56.156 266.127 56.3C266.835 56.432 267.585 56.498 268.377 56.498C269.157 56.498 269.901 56.432 270.609 56.3C271.317 56.156 271.893 55.922 272.337 55.598C272.781 55.274 273.003 54.83 273.003 54.266C273.003 53.75 272.859 53.33 272.571 53.006C272.295 52.682 271.809 52.4 271.113 52.16C270.417 51.92 269.439 51.674 268.179 51.422C266.799 51.146 265.629 50.786 264.669 50.342C263.721 49.898 262.995 49.352 262.491 48.704C261.999 48.044 261.753 47.258 261.753 46.346C261.753 45.554 261.975 44.87 262.419 44.294C262.875 43.706 263.493 43.226 264.273 42.854C265.053 42.47 265.941 42.188 266.937 42.008C267.945 41.816 269.001 41.72 270.105 41.72C270.777 41.72 271.461 41.762 272.157 41.846C272.865 41.918 273.519 42.032 274.119 42.188C274.731 42.332 275.223 42.524 275.595 42.764C275.967 42.992 276.153 43.268 276.153 43.592C276.153 43.94 276.069 44.222 275.901 44.438C275.733 44.654 275.511 44.81 275.235 44.906C274.971 45.002 274.677 45.05 274.353 45.05C273.837 45.05 273.243 44.99 272.571 44.87C271.911 44.75 271.191 44.69 270.411 44.69C269.727 44.69 269.091 44.762 268.503 44.906C267.915 45.038 267.441 45.254 267.081 45.554C266.733 45.842 266.559 46.226 266.559 46.706C266.559 47.414 266.943 47.96 267.711 48.344C268.491 48.728 269.631 49.076 271.131 49.388C272.523 49.664 273.675 50.018 274.587 50.45C275.511 50.87 276.207 51.41 276.675 52.07C277.143 52.718 277.377 53.528 277.377 54.5C277.377 55.424 277.155 56.21 276.711 56.858C276.267 57.506 275.661 58.034 274.893 58.442C274.125 58.838 273.243 59.132 272.247 59.324C271.251 59.516 270.207 59.612 269.115 59.612ZM287.426 60.746C286.454 60.746 285.53 60.65 284.654 60.458C283.79 60.266 283.022 59.96 282.35 59.54C281.678 59.12 281.15 58.574 280.766 57.902C280.382 57.23 280.19 56.408 280.19 55.436C280.19 54.332 280.46 53.426 281 52.718C281.54 52.01 282.272 51.458 283.196 51.062C284.132 50.654 285.182 50.372 286.346 50.216C287.51 50.06 288.716 49.982 289.964 49.982C290.348 49.982 290.738 49.994 291.134 50.018C291.53 50.042 291.902 50.066 292.25 50.09C292.61 50.114 292.904 50.126 293.132 50.126C293.444 50.126 293.654 50.078 293.762 49.982C293.87 49.874 293.924 49.694 293.924 49.442C293.924 48.974 293.864 48.56 293.744 48.2C293.636 47.84 293.474 47.522 293.258 47.246C293.042 46.97 292.784 46.736 292.484 46.544C292.004 46.22 291.422 45.992 290.738 45.86C290.066 45.716 289.34 45.644 288.56 45.644C287.636 45.644 286.814 45.74 286.094 45.932C285.386 46.124 284.756 46.322 284.204 46.526C283.652 46.73 283.148 46.832 282.692 46.832C282.068 46.832 281.588 46.73 281.252 46.526C280.916 46.322 280.748 45.992 280.748 45.536C280.748 45.068 280.946 44.636 281.342 44.24C281.738 43.844 282.284 43.496 282.98 43.196C283.688 42.896 284.504 42.662 285.428 42.494C286.364 42.326 287.36 42.242 288.416 42.242C290.54 42.242 292.316 42.512 293.744 43.052C295.184 43.58 296.264 44.444 296.984 45.644C297.704 46.832 298.064 48.434 298.064 50.45C298.064 51.05 298.034 51.572 297.974 52.016C297.914 52.46 297.836 52.85 297.74 53.186C297.656 53.51 297.584 53.792 297.524 54.032C297.464 54.272 297.434 54.494 297.434 54.698C297.434 54.986 297.524 55.262 297.704 55.526C297.896 55.778 298.118 56.03 298.37 56.282C298.634 56.534 298.862 56.804 299.054 57.092C299.246 57.368 299.342 57.68 299.342 58.028C299.342 58.544 299.174 58.916 298.838 59.144C298.502 59.372 298.13 59.486 297.722 59.486C297.35 59.486 297.038 59.36 296.786 59.108C296.546 58.868 296.324 58.628 296.12 58.388C295.928 58.148 295.688 58.028 295.4 58.028C295.232 58.028 295.046 58.076 294.842 58.172C294.65 58.268 294.41 58.418 294.122 58.622C293.762 58.886 293.3 59.18 292.736 59.504C292.184 59.84 291.476 60.128 290.612 60.368C289.748 60.62 288.686 60.746 287.426 60.746ZM287.912 57.992C288.656 57.992 289.376 57.878 290.072 57.65C290.768 57.41 291.392 57.086 291.944 56.678C292.496 56.258 292.934 55.772 293.258 55.22C293.582 54.656 293.744 54.05 293.744 53.402C293.744 52.994 293.606 52.7 293.33 52.52C293.066 52.34 292.628 52.226 292.016 52.178C291.404 52.13 290.594 52.106 289.586 52.106C288.59 52.106 287.666 52.208 286.814 52.412C285.962 52.604 285.278 52.934 284.762 53.402C284.246 53.858 283.988 54.482 283.988 55.274C283.988 55.886 284.144 56.39 284.456 56.786C284.768 57.182 285.218 57.482 285.806 57.686C286.394 57.89 287.096 57.992 287.912 57.992Z" fill="#6F8F72"/>
<circle cx="20.8947" cy="20.8947" r="18.5" transform="rotate(-8 20.8947 20.8947)" fill="#6F8F72"/>
<path fill-rule="evenodd" clip-rule="evenodd" d="M33.9115 31.8797C32.5542 30.3051 30.2091 30.0511 28.5461 31.2986C26.8463 32.5738 26.459 34.9648 27.6694 36.7114L42.0659 57.4854C43.3755 59.3751 46.0046 59.7745 47.8163 58.3591L49.8389 56.7788C51.6394 55.3721 51.8978 52.7457 50.406 51.0151L33.9115 31.8797ZM43.6431 46.8065C42.9631 45.9361 41.7062 45.7817 40.8358 46.4618L39.9919 47.1211C39.1215 47.8012 38.9671 49.0581 39.6472 49.9285L42.6467 53.7677C43.3267 54.6381 44.5836 54.7924 45.454 54.1124L46.298 53.453C47.1684 52.773 47.3227 51.5161 46.6427 50.6457L43.6431 46.8065Z" fill="#6F8F72"/>
</svg>
