<svg width="40" height="40" viewBox="0 0 40 40" fill="none" xmlns="http://www.w3.org/2000/svg">
<path d="M7.14256 20.4057C6.66027 20.7061 6.25705 20.9433 5.85382 21.1963C5.15806 21.6391 4.44649 22.066 4.4544 23.0464C4.4544 23.165 4.35952 23.2836 4.31208 23.4101C4.16977 23.7817 4.10652 24.177 4.36743 24.5012C4.63624 24.8333 4.67578 25.2128 4.72321 25.6081C4.76274 25.9718 4.77856 26.3829 4.9604 26.6675C5.25294 27.1419 5.33991 27.6321 5.40316 28.1618C5.4506 28.573 5.48222 29.0315 5.69569 29.3715C5.99614 29.8459 6.12264 30.3124 6.13845 30.85C6.13845 31.0556 6.20961 31.269 6.21751 31.4746C6.24123 32.1546 6.61283 32.5341 7.26115 32.6685C7.78297 32.7792 8.13876 33.0559 8.30479 33.5777C8.39967 33.8939 8.63686 34.0679 8.96102 34.147C9.60144 34.2972 10.2339 34.4711 10.8823 34.5976C11.159 34.653 11.4673 34.6688 11.7282 34.5976C12.9142 34.2576 13.942 33.6251 14.8908 32.8582C15.3335 32.4945 15.8 32.1229 16.1321 31.6644C16.812 30.7472 17.4129 29.7668 18.0533 28.8181C18.6621 27.9167 19.3421 27.047 19.682 25.9876C19.7058 25.9243 19.769 25.869 19.8481 25.7662C19.9667 25.956 20.0536 26.1141 20.1564 26.2564C20.5043 26.7624 20.8522 27.2763 21.2238 27.7665C21.5242 28.1697 21.8721 28.5493 22.1725 28.9604C22.4888 29.3952 22.7339 29.8854 23.0739 30.3045C23.6273 30.9844 24.165 31.7039 24.8291 32.2652C25.8253 33.1112 27.0745 33.5144 28.3 33.9098C28.9957 34.1311 29.6915 34.1074 30.3398 33.6489C30.6165 33.4591 30.996 33.3958 31.336 33.3247C31.7155 33.2456 32.1029 33.127 32.1662 32.708C32.2611 32.0755 32.6722 31.7276 33.1703 31.4825C33.8581 31.1425 33.9688 30.6049 33.953 29.917C33.9451 29.4427 33.9846 28.9208 34.1823 28.5018C34.3879 28.067 34.4669 27.6558 34.4748 27.1894C34.4827 26.6201 34.6092 26.0587 34.712 25.4974C34.7674 25.1811 34.886 24.8728 34.9334 24.5565C34.9808 24.2324 34.9255 23.8845 35.0204 23.5841C35.4394 22.3349 34.9492 20.9987 33.7949 20.3741C33.5498 20.2397 33.3047 20.1053 32.9647 19.9234C33.3205 19.8364 33.5656 19.7811 33.8028 19.7258C34.6646 19.5044 35.3841 19.0616 35.8505 18.2947C36.57 17.1167 36.7835 15.7726 36.9733 14.4364C37.0602 13.7881 37.1156 13.1318 37.2025 12.4835C37.2737 11.938 37.3607 11.3924 37.4555 10.8548C37.5109 10.5307 37.5425 10.1828 37.6927 9.91396C38.009 9.36052 38.4043 8.8466 38.7601 8.31688C39.108 7.79506 39.5112 7.29696 39.7879 6.7356C40.2939 5.70778 39.867 4.70367 38.7996 4.29254C37.9615 3.96838 37.0839 3.97628 36.1984 4.03954C33.7712 4.19766 31.5337 4.93295 29.4385 6.15053C27.6675 7.18627 26.1494 8.49872 24.8844 10.1195C23.6589 11.685 22.4097 13.2346 21.4768 14.9977C21.1368 15.6461 20.781 16.2865 20.4252 16.9506C19.9113 16.5948 19.4449 16.3418 19.0733 16.9111C18.3538 15.7647 17.7055 14.6024 16.9385 13.5272C15.3731 11.3371 13.6258 9.30517 11.4041 7.73181C9.79119 6.59329 8.02016 5.81056 6.05148 5.53384C5.2055 5.41524 4.35161 5.3599 3.50563 5.24921C2.63593 5.13852 1.79786 5.28083 0.991411 5.58918C0.145431 5.91334 -0.170823 6.56957 0.161244 7.37602C0.358903 7.85831 0.556562 8.39594 0.912348 8.75173C1.46579 9.32098 1.81367 10.0009 2.23271 10.6493C2.28805 10.7362 2.37502 10.8153 2.41456 10.9102C2.51734 11.1394 2.63593 11.3766 2.69128 11.6217C2.82569 12.2068 2.85731 12.8235 3.04706 13.3928C3.17357 13.7565 3.20519 14.0885 3.19729 14.4601C3.18938 14.9661 3.2131 15.48 3.29216 15.9781C3.36332 16.4446 3.52935 16.8953 3.64795 17.3538C4.03536 18.8244 4.86553 19.8681 6.39145 20.2634C6.62074 20.3187 6.85002 20.3504 7.17418 20.4136L7.14256 20.4057Z" fill="white"/>
<path d="M7.14257 20.4052C6.8105 20.342 6.58122 20.3103 6.35984 20.255C4.83391 19.8597 4.00374 18.816 3.61633 17.3455C3.49774 16.8869 3.3317 16.4362 3.26055 15.9697C3.18148 15.4716 3.15776 14.9577 3.16567 14.4517C3.16567 14.0801 3.14195 13.7481 3.01545 13.3844C2.8257 12.823 2.78616 12.2063 2.65966 11.6133C2.60432 11.3682 2.48572 11.1311 2.38294 10.9018C2.34341 10.8069 2.25644 10.7357 2.20109 10.6409C1.78206 9.99254 1.44208 9.31259 0.880732 8.74334C0.524946 8.38755 0.327287 7.84992 0.129628 7.36763C-0.202439 6.56118 0.113815 5.90495 0.959796 5.58079C1.76624 5.27244 2.60432 5.13013 3.47402 5.24082C4.32 5.35151 5.17388 5.40685 6.01987 5.52545C7.98855 5.80217 9.75167 6.5849 11.3725 7.72341C13.5942 9.29678 15.3415 11.3287 16.9069 13.5188C17.6738 14.594 18.3222 15.7563 19.0416 16.9027C19.6188 16.0567 19.9825 16.3493 20.3936 16.9422C20.7573 16.2781 21.1052 15.6377 21.4452 14.9894C22.3781 13.2183 23.6273 11.6766 24.8528 10.1111C26.1178 8.49033 27.6359 7.17788 29.4069 6.14214C31.4942 4.92456 33.7317 4.18927 36.1668 4.03114C37.0602 3.9758 37.9299 3.95999 38.768 4.28415C39.8354 4.69528 40.2623 5.69939 39.7563 6.72721C39.4796 7.28856 39.0843 7.78667 38.7285 8.30849C38.3727 8.83821 37.9774 9.35212 37.6611 9.90557C37.503 10.1744 37.4793 10.5302 37.4239 10.8464C37.329 11.3841 37.2421 11.9296 37.1709 12.4751C37.0839 13.1235 37.0365 13.7797 36.9416 14.428C36.7519 15.7642 36.5384 17.1083 35.8189 18.2863C35.3525 19.0532 34.633 19.496 33.7712 19.7174C33.534 19.7806 33.2889 19.836 32.9331 19.915C33.2731 20.0969 33.5182 20.2313 33.7633 20.3657C34.9176 20.9903 35.4157 22.3265 34.9888 23.5757C34.886 23.8761 34.9492 24.224 34.9018 24.5481C34.8544 24.8644 34.7358 25.1727 34.6804 25.489C34.5855 26.0504 34.459 26.6196 34.4432 27.181C34.4353 27.6553 34.3563 28.0586 34.1507 28.4934C33.953 28.9125 33.9135 29.4343 33.9214 29.9087C33.9372 30.5965 33.8265 31.1341 33.1387 31.4741C32.6406 31.7192 32.2294 32.0671 32.1346 32.6996C32.0713 33.1186 31.6918 33.2293 31.3044 33.3163C30.9644 33.3875 30.5849 33.4507 30.3082 33.6405C29.652 34.0911 28.9641 34.1227 28.2684 33.9014C27.0429 33.5061 25.7858 33.1107 24.7975 32.2568C24.1333 31.6876 23.5957 30.976 23.0423 30.2961C22.7023 29.877 22.4572 29.3868 22.1409 28.952C21.8405 28.5409 21.4926 28.1693 21.1922 27.7581C20.8206 27.26 20.4806 26.754 20.1248 26.248C20.022 26.0978 19.9351 25.9397 19.8165 25.7578C19.7374 25.8606 19.6662 25.908 19.6504 25.9792C19.3105 27.0387 18.6305 27.9004 18.0217 28.8097C17.3813 29.7584 16.7804 30.7388 16.1005 31.656C15.7605 32.1145 15.3019 32.4861 14.8592 32.8498C13.9104 33.6167 12.8826 34.2492 11.6966 34.5892C11.4357 34.6604 11.1274 34.6446 10.8506 34.5892C10.2023 34.4627 9.56982 34.2888 8.92941 34.1386C8.60524 34.0674 8.37596 33.8856 8.27318 33.5693C8.11505 33.0475 7.75136 32.7708 7.22954 32.6601C6.58122 32.5257 6.21752 32.1462 6.1859 31.4662C6.1859 31.2606 6.11474 31.0472 6.10683 30.8416C6.09102 30.304 5.95661 29.8296 5.66408 29.3631C5.45061 29.0311 5.41898 28.5725 5.37154 28.1534C5.30829 27.6237 5.22132 27.1335 4.92879 26.6591C4.74694 26.3666 4.73113 25.9555 4.6916 25.5997C4.64416 25.2044 4.60463 24.8328 4.33581 24.4928C4.0749 24.1686 4.22512 23.0064 4.22512 22.8878C4.21722 21.9074 5.12645 21.6228 5.82221 21.1879C6.21752 20.9349 6.62075 20.6898 7.11094 20.3973L7.14257 20.4052Z" fill="#6F8F72"/>
</svg>
