<svg width="557" height="35" viewBox="0 0 557 35" fill="none" xmlns="http://www.w3.org/2000/svg">
<path d="M4.49984 26.24C2.76651 25.8666 1.57984 24.9933 0.939844 23.62C0.313177 22.2466 -0.000156164 20.42 -0.000156164 18.14C-0.000156164 17.4866 0.0131771 16.74 0.0398438 15.9C0.0798438 15.0466 0.133177 14.16 0.199844 13.24C0.26651 12.32 0.339844 11.42 0.419844 10.54C0.499844 9.65996 0.579844 8.85329 0.659844 8.11996C0.739844 7.38662 0.813177 6.79329 0.879844 6.33995C1.14651 4.56662 1.53984 3.27996 2.05984 2.47995C2.57984 1.67996 3.28651 1.27996 4.17984 1.27996C4.75318 1.27996 5.17984 1.40662 5.45984 1.65995C5.73984 1.89995 5.92651 2.24662 6.01984 2.69995C6.11318 3.15329 6.15984 3.69329 6.15984 4.31995C6.15984 4.73329 6.14651 5.21995 6.11984 5.77995C6.09318 6.32662 6.06651 6.91329 6.03984 7.53995C6.01318 8.16662 5.98651 8.82662 5.95984 9.51996C5.93318 10.2 5.90651 10.88 5.87984 11.56C5.85318 12.24 5.83318 12.9066 5.81984 13.56C5.81984 14.2 5.82651 14.8066 5.83984 15.38C5.86651 16.5133 5.93318 17.46 6.03984 18.22C6.15984 18.98 6.38651 19.58 6.71984 20.02C7.05318 20.4466 7.53984 20.76 8.17984 20.96C8.83318 21.1466 9.70651 21.2466 10.7998 21.26C11.7465 21.3 12.6398 21.34 13.4798 21.38C14.3332 21.4066 15.0332 21.44 15.5798 21.48C16.3798 21.4266 17.0332 21.4066 17.5398 21.42C18.0465 21.42 18.4265 21.4666 18.6798 21.56C18.8932 21.6666 19.0465 21.82 19.1398 22.02C19.2465 22.2066 19.2998 22.4733 19.2998 22.82C19.2998 23.38 19.1265 23.8533 18.7798 24.24C18.4332 24.6266 17.9465 24.9533 17.3198 25.22C16.7065 25.4866 15.9932 25.72 15.1798 25.92C14.3265 26.12 13.3398 26.28 12.2198 26.4C11.0998 26.52 9.98651 26.58 8.87984 26.58C8.43984 26.58 7.94651 26.5666 7.39984 26.54C6.86651 26.5266 6.33984 26.4933 5.81984 26.44C5.31318 26.3866 4.87318 26.32 4.49984 26.24ZM30.422 27.52C29.342 27.52 28.3154 27.4133 27.342 27.2C26.382 26.9866 25.5287 26.6466 24.782 26.18C24.0354 25.7133 23.4487 25.1066 23.022 24.36C22.5954 23.6133 22.382 22.7 22.382 21.62C22.382 20.3933 22.682 19.3866 23.282 18.6C23.882 17.8133 24.6954 17.2 25.722 16.76C26.762 16.3066 27.9287 15.9933 29.222 15.82C30.5154 15.6466 31.8554 15.56 33.242 15.56C33.6687 15.56 34.102 15.5733 34.542 15.6C34.982 15.6266 35.3954 15.6533 35.782 15.68C36.182 15.7066 36.5087 15.72 36.762 15.72C37.1087 15.72 37.342 15.6666 37.462 15.56C37.582 15.44 37.642 15.24 37.642 14.96C37.642 14.44 37.5754 13.98 37.442 13.58C37.322 13.18 37.142 12.8266 36.902 12.52C36.662 12.2133 36.3754 11.9533 36.042 11.74C35.5087 11.38 34.862 11.1266 34.102 10.98C33.3554 10.82 32.5487 10.74 31.682 10.74C30.6554 10.74 29.742 10.8466 28.942 11.06C28.1554 11.2733 27.4554 11.4933 26.842 11.72C26.2287 11.9466 25.6687 12.06 25.162 12.06C24.4687 12.06 23.9354 11.9466 23.562 11.72C23.1887 11.4933 23.002 11.1266 23.002 10.62C23.002 10.1 23.222 9.61995 23.662 9.17996C24.102 8.73996 24.7087 8.35329 25.482 8.01996C26.2687 7.68662 27.1754 7.42662 28.202 7.23995C29.242 7.05329 30.3487 6.95995 31.522 6.95995C33.882 6.95995 35.8554 7.25996 37.442 7.85996C39.042 8.44662 40.242 9.40662 41.042 10.74C41.842 12.06 42.242 13.84 42.242 16.08C42.242 16.7466 42.2087 17.3266 42.142 17.82C42.0754 18.3133 41.9887 18.7466 41.882 19.12C41.7887 19.48 41.7087 19.7933 41.642 20.06C41.5754 20.3266 41.542 20.5733 41.542 20.8C41.542 21.12 41.642 21.4266 41.842 21.72C42.0554 22 42.302 22.28 42.582 22.56C42.8754 22.84 43.1287 23.14 43.342 23.46C43.5554 23.7666 43.662 24.1133 43.662 24.5C43.662 25.0733 43.4754 25.4866 43.102 25.74C42.7287 25.9933 42.3154 26.12 41.862 26.12C41.4487 26.12 41.102 25.98 40.822 25.7C40.5554 25.4333 40.3087 25.1666 40.082 24.9C39.8687 24.6333 39.602 24.5 39.282 24.5C39.0954 24.5 38.8887 24.5533 38.662 24.66C38.4487 24.7666 38.182 24.9333 37.862 25.16C37.462 25.4533 36.9487 25.78 36.322 26.14C35.7087 26.5133 34.922 26.8333 33.962 27.1C33.002 27.38 31.822 27.52 30.422 27.52ZM30.962 24.46C31.7887 24.46 32.5887 24.3333 33.362 24.08C34.1354 23.8133 34.8287 23.4533 35.442 23C36.0554 22.5333 36.542 21.9933 36.902 21.38C37.262 20.7533 37.442 20.08 37.442 19.36C37.442 18.9066 37.2887 18.58 36.982 18.38C36.6887 18.18 36.202 18.0533 35.522 18C34.842 17.9466 33.942 17.92 32.822 17.92C31.7154 17.92 30.6887 18.0333 29.742 18.26C28.7954 18.4733 28.0354 18.84 27.462 19.36C26.8887 19.8666 26.602 20.56 26.602 21.44C26.602 22.12 26.7754 22.68 27.122 23.12C27.4687 23.56 27.9687 23.8933 28.622 24.12C29.2754 24.3466 30.0554 24.46 30.962 24.46ZM55.2936 26.26C54.4669 26.26 53.6069 26.22 52.7136 26.14C51.8203 26.0733 50.9803 25.9666 50.1936 25.82C49.4069 25.6733 48.7403 25.4933 48.1936 25.28C47.7003 25.08 47.2936 24.8533 46.9736 24.6C46.6669 24.3466 46.5136 23.9866 46.5136 23.52C46.5136 23 46.6669 22.6066 46.9736 22.34C47.2803 22.06 47.7269 21.92 48.3136 21.92C48.7269 21.92 49.2403 21.9933 49.8536 22.14C50.4803 22.2733 51.1869 22.42 51.9736 22.58C52.7603 22.7266 53.5936 22.8 54.4736 22.8C55.3403 22.8 56.1669 22.7266 56.9536 22.58C57.7403 22.42 58.3803 22.16 58.8736 21.8C59.3669 21.44 59.6136 20.9466 59.6136 20.32C59.6136 19.7466 59.4536 19.28 59.1336 18.92C58.8269 18.56 58.2869 18.2466 57.5136 17.98C56.7403 17.7133 55.6536 17.44 54.2536 17.16C52.7203 16.8533 51.4203 16.4533 50.3536 15.96C49.3003 15.4666 48.4936 14.86 47.9336 14.14C47.3869 13.4066 47.1136 12.5333 47.1136 11.52C47.1136 10.64 47.3603 9.87996 47.8536 9.23996C48.3603 8.58662 49.0469 8.05329 49.9136 7.63996C50.7803 7.21329 51.7669 6.89996 52.8736 6.69995C53.9936 6.48662 55.1669 6.37996 56.3936 6.37996C57.1403 6.37996 57.9003 6.42662 58.6736 6.51995C59.4603 6.59996 60.1869 6.72662 60.8536 6.89996C61.5336 7.05996 62.0803 7.27329 62.4936 7.53995C62.9069 7.79329 63.1136 8.09996 63.1136 8.45995C63.1136 8.84662 63.0203 9.15996 62.8336 9.39996C62.6469 9.63996 62.4003 9.81329 62.0936 9.91996C61.8003 10.0266 61.4736 10.08 61.1136 10.08C60.5403 10.08 59.8803 10.0133 59.1336 9.87996C58.4003 9.74662 57.6003 9.67996 56.7336 9.67996C55.9736 9.67996 55.2669 9.75996 54.6136 9.91996C53.9603 10.0666 53.4336 10.3066 53.0336 10.64C52.6469 10.96 52.4536 11.3866 52.4536 11.92C52.4536 12.7066 52.8803 13.3133 53.7336 13.74C54.6003 14.1666 55.8669 14.5533 57.5336 14.9C59.0803 15.2066 60.3603 15.6 61.3736 16.08C62.4003 16.5466 63.1736 17.1466 63.6936 17.88C64.2136 18.6 64.4736 19.5 64.4736 20.58C64.4736 21.6066 64.2269 22.48 63.7336 23.2C63.2403 23.92 62.5669 24.5066 61.7136 24.96C60.8603 25.4 59.8803 25.7266 58.7736 25.94C57.6669 26.1533 56.5069 26.26 55.2936 26.26ZM84.7705 26.1C84.3838 26.1 84.0371 26.02 83.7305 25.86C83.4238 25.7133 83.1438 25.5066 82.8905 25.24C82.6505 24.9733 82.4305 24.66 82.2305 24.3C81.9905 23.7933 81.7705 23.2066 81.5705 22.54C81.3705 21.8733 81.1971 21.18 81.0505 20.46C80.9171 19.7266 80.8171 19 80.7505 18.28C80.6838 17.56 80.6505 16.8933 80.6505 16.28C80.6505 14.1066 81.0571 12.2666 81.8705 10.76C82.6838 9.25329 83.8571 8.10662 85.3905 7.31996C86.9238 6.53329 88.7638 6.13995 90.9105 6.13995C91.8171 6.13995 92.6838 6.20662 93.5105 6.33995C94.3505 6.47329 95.0971 6.67329 95.7505 6.93996C96.4038 7.19329 96.9171 7.51329 97.2905 7.89995C97.6771 8.27329 97.8705 8.70662 97.8705 9.19995C97.8705 9.59996 97.7838 9.92662 97.6105 10.18C97.4371 10.42 97.2105 10.5933 96.9305 10.7C96.6638 10.8066 96.3838 10.86 96.0905 10.86C95.4771 10.86 94.8038 10.76 94.0705 10.56C93.3505 10.3466 92.4105 10.24 91.2505 10.24C89.5038 10.24 88.1905 10.78 87.3105 11.86C86.4438 12.94 86.0105 14.4066 86.0105 16.26C86.0105 16.9266 86.0438 17.5733 86.1105 18.2C86.1771 18.8133 86.2571 19.4066 86.3505 19.98C86.4438 20.54 86.5371 21.06 86.6305 21.54C86.7238 22.02 86.7971 22.4466 86.8505 22.82C86.9171 23.1933 86.9505 23.5 86.9505 23.74C86.9505 24.5666 86.7638 25.1666 86.3905 25.54C86.0305 25.9133 85.4905 26.1 84.7705 26.1ZM111.691 26.96C109.451 26.96 107.511 26.62 105.871 25.94C104.231 25.26 102.964 24.2133 102.071 22.8C101.177 21.3733 100.731 19.56 100.731 17.36C100.731 15.5333 101.031 13.94 101.631 12.58C102.244 11.2066 103.084 10.06 104.151 9.13996C105.217 8.21996 106.451 7.53329 107.851 7.07995C109.251 6.61329 110.744 6.37996 112.331 6.37996C113.411 6.37996 114.431 6.49329 115.391 6.71996C116.364 6.94662 117.224 7.29995 117.971 7.77996C118.731 8.24662 119.324 8.84662 119.751 9.57996C120.177 10.3133 120.391 11.1866 120.391 12.2C120.391 13.28 120.164 14.16 119.711 14.84C119.257 15.5066 118.637 16.0333 117.851 16.42C117.064 16.7933 116.171 17.0733 115.171 17.26C114.184 17.4333 113.151 17.5666 112.071 17.66C111.524 17.7533 110.877 17.8333 110.131 17.9C109.384 17.9533 108.657 18 107.951 18.04C107.257 18.0666 106.717 18.08 106.331 18.08C105.931 18.08 105.657 18.1333 105.511 18.24C105.364 18.3466 105.291 18.54 105.291 18.82C105.291 19.1533 105.384 19.5466 105.571 20C105.757 20.44 106.024 20.8733 106.371 21.3C107.011 22.0866 107.751 22.6133 108.591 22.88C109.444 23.1333 110.491 23.26 111.731 23.26C112.811 23.26 113.797 23.1333 114.691 22.88C115.584 22.6133 116.384 22.3533 117.091 22.1C117.811 21.8333 118.457 21.7 119.031 21.7C119.551 21.7 119.957 21.8 120.251 22C120.557 22.1866 120.711 22.56 120.711 23.12C120.711 23.6266 120.477 24.1133 120.011 24.58C119.557 25.0466 118.924 25.4533 118.111 25.8C117.297 26.16 116.344 26.44 115.251 26.64C114.157 26.8533 112.971 26.96 111.691 26.96ZM110.111 15.84C111.191 15.84 112.197 15.74 113.131 15.54C114.064 15.3266 114.817 14.9733 115.391 14.48C115.977 13.9733 116.271 13.28 116.271 12.4C116.271 11.36 115.891 10.58 115.131 10.06C114.371 9.52662 113.304 9.25996 111.931 9.25996C111.117 9.25996 110.324 9.40662 109.551 9.69996C108.777 9.97996 108.091 10.3733 107.491 10.88C106.891 11.3866 106.411 11.96 106.051 12.6C105.691 13.24 105.511 13.9266 105.511 14.66C105.511 15.0333 105.657 15.3066 105.951 15.48C106.257 15.64 106.744 15.74 107.411 15.78C108.091 15.82 108.991 15.84 110.111 15.84ZM135.33 26.78C133.744 26.78 132.257 26.56 130.87 26.12C129.497 25.6933 128.284 25.0533 127.23 24.2C126.19 23.3466 125.37 22.2933 124.77 21.04C124.184 19.7733 123.89 18.3 123.89 16.62C123.89 14.86 124.17 13.2866 124.73 11.9C125.29 10.5 126.084 9.31329 127.11 8.33996C128.15 7.35329 129.397 6.60662 130.85 6.09996C132.317 5.57996 133.937 5.31996 135.71 5.31996C137.084 5.31996 138.257 5.45329 139.23 5.71996C140.204 5.98662 140.95 6.32662 141.47 6.73996C141.99 7.15329 142.25 7.57329 142.25 7.99995C142.25 8.26662 142.177 8.51329 142.03 8.73995C141.884 8.96662 141.69 9.14662 141.45 9.27995C141.21 9.39995 140.957 9.45995 140.69 9.45995C140.384 9.45995 140.05 9.39995 139.69 9.27995C139.344 9.14662 138.89 9.01329 138.33 8.87996C137.77 8.74662 137.03 8.67996 136.11 8.67996C135.044 8.67996 134.07 8.85329 133.19 9.19995C132.31 9.54662 131.55 10.04 130.91 10.68C130.27 11.32 129.777 12.08 129.43 12.96C129.084 13.8266 128.91 14.7866 128.91 15.84C128.91 17.2533 129.197 18.4466 129.77 19.42C130.357 20.38 131.15 21.1066 132.15 21.6C133.164 22.0933 134.304 22.34 135.57 22.34C136.73 22.34 137.717 22.2266 138.53 22C139.344 21.76 140.024 21.48 140.57 21.16C141.13 20.84 141.59 20.56 141.95 20.32C142.31 20.08 142.61 19.96 142.85 19.96C143.29 19.96 143.63 20.06 143.87 20.26C144.11 20.4466 144.277 20.6866 144.37 20.98C144.477 21.26 144.53 21.5333 144.53 21.8C144.53 22.3733 144.317 22.9533 143.89 23.54C143.477 24.1266 142.877 24.6666 142.09 25.16C141.304 25.64 140.337 26.0266 139.19 26.32C138.057 26.6266 136.77 26.78 135.33 26.78ZM159.245 26.96C157.005 26.96 155.065 26.62 153.425 25.94C151.785 25.26 150.519 24.2133 149.625 22.8C148.732 21.3733 148.285 19.56 148.285 17.36C148.285 15.5333 148.585 13.94 149.185 12.58C149.799 11.2066 150.639 10.06 151.705 9.13996C152.772 8.21996 154.005 7.53329 155.405 7.07995C156.805 6.61329 158.299 6.37996 159.885 6.37996C160.965 6.37996 161.985 6.49329 162.945 6.71996C163.919 6.94662 164.779 7.29995 165.525 7.77996C166.285 8.24662 166.879 8.84662 167.305 9.57996C167.732 10.3133 167.945 11.1866 167.945 12.2C167.945 13.28 167.719 14.16 167.265 14.84C166.812 15.5066 166.192 16.0333 165.405 16.42C164.619 16.7933 163.725 17.0733 162.725 17.26C161.739 17.4333 160.705 17.5666 159.625 17.66C159.079 17.7533 158.432 17.8333 157.685 17.9C156.939 17.9533 156.212 18 155.505 18.04C154.812 18.0666 154.272 18.08 153.885 18.08C153.485 18.08 153.212 18.1333 153.065 18.24C152.919 18.3466 152.845 18.54 152.845 18.82C152.845 19.1533 152.939 19.5466 153.125 20C153.312 20.44 153.579 20.8733 153.925 21.3C154.565 22.0866 155.305 22.6133 156.145 22.88C156.999 23.1333 158.045 23.26 159.285 23.26C160.365 23.26 161.352 23.1333 162.245 22.88C163.139 22.6133 163.939 22.3533 164.645 22.1C165.365 21.8333 166.012 21.7 166.585 21.7C167.105 21.7 167.512 21.8 167.805 22C168.112 22.1866 168.265 22.56 168.265 23.12C168.265 23.6266 168.032 24.1133 167.565 24.58C167.112 25.0466 166.479 25.4533 165.665 25.8C164.852 26.16 163.899 26.44 162.805 26.64C161.712 26.8533 160.525 26.96 159.245 26.96ZM157.665 15.84C158.745 15.84 159.752 15.74 160.685 15.54C161.619 15.3266 162.372 14.9733 162.945 14.48C163.532 13.9733 163.825 13.28 163.825 12.4C163.825 11.36 163.445 10.58 162.685 10.06C161.925 9.52662 160.859 9.25996 159.485 9.25996C158.672 9.25996 157.879 9.40662 157.105 9.69996C156.332 9.97996 155.645 10.3733 155.045 10.88C154.445 11.3866 153.965 11.96 153.605 12.6C153.245 13.24 153.065 13.9266 153.065 14.66C153.065 15.0333 153.212 15.3066 153.505 15.48C153.812 15.64 154.299 15.74 154.965 15.78C155.645 15.82 156.545 15.84 157.665 15.84ZM183.265 26C182.545 26 181.818 25.8933 181.085 25.68C180.365 25.4666 179.745 25.0666 179.225 24.48C178.718 23.88 178.418 23.0333 178.325 21.94C178.285 21.5533 178.245 21.1133 178.205 20.62C178.165 20.1266 178.125 19.6 178.085 19.04C178.058 18.4666 178.032 17.88 178.005 17.28C177.992 16.6666 177.972 16.0466 177.945 15.42C177.932 14.78 177.925 14.1466 177.925 13.52C177.912 12.92 177.798 12.5266 177.585 12.34C177.385 12.1533 177.072 12.04 176.645 12C176.392 11.9733 176.065 11.9533 175.665 11.94C175.278 11.9266 174.878 11.9066 174.465 11.88C174.052 11.8533 173.685 11.8266 173.365 11.8C172.845 11.7466 172.452 11.58 172.185 11.3C171.918 11.0066 171.785 10.5933 171.785 10.06C171.785 9.69996 171.858 9.42662 172.005 9.23996C172.165 9.03996 172.385 8.88662 172.665 8.77996C172.958 8.67329 173.285 8.59996 173.645 8.55996C174.352 8.49329 174.932 8.43329 175.385 8.37996C175.852 8.32662 176.285 8.27996 176.685 8.23996C177.112 8.18662 177.412 8.07329 177.585 7.89995C177.772 7.72662 177.892 7.40662 177.945 6.93996C177.972 6.65995 177.992 6.33329 178.005 5.95995C178.032 5.58662 178.058 5.21996 178.085 4.85996C178.125 4.48662 178.165 4.16662 178.205 3.89995C178.352 3.24662 178.558 2.76662 178.825 2.45996C179.092 2.15329 179.518 1.99996 180.105 1.99996C180.585 1.99996 180.958 2.07996 181.225 2.23995C181.505 2.38662 181.712 2.61996 181.845 2.93995C181.978 3.25995 182.085 3.67329 182.165 4.17996C182.192 4.59329 182.212 4.95995 182.225 5.27995C182.252 5.59995 182.272 5.89329 182.285 6.15995C182.298 6.41329 182.312 6.64662 182.325 6.85996C182.352 7.07329 182.378 7.28662 182.405 7.49996C182.445 7.88662 182.572 8.16662 182.785 8.33996C182.998 8.49996 183.312 8.59996 183.725 8.63995C184.085 8.67996 184.478 8.72662 184.905 8.77996C185.345 8.81996 185.765 8.85996 186.165 8.89996C186.578 8.92662 186.918 8.96662 187.185 9.01995C187.732 9.08662 188.198 9.23329 188.585 9.45995C188.972 9.68662 189.165 10.06 189.165 10.58C189.165 11.06 189.012 11.44 188.705 11.72C188.398 11.9866 187.978 12.14 187.445 12.18C186.632 12.1933 185.878 12.2 185.185 12.2C184.492 12.1866 183.952 12.1866 183.565 12.2C183.258 12.2266 183.018 12.32 182.845 12.48C182.685 12.6266 182.592 13.0133 182.565 13.64C182.565 14.1466 182.565 14.6666 182.565 15.2C182.578 15.7333 182.592 16.2666 182.605 16.8C182.618 17.3333 182.638 17.86 182.665 18.38C182.692 18.8866 182.725 19.3666 182.765 19.82C182.805 20.2733 182.852 20.6866 182.905 21.06C183.012 21.8466 183.205 22.3733 183.485 22.64C183.778 22.9066 184.165 23.04 184.645 23.04C185.218 23.04 185.665 22.9266 185.985 22.7C186.318 22.46 186.598 22.22 186.825 21.98C187.065 21.74 187.332 21.62 187.625 21.62C187.958 21.62 188.198 21.7133 188.345 21.9C188.505 22.0733 188.585 22.3333 188.585 22.68C188.585 23.12 188.425 23.54 188.105 23.94C187.798 24.3266 187.385 24.68 186.865 25C186.358 25.3066 185.792 25.5466 185.165 25.72C184.538 25.9066 183.905 26 183.265 26ZM200.641 27.52C199.561 27.52 198.534 27.4133 197.561 27.2C196.601 26.9866 195.747 26.6466 195.001 26.18C194.254 25.7133 193.667 25.1066 193.241 24.36C192.814 23.6133 192.601 22.7 192.601 21.62C192.601 20.3933 192.901 19.3866 193.501 18.6C194.101 17.8133 194.914 17.2 195.941 16.76C196.981 16.3066 198.147 15.9933 199.441 15.82C200.734 15.6466 202.074 15.56 203.461 15.56C203.887 15.56 204.321 15.5733 204.761 15.6C205.201 15.6266 205.614 15.6533 206.001 15.68C206.401 15.7066 206.727 15.72 206.981 15.72C207.327 15.72 207.561 15.6666 207.681 15.56C207.801 15.44 207.861 15.24 207.861 14.96C207.861 14.44 207.794 13.98 207.661 13.58C207.541 13.18 207.361 12.8266 207.121 12.52C206.881 12.2133 206.594 11.9533 206.261 11.74C205.727 11.38 205.081 11.1266 204.321 10.98C203.574 10.82 202.767 10.74 201.901 10.74C200.874 10.74 199.961 10.8466 199.161 11.06C198.374 11.2733 197.674 11.4933 197.061 11.72C196.447 11.9466 195.887 12.06 195.381 12.06C194.687 12.06 194.154 11.9466 193.781 11.72C193.407 11.4933 193.221 11.1266 193.221 10.62C193.221 10.1 193.441 9.61995 193.881 9.17996C194.321 8.73996 194.927 8.35329 195.701 8.01996C196.487 7.68662 197.394 7.42662 198.421 7.23995C199.461 7.05329 200.567 6.95995 201.741 6.95995C204.101 6.95995 206.074 7.25996 207.661 7.85996C209.261 8.44662 210.461 9.40662 211.261 10.74C212.061 12.06 212.461 13.84 212.461 16.08C212.461 16.7466 212.427 17.3266 212.361 17.82C212.294 18.3133 212.207 18.7466 212.101 19.12C212.007 19.48 211.927 19.7933 211.861 20.06C211.794 20.3266 211.761 20.5733 211.761 20.8C211.761 21.12 211.861 21.4266 212.061 21.72C212.274 22 212.521 22.28 212.801 22.56C213.094 22.84 213.347 23.14 213.561 23.46C213.774 23.7666 213.881 24.1133 213.881 24.5C213.881 25.0733 213.694 25.4866 213.321 25.74C212.947 25.9933 212.534 26.12 212.081 26.12C211.667 26.12 211.321 25.98 211.041 25.7C210.774 25.4333 210.527 25.1666 210.301 24.9C210.087 24.6333 209.821 24.5 209.501 24.5C209.314 24.5 209.107 24.5533 208.881 24.66C208.667 24.7666 208.401 24.9333 208.081 25.16C207.681 25.4533 207.167 25.78 206.541 26.14C205.927 26.5133 205.141 26.8333 204.181 27.1C203.221 27.38 202.041 27.52 200.641 27.52ZM201.181 24.46C202.007 24.46 202.807 24.3333 203.581 24.08C204.354 23.8133 205.047 23.4533 205.661 23C206.274 22.5333 206.761 21.9933 207.121 21.38C207.481 20.7533 207.661 20.08 207.661 19.36C207.661 18.9066 207.507 18.58 207.201 18.38C206.907 18.18 206.421 18.0533 205.741 18C205.061 17.9466 204.161 17.92 203.041 17.92C201.934 17.92 200.907 18.0333 199.961 18.26C199.014 18.4733 198.254 18.84 197.681 19.36C197.107 19.8666 196.821 20.56 196.821 21.44C196.821 22.12 196.994 22.68 197.341 23.12C197.687 23.56 198.187 23.8933 198.841 24.12C199.494 24.3466 200.274 24.46 201.181 24.46ZM225.512 26.26C224.686 26.26 223.826 26.22 222.932 26.14C222.039 26.0733 221.199 25.9666 220.412 25.82C219.626 25.6733 218.959 25.4933 218.412 25.28C217.919 25.08 217.512 24.8533 217.192 24.6C216.886 24.3466 216.732 23.9866 216.732 23.52C216.732 23 216.886 22.6066 217.192 22.34C217.499 22.06 217.946 21.92 218.532 21.92C218.946 21.92 219.459 21.9933 220.072 22.14C220.699 22.2733 221.406 22.42 222.192 22.58C222.979 22.7266 223.812 22.8 224.692 22.8C225.559 22.8 226.386 22.7266 227.172 22.58C227.959 22.42 228.599 22.16 229.092 21.8C229.586 21.44 229.832 20.9466 229.832 20.32C229.832 19.7466 229.672 19.28 229.352 18.92C229.046 18.56 228.506 18.2466 227.732 17.98C226.959 17.7133 225.872 17.44 224.472 17.16C222.939 16.8533 221.639 16.4533 220.572 15.96C219.519 15.4666 218.712 14.86 218.152 14.14C217.606 13.4066 217.332 12.5333 217.332 11.52C217.332 10.64 217.579 9.87996 218.072 9.23996C218.579 8.58662 219.266 8.05329 220.132 7.63996C220.999 7.21329 221.986 6.89996 223.092 6.69995C224.212 6.48662 225.386 6.37996 226.612 6.37996C227.359 6.37996 228.119 6.42662 228.892 6.51995C229.679 6.59996 230.406 6.72662 231.072 6.89996C231.752 7.05996 232.299 7.27329 232.712 7.53995C233.126 7.79329 233.332 8.09996 233.332 8.45995C233.332 8.84662 233.239 9.15996 233.052 9.39996C232.866 9.63996 232.619 9.81329 232.312 9.91996C232.019 10.0266 231.692 10.08 231.332 10.08C230.759 10.08 230.099 10.0133 229.352 9.87996C228.619 9.74662 227.819 9.67996 226.952 9.67996C226.192 9.67996 225.486 9.75996 224.832 9.91996C224.179 10.0666 223.652 10.3066 223.252 10.64C222.866 10.96 222.672 11.3866 222.672 11.92C222.672 12.7066 223.099 13.3133 223.952 13.74C224.819 14.1666 226.086 14.5533 227.752 14.9C229.299 15.2066 230.579 15.6 231.592 16.08C232.619 16.5466 233.392 17.1466 233.912 17.88C234.432 18.6 234.692 19.5 234.692 20.58C234.692 21.6066 234.446 22.48 233.952 23.2C233.459 23.92 232.786 24.5066 231.932 24.96C231.079 25.4 230.099 25.7266 228.992 25.94C227.886 26.1533 226.726 26.26 225.512 26.26ZM259.689 26.64C257.729 26.64 256.029 26.3066 254.589 25.64C253.163 24.9733 252.056 23.9866 251.269 22.68C250.496 21.36 250.109 19.7333 250.109 17.8C250.109 15.9866 250.463 14.4533 251.169 13.2C251.876 11.9466 252.889 11 254.209 10.36C255.529 9.70662 257.109 9.37995 258.949 9.37995C259.963 9.37995 260.803 9.49329 261.469 9.71996C262.149 9.93329 262.703 10.16 263.129 10.4C263.436 10.5733 263.709 10.7266 263.949 10.86C264.203 10.9933 264.383 11.06 264.489 11.06C264.703 11.06 264.809 10.8666 264.809 10.48C264.809 10.1333 264.776 9.69329 264.709 9.15996C264.643 8.61329 264.563 8.01996 264.469 7.37996C264.389 6.73996 264.296 6.09995 264.189 5.45996C264.096 4.81996 264.016 4.22662 263.949 3.67996C263.896 3.13329 263.869 2.69329 263.869 2.35996C263.869 0.786622 264.636 -4.48227e-05 266.169 -4.48227e-05C266.716 -4.48227e-05 267.223 0.133288 267.689 0.399955C268.169 0.653289 268.556 1.04662 268.849 1.57996C269.049 2.04662 269.243 2.68662 269.429 3.49995C269.616 4.31329 269.789 5.21995 269.949 6.21995C270.123 7.21995 270.269 8.23329 270.389 9.25996C270.523 10.2866 270.623 11.2466 270.689 12.14C270.769 13.0333 270.809 13.7866 270.809 14.4C270.809 17.16 270.436 19.4466 269.689 21.26C268.956 23.0733 267.769 24.4266 266.129 25.32C264.503 26.2 262.356 26.64 259.689 26.64ZM259.829 23.62C261.056 23.62 262.089 23.3933 262.929 22.94C263.769 22.4866 264.403 21.84 264.829 21C265.269 20.1466 265.489 19.1333 265.489 17.96C265.489 16.8 265.276 15.8333 264.849 15.06C264.423 14.2733 263.823 13.68 263.049 13.28C262.276 12.88 261.343 12.68 260.249 12.68C259.063 12.68 258.029 12.8866 257.149 13.3C256.269 13.7133 255.589 14.3266 255.109 15.14C254.629 15.94 254.389 16.94 254.389 18.14C254.389 19.26 254.616 20.2333 255.069 21.06C255.523 21.8733 256.156 22.5066 256.969 22.96C257.783 23.4 258.736 23.62 259.829 23.62ZM285.542 26.96C283.302 26.96 281.362 26.62 279.722 25.94C278.082 25.26 276.816 24.2133 275.922 22.8C275.029 21.3733 274.582 19.56 274.582 17.36C274.582 15.5333 274.882 13.94 275.482 12.58C276.096 11.2066 276.936 10.06 278.002 9.13996C279.069 8.21996 280.302 7.53329 281.702 7.07995C283.102 6.61329 284.596 6.37996 286.182 6.37996C287.262 6.37996 288.282 6.49329 289.242 6.71996C290.216 6.94662 291.076 7.29995 291.822 7.77996C292.582 8.24662 293.176 8.84662 293.602 9.57996C294.029 10.3133 294.242 11.1866 294.242 12.2C294.242 13.28 294.016 14.16 293.562 14.84C293.109 15.5066 292.489 16.0333 291.702 16.42C290.916 16.7933 290.022 17.0733 289.022 17.26C288.036 17.4333 287.002 17.5666 285.922 17.66C285.376 17.7533 284.729 17.8333 283.982 17.9C283.236 17.9533 282.509 18 281.802 18.04C281.109 18.0666 280.569 18.08 280.182 18.08C279.782 18.08 279.509 18.1333 279.362 18.24C279.216 18.3466 279.142 18.54 279.142 18.82C279.142 19.1533 279.236 19.5466 279.422 20C279.609 20.44 279.876 20.8733 280.222 21.3C280.862 22.0866 281.602 22.6133 282.442 22.88C283.296 23.1333 284.342 23.26 285.582 23.26C286.662 23.26 287.649 23.1333 288.542 22.88C289.436 22.6133 290.236 22.3533 290.942 22.1C291.662 21.8333 292.309 21.7 292.882 21.7C293.402 21.7 293.809 21.8 294.102 22C294.409 22.1866 294.562 22.56 294.562 23.12C294.562 23.6266 294.329 24.1133 293.862 24.58C293.409 25.0466 292.776 25.4533 291.962 25.8C291.149 26.16 290.196 26.44 289.102 26.64C288.009 26.8533 286.822 26.96 285.542 26.96ZM283.962 15.84C285.042 15.84 286.049 15.74 286.982 15.54C287.916 15.3266 288.669 14.9733 289.242 14.48C289.829 13.9733 290.122 13.28 290.122 12.4C290.122 11.36 289.742 10.58 288.982 10.06C288.222 9.52662 287.156 9.25996 285.782 9.25996C284.969 9.25996 284.176 9.40662 283.402 9.69996C282.629 9.97996 281.942 10.3733 281.342 10.88C280.742 11.3866 280.262 11.96 279.902 12.6C279.542 13.24 279.362 13.9266 279.362 14.66C279.362 15.0333 279.509 15.3066 279.802 15.48C280.109 15.64 280.596 15.74 281.262 15.78C281.942 15.82 282.842 15.84 283.962 15.84ZM316.258 26.24C314.524 25.8666 313.338 24.9933 312.698 23.62C312.071 22.2466 311.758 20.42 311.758 18.14C311.758 17.4866 311.771 16.74 311.798 15.9C311.838 15.0466 311.891 14.16 311.958 13.24C312.024 12.32 312.098 11.42 312.178 10.54C312.258 9.65996 312.338 8.85329 312.418 8.11996C312.498 7.38662 312.571 6.79329 312.638 6.33995C312.904 4.56662 313.298 3.27996 313.818 2.47995C314.338 1.67996 315.044 1.27996 315.938 1.27996C316.511 1.27996 316.938 1.40662 317.218 1.65995C317.498 1.89995 317.684 2.24662 317.778 2.69995C317.871 3.15329 317.918 3.69329 317.918 4.31995C317.918 4.73329 317.904 5.21995 317.878 5.77995C317.851 6.32662 317.824 6.91329 317.798 7.53995C317.771 8.16662 317.744 8.82662 317.718 9.51996C317.691 10.2 317.664 10.88 317.638 11.56C317.611 12.24 317.591 12.9066 317.578 13.56C317.578 14.2 317.584 14.8066 317.598 15.38C317.624 16.5133 317.691 17.46 317.798 18.22C317.918 18.98 318.144 19.58 318.478 20.02C318.811 20.4466 319.298 20.76 319.938 20.96C320.591 21.1466 321.464 21.2466 322.558 21.26C323.504 21.3 324.398 21.34 325.238 21.38C326.091 21.4066 326.791 21.44 327.338 21.48C328.138 21.4266 328.791 21.4066 329.298 21.42C329.804 21.42 330.184 21.4666 330.438 21.56C330.651 21.6666 330.804 21.82 330.898 22.02C331.004 22.2066 331.058 22.4733 331.058 22.82C331.058 23.38 330.884 23.8533 330.538 24.24C330.191 24.6266 329.704 24.9533 329.078 25.22C328.464 25.4866 327.751 25.72 326.938 25.92C326.084 26.12 325.098 26.28 323.978 26.4C322.858 26.52 321.744 26.58 320.638 26.58C320.198 26.58 319.704 26.5666 319.158 26.54C318.624 26.5266 318.098 26.4933 317.578 26.44C317.071 26.3866 316.631 26.32 316.258 26.24ZM342.18 27.52C341.1 27.52 340.073 27.4133 339.1 27.2C338.14 26.9866 337.287 26.6466 336.54 26.18C335.793 25.7133 335.207 25.1066 334.78 24.36C334.353 23.6133 334.14 22.7 334.14 21.62C334.14 20.3933 334.44 19.3866 335.04 18.6C335.64 17.8133 336.453 17.2 337.48 16.76C338.52 16.3066 339.687 15.9933 340.98 15.82C342.273 15.6466 343.613 15.56 345 15.56C345.427 15.56 345.86 15.5733 346.3 15.6C346.74 15.6266 347.153 15.6533 347.54 15.68C347.94 15.7066 348.267 15.72 348.52 15.72C348.867 15.72 349.1 15.6666 349.22 15.56C349.34 15.44 349.4 15.24 349.4 14.96C349.4 14.44 349.333 13.98 349.2 13.58C349.08 13.18 348.9 12.8266 348.66 12.52C348.42 12.2133 348.133 11.9533 347.8 11.74C347.267 11.38 346.62 11.1266 345.86 10.98C345.113 10.82 344.307 10.74 343.44 10.74C342.413 10.74 341.5 10.8466 340.7 11.06C339.913 11.2733 339.213 11.4933 338.6 11.72C337.987 11.9466 337.427 12.06 336.92 12.06C336.227 12.06 335.693 11.9466 335.32 11.72C334.947 11.4933 334.76 11.1266 334.76 10.62C334.76 10.1 334.98 9.61995 335.42 9.17996C335.86 8.73996 336.467 8.35329 337.24 8.01996C338.027 7.68662 338.933 7.42662 339.96 7.23995C341 7.05329 342.107 6.95995 343.28 6.95995C345.64 6.95995 347.613 7.25996 349.2 7.85996C350.8 8.44662 352 9.40662 352.8 10.74C353.6 12.06 354 13.84 354 16.08C354 16.7466 353.967 17.3266 353.9 17.82C353.833 18.3133 353.747 18.7466 353.64 19.12C353.547 19.48 353.467 19.7933 353.4 20.06C353.333 20.3266 353.3 20.5733 353.3 20.8C353.3 21.12 353.4 21.4266 353.6 21.72C353.813 22 354.06 22.28 354.34 22.56C354.633 22.84 354.887 23.14 355.1 23.46C355.313 23.7666 355.42 24.1133 355.42 24.5C355.42 25.0733 355.233 25.4866 354.86 25.74C354.487 25.9933 354.073 26.12 353.62 26.12C353.207 26.12 352.86 25.98 352.58 25.7C352.313 25.4333 352.067 25.1666 351.84 24.9C351.627 24.6333 351.36 24.5 351.04 24.5C350.853 24.5 350.647 24.5533 350.42 24.66C350.207 24.7666 349.94 24.9333 349.62 25.16C349.22 25.4533 348.707 25.78 348.08 26.14C347.467 26.5133 346.68 26.8333 345.72 27.1C344.76 27.38 343.58 27.52 342.18 27.52ZM342.72 24.46C343.547 24.46 344.347 24.3333 345.12 24.08C345.893 23.8133 346.587 23.4533 347.2 23C347.813 22.5333 348.3 21.9933 348.66 21.38C349.02 20.7533 349.2 20.08 349.2 19.36C349.2 18.9066 349.047 18.58 348.74 18.38C348.447 18.18 347.96 18.0533 347.28 18C346.6 17.9466 345.7 17.92 344.58 17.92C343.473 17.92 342.447 18.0333 341.5 18.26C340.553 18.4733 339.793 18.84 339.22 19.36C338.647 19.8666 338.36 20.56 338.36 21.44C338.36 22.12 338.533 22.68 338.88 23.12C339.227 23.56 339.727 23.8933 340.38 24.12C341.033 24.3466 341.813 24.46 342.72 24.46ZM375.387 26.54C374.627 26.54 374.087 26.3066 373.767 25.84C373.447 25.3866 373.18 24.7266 372.967 23.86C372.86 23.3133 372.767 22.7133 372.687 22.06C372.607 21.4066 372.547 20.7266 372.507 20.02C372.467 19.3 372.434 18.5666 372.407 17.82C372.394 17.06 372.387 16.3 372.387 15.54C372.414 14.58 372.454 13.62 372.507 12.66C372.56 11.7 372.634 10.78 372.727 9.89996C372.82 9.00662 372.927 8.21329 373.047 7.51995C373.18 6.81329 373.32 6.25329 373.467 5.83996C373.814 4.85329 374.274 4.06662 374.847 3.47996C375.42 2.89329 376.08 2.47329 376.827 2.21995C377.574 1.95329 378.354 1.81995 379.167 1.81995C380.1 1.81995 380.907 2.02662 381.587 2.43995C382.28 2.85329 382.814 3.45329 383.187 4.23996C383.4 4.67996 383.614 5.22662 383.827 5.87995C384.04 6.53329 384.24 7.22662 384.427 7.95996C384.627 8.69329 384.807 9.42662 384.967 10.16C385.14 10.88 385.287 11.5466 385.407 12.16C385.554 12.92 385.72 13.5933 385.907 14.18C386.107 14.7533 386.4 15.04 386.787 15.04C387.174 15.04 387.46 14.8 387.647 14.32C387.847 13.84 388 13.3066 388.107 12.72C388.214 12.04 388.334 11.3133 388.467 10.54C388.6 9.76662 388.747 8.99995 388.907 8.23996C389.08 7.46662 389.26 6.73329 389.447 6.03995C389.647 5.34662 389.847 4.73329 390.047 4.19996C390.407 3.43996 390.914 2.85329 391.567 2.43995C392.234 2.02662 393.087 1.81995 394.127 1.81995C394.9 1.81995 395.607 1.95995 396.247 2.23995C396.887 2.50662 397.46 2.89995 397.967 3.41996C398.474 3.93996 398.9 4.57996 399.247 5.33995C399.554 5.96662 399.814 6.79996 400.027 7.83996C400.254 8.86662 400.427 10.0333 400.547 11.34C400.667 12.6333 400.74 13.9866 400.767 15.4C400.767 16.1066 400.767 16.8133 400.767 17.52C400.767 18.2266 400.754 18.9333 400.727 19.64C400.7 20.3333 400.66 21.02 400.607 21.7C400.567 22.3666 400.5 23.02 400.407 23.66C400.22 24.4333 399.92 25 399.507 25.36C399.107 25.7066 398.527 25.88 397.767 25.88C397.3 25.88 396.927 25.76 396.647 25.52C396.38 25.28 396.207 24.94 396.127 24.5C396.1 24.0466 396.074 23.5733 396.047 23.08C396.02 22.5733 395.987 22.0533 395.947 21.52C395.92 20.9733 395.894 20.4266 395.867 19.88C395.84 19.3333 395.814 18.7933 395.787 18.26C395.747 17.2066 395.694 16.1933 395.627 15.22C395.56 14.2333 395.48 13.3533 395.387 12.58C395.307 11.7933 395.207 11.2 395.087 10.8C394.86 10.0533 394.6 9.48662 394.307 9.09995C394.027 8.71329 393.607 8.51996 393.047 8.51996C392.58 8.51996 392.167 8.71329 391.807 9.09995C391.46 9.47329 391.2 10.0333 391.027 10.78C390.96 11.1 390.88 11.5066 390.787 12C390.694 12.48 390.594 13.0133 390.487 13.6C390.394 14.1733 390.294 14.7733 390.187 15.4C390.094 16.0133 390 16.62 389.907 17.22C389.814 17.8066 389.727 18.3533 389.647 18.86C389.447 19.9 389.114 20.6866 388.647 21.22C388.194 21.74 387.554 22 386.727 22C385.74 22 385.034 21.6533 384.607 20.96C384.18 20.2666 383.794 19.3333 383.447 18.16C383.367 17.7733 383.267 17.3 383.147 16.74C383.027 16.18 382.9 15.5866 382.767 14.96C382.634 14.32 382.5 13.6866 382.367 13.06C382.234 12.4333 382.107 11.8666 381.987 11.36C381.88 10.84 381.78 10.42 381.687 10.1C381.514 9.40662 381.274 8.89996 380.967 8.57996C380.674 8.25996 380.32 8.09996 379.907 8.09996C379.32 8.09996 378.894 8.31996 378.627 8.75996C378.374 9.19996 378.167 9.89996 378.007 10.86C377.954 11.18 377.907 11.5933 377.867 12.1C377.827 12.6066 377.794 13.18 377.767 13.82C377.74 14.4466 377.714 15.12 377.687 15.84C377.674 16.56 377.667 17.2933 377.667 18.04C377.667 18.8133 377.66 19.5466 377.647 20.24C377.647 20.9333 377.634 21.58 377.607 22.18C377.58 22.78 377.547 23.3133 377.507 23.78C377.48 24.2333 377.44 24.6066 377.387 24.9C377.24 25.3933 377.007 25.7866 376.687 26.08C376.38 26.3866 375.947 26.54 375.387 26.54ZM412.555 27.52C411.475 27.52 410.448 27.4133 409.475 27.2C408.515 26.9866 407.662 26.6466 406.915 26.18C406.168 25.7133 405.582 25.1066 405.155 24.36C404.728 23.6133 404.515 22.7 404.515 21.62C404.515 20.3933 404.815 19.3866 405.415 18.6C406.015 17.8133 406.828 17.2 407.855 16.76C408.895 16.3066 410.062 15.9933 411.355 15.82C412.648 15.6466 413.988 15.56 415.375 15.56C415.802 15.56 416.235 15.5733 416.675 15.6C417.115 15.6266 417.528 15.6533 417.915 15.68C418.315 15.7066 418.642 15.72 418.895 15.72C419.242 15.72 419.475 15.6666 419.595 15.56C419.715 15.44 419.775 15.24 419.775 14.96C419.775 14.44 419.708 13.98 419.575 13.58C419.455 13.18 419.275 12.8266 419.035 12.52C418.795 12.2133 418.508 11.9533 418.175 11.74C417.642 11.38 416.995 11.1266 416.235 10.98C415.488 10.82 414.682 10.74 413.815 10.74C412.788 10.74 411.875 10.8466 411.075 11.06C410.288 11.2733 409.588 11.4933 408.975 11.72C408.362 11.9466 407.802 12.06 407.295 12.06C406.602 12.06 406.068 11.9466 405.695 11.72C405.322 11.4933 405.135 11.1266 405.135 10.62C405.135 10.1 405.355 9.61995 405.795 9.17996C406.235 8.73996 406.842 8.35329 407.615 8.01996C408.402 7.68662 409.308 7.42662 410.335 7.23995C411.375 7.05329 412.482 6.95995 413.655 6.95995C416.015 6.95995 417.988 7.25996 419.575 7.85996C421.175 8.44662 422.375 9.40662 423.175 10.74C423.975 12.06 424.375 13.84 424.375 16.08C424.375 16.7466 424.342 17.3266 424.275 17.82C424.208 18.3133 424.122 18.7466 424.015 19.12C423.922 19.48 423.842 19.7933 423.775 20.06C423.708 20.3266 423.675 20.5733 423.675 20.8C423.675 21.12 423.775 21.4266 423.975 21.72C424.188 22 424.435 22.28 424.715 22.56C425.008 22.84 425.262 23.14 425.475 23.46C425.688 23.7666 425.795 24.1133 425.795 24.5C425.795 25.0733 425.608 25.4866 425.235 25.74C424.862 25.9933 424.448 26.12 423.995 26.12C423.582 26.12 423.235 25.98 422.955 25.7C422.688 25.4333 422.442 25.1666 422.215 24.9C422.002 24.6333 421.735 24.5 421.415 24.5C421.228 24.5 421.022 24.5533 420.795 24.66C420.582 24.7666 420.315 24.9333 419.995 25.16C419.595 25.4533 419.082 25.78 418.455 26.14C417.842 26.5133 417.055 26.8333 416.095 27.1C415.135 27.38 413.955 27.52 412.555 27.52ZM413.095 24.46C413.922 24.46 414.722 24.3333 415.495 24.08C416.268 23.8133 416.962 23.4533 417.575 23C418.188 22.5333 418.675 21.9933 419.035 21.38C419.395 20.7533 419.575 20.08 419.575 19.36C419.575 18.9066 419.422 18.58 419.115 18.38C418.822 18.18 418.335 18.0533 417.655 18C416.975 17.9466 416.075 17.92 414.955 17.92C413.848 17.92 412.822 18.0333 411.875 18.26C410.928 18.4733 410.168 18.84 409.595 19.36C409.022 19.8666 408.735 20.56 408.735 21.44C408.735 22.12 408.908 22.68 409.255 23.12C409.602 23.56 410.102 23.8933 410.755 24.12C411.408 24.3466 412.188 24.46 413.095 24.46ZM433.294 26.1C432.907 26.1 432.561 26.02 432.254 25.86C431.947 25.7133 431.667 25.5066 431.414 25.24C431.174 24.9733 430.954 24.66 430.754 24.3C430.514 23.7933 430.294 23.2066 430.094 22.54C429.894 21.8733 429.721 21.18 429.574 20.46C429.441 19.7266 429.341 19 429.274 18.28C429.207 17.56 429.174 16.8933 429.174 16.28C429.174 14.1066 429.581 12.2666 430.394 10.76C431.207 9.25329 432.381 8.10662 433.914 7.31996C435.447 6.53329 437.287 6.13995 439.434 6.13995C440.341 6.13995 441.207 6.20662 442.034 6.33995C442.874 6.47329 443.621 6.67329 444.274 6.93996C444.927 7.19329 445.441 7.51329 445.814 7.89995C446.201 8.27329 446.394 8.70662 446.394 9.19995C446.394 9.59996 446.307 9.92662 446.134 10.18C445.961 10.42 445.734 10.5933 445.454 10.7C445.187 10.8066 444.907 10.86 444.614 10.86C444.001 10.86 443.327 10.76 442.594 10.56C441.874 10.3466 440.934 10.24 439.774 10.24C438.027 10.24 436.714 10.78 435.834 11.86C434.967 12.94 434.534 14.4066 434.534 16.26C434.534 16.9266 434.567 17.5733 434.634 18.2C434.701 18.8133 434.781 19.4066 434.874 19.98C434.967 20.54 435.061 21.06 435.154 21.54C435.247 22.02 435.321 22.4466 435.374 22.82C435.441 23.1933 435.474 23.5 435.474 23.74C435.474 24.5666 435.287 25.1666 434.914 25.54C434.554 25.9133 434.014 26.1 433.294 26.1ZM452.714 26.12C452.088 26.12 451.588 25.9933 451.214 25.74C450.854 25.5 450.601 25.1133 450.454 24.58C450.308 24.0333 450.234 23.3466 450.234 22.52C450.234 22.0666 450.241 21.52 450.254 20.88C450.281 20.24 450.314 19.5466 450.354 18.8C450.394 18.04 450.441 17.2733 450.494 16.5C450.548 15.7266 450.608 14.9866 450.674 14.28C450.741 13.56 450.808 12.9133 450.874 12.34C450.941 11.7666 451.008 11.3066 451.074 10.96C451.341 10.12 451.734 9.49329 452.254 9.07996C452.788 8.66662 453.454 8.45995 454.254 8.45995C455.014 8.45995 455.568 8.74662 455.914 9.31996C456.261 9.89329 456.434 10.72 456.434 11.8C456.434 12.2 456.421 12.74 456.394 13.42C456.368 14.1 456.328 14.8533 456.274 15.68C456.221 16.5066 456.161 17.3533 456.094 18.22C456.041 19.0866 455.968 19.92 455.874 20.72C455.794 21.5066 455.714 22.2066 455.634 22.82C455.554 23.42 455.461 23.8733 455.354 24.18C455.088 24.9 454.734 25.4 454.294 25.68C453.868 25.9733 453.341 26.12 452.714 26.12ZM454.074 5.35996C452.821 5.35996 451.961 5.14662 451.494 4.71995C451.028 4.29329 450.794 3.81329 450.794 3.27996C450.794 2.59996 451.041 2.03329 451.534 1.57996C452.028 1.11329 452.634 0.759956 453.354 0.519956C454.074 0.279956 454.794 0.159956 455.514 0.159956C456.034 0.159956 456.514 0.246622 456.954 0.419956C457.394 0.593289 457.741 0.859956 457.994 1.21995C458.261 1.57995 458.394 2.05329 458.394 2.63995C458.394 3.27995 458.194 3.79995 457.794 4.19996C457.394 4.59996 456.868 4.89329 456.214 5.07995C455.561 5.26662 454.848 5.35996 454.074 5.35996ZM464.731 34.96C464.357 34.96 464.024 34.8666 463.731 34.68C463.451 34.4933 463.204 34.1866 462.991 33.76C462.777 33.3466 462.597 32.7933 462.451 32.1C462.357 31.5266 462.271 30.9066 462.191 30.24C462.111 29.5866 462.037 28.9133 461.971 28.22C461.917 27.54 461.871 26.84 461.831 26.12C461.791 25.4133 461.757 24.72 461.731 24.04C461.717 23.36 461.711 22.7 461.711 22.06C461.711 19.2866 462.104 16.8333 462.891 14.7C463.691 12.5533 464.931 10.8733 466.611 9.65995C468.291 8.43329 470.464 7.81995 473.131 7.81995C474.824 7.81995 476.311 8.05995 477.591 8.53995C478.884 9.00662 479.964 9.67329 480.831 10.54C481.697 11.3933 482.344 12.4133 482.771 13.6C483.211 14.7733 483.431 16.0733 483.431 17.5C483.431 18.94 483.224 20.2333 482.811 21.38C482.411 22.5133 481.771 23.48 480.891 24.28C480.011 25.08 478.871 25.6866 477.471 26.1C476.071 26.5133 474.364 26.72 472.351 26.72C471.417 26.72 470.644 26.6466 470.031 26.5C469.417 26.3666 468.931 26.2266 468.571 26.08C468.211 25.9466 467.944 25.88 467.771 25.88C467.517 25.88 467.324 25.96 467.191 26.12C467.071 26.28 466.991 26.6266 466.951 27.16C466.911 27.4266 466.884 27.8133 466.871 28.32C466.857 28.84 466.837 29.3933 466.811 29.98C466.797 30.58 466.784 31.1333 466.771 31.64C466.771 32.1466 466.764 32.5333 466.751 32.8C466.697 33.6133 466.497 34.1733 466.151 34.48C465.817 34.8 465.344 34.96 464.731 34.96ZM471.631 23.12C473.511 23.12 474.997 22.88 476.091 22.4C477.184 21.92 477.964 21.2266 478.431 20.32C478.911 19.4 479.151 18.3066 479.151 17.04C479.151 16.0533 478.984 15.1266 478.651 14.26C478.317 13.38 477.724 12.6666 476.871 12.12C476.017 11.5733 474.817 11.3 473.271 11.3C472.177 11.3 471.237 11.4866 470.451 11.86C469.664 12.22 469.024 12.74 468.531 13.42C468.051 14.1 467.697 14.9 467.471 15.82C467.244 16.74 467.131 17.7666 467.131 18.9C467.131 20.0333 467.264 20.9066 467.531 21.52C467.797 22.12 468.257 22.54 468.911 22.78C469.577 23.0066 470.484 23.12 471.631 23.12ZM498.522 26.64C496.976 26.64 495.482 26.4666 494.042 26.12C492.616 25.7733 491.336 25.22 490.202 24.46C489.082 23.7 488.196 22.7133 487.542 21.5C486.889 20.2733 486.562 18.78 486.562 17.02C486.562 15.0866 486.876 13.4 487.502 11.96C488.142 10.5066 489.022 9.29996 490.142 8.33996C491.262 7.36662 492.556 6.63995 494.022 6.15995C495.502 5.66662 497.082 5.41996 498.762 5.41996C500.282 5.41996 501.769 5.61329 503.222 5.99996C504.676 6.38662 505.982 6.99329 507.142 7.81995C508.302 8.64662 509.222 9.71996 509.902 11.04C510.596 12.3466 510.942 13.9266 510.942 15.78C510.942 17.18 510.656 18.5266 510.082 19.82C509.522 21.1133 508.702 22.2733 507.622 23.3C506.556 24.3133 505.256 25.12 503.722 25.72C502.202 26.3333 500.469 26.64 498.522 26.64ZM498.342 22.22C499.702 22.22 500.856 22.0133 501.802 21.6C502.749 21.1733 503.516 20.62 504.102 19.94C504.702 19.2466 505.136 18.4933 505.402 17.68C505.682 16.8666 505.822 16.06 505.822 15.26C505.822 14.14 505.602 13.1933 505.162 12.42C504.736 11.6333 504.162 11 503.442 10.52C502.736 10.04 501.942 9.69329 501.062 9.47995C500.182 9.25329 499.282 9.13996 498.362 9.13996C497.162 9.13996 496.029 9.39996 494.962 9.91996C493.896 10.4266 493.029 11.2 492.362 12.24C491.709 13.2666 491.382 14.5666 491.382 16.14C491.382 17.42 491.642 18.52 492.162 19.44C492.696 20.3466 493.482 21.04 494.522 21.52C495.562 21.9866 496.836 22.22 498.342 22.22ZM522.809 26.26C521.983 26.26 521.123 26.22 520.229 26.14C519.336 26.0733 518.496 25.9666 517.709 25.82C516.923 25.6733 516.256 25.4933 515.709 25.28C515.216 25.08 514.809 24.8533 514.489 24.6C514.183 24.3466 514.029 23.9866 514.029 23.52C514.029 23 514.183 22.6066 514.489 22.34C514.796 22.06 515.243 21.92 515.829 21.92C516.243 21.92 516.756 21.9933 517.369 22.14C517.996 22.2733 518.703 22.42 519.489 22.58C520.276 22.7266 521.109 22.8 521.989 22.8C522.856 22.8 523.683 22.7266 524.469 22.58C525.256 22.42 525.896 22.16 526.389 21.8C526.883 21.44 527.129 20.9466 527.129 20.32C527.129 19.7466 526.969 19.28 526.649 18.92C526.343 18.56 525.803 18.2466 525.029 17.98C524.256 17.7133 523.169 17.44 521.769 17.16C520.236 16.8533 518.936 16.4533 517.869 15.96C516.816 15.4666 516.009 14.86 515.449 14.14C514.903 13.4066 514.629 12.5333 514.629 11.52C514.629 10.64 514.876 9.87996 515.369 9.23996C515.876 8.58662 516.563 8.05329 517.429 7.63996C518.296 7.21329 519.283 6.89996 520.389 6.69995C521.509 6.48662 522.683 6.37996 523.909 6.37996C524.656 6.37996 525.416 6.42662 526.189 6.51995C526.976 6.59996 527.703 6.72662 528.369 6.89996C529.049 7.05996 529.596 7.27329 530.009 7.53995C530.423 7.79329 530.629 8.09996 530.629 8.45995C530.629 8.84662 530.536 9.15996 530.349 9.39996C530.163 9.63996 529.916 9.81329 529.609 9.91996C529.316 10.0266 528.989 10.08 528.629 10.08C528.056 10.08 527.396 10.0133 526.649 9.87996C525.916 9.74662 525.116 9.67996 524.249 9.67996C523.489 9.67996 522.783 9.75996 522.129 9.91996C521.476 10.0666 520.949 10.3066 520.549 10.64C520.163 10.96 519.969 11.3866 519.969 11.92C519.969 12.7066 520.396 13.3133 521.249 13.74C522.116 14.1666 523.383 14.5533 525.049 14.9C526.596 15.2066 527.876 15.6 528.889 16.08C529.916 16.5466 530.689 17.1466 531.209 17.88C531.729 18.6 531.989 19.5 531.989 20.58C531.989 21.6066 531.743 22.48 531.249 23.2C530.756 23.92 530.083 24.5066 529.229 24.96C528.376 25.4 527.396 25.7266 526.289 25.94C525.183 26.1533 524.023 26.26 522.809 26.26ZM543.07 27.52C541.99 27.52 540.964 27.4133 539.99 27.2C539.03 26.9866 538.177 26.6466 537.43 26.18C536.684 25.7133 536.097 25.1066 535.67 24.36C535.244 23.6133 535.03 22.7 535.03 21.62C535.03 20.3933 535.33 19.3866 535.93 18.6C536.53 17.8133 537.344 17.2 538.37 16.76C539.41 16.3066 540.577 15.9933 541.87 15.82C543.164 15.6466 544.504 15.56 545.89 15.56C546.317 15.56 546.75 15.5733 547.19 15.6C547.63 15.6266 548.044 15.6533 548.43 15.68C548.83 15.7066 549.157 15.72 549.41 15.72C549.757 15.72 549.99 15.6666 550.11 15.56C550.23 15.44 550.29 15.24 550.29 14.96C550.29 14.44 550.224 13.98 550.09 13.58C549.97 13.18 549.79 12.8266 549.55 12.52C549.31 12.2133 549.024 11.9533 548.69 11.74C548.157 11.38 547.51 11.1266 546.75 10.98C546.004 10.82 545.197 10.74 544.33 10.74C543.304 10.74 542.39 10.8466 541.59 11.06C540.804 11.2733 540.104 11.4933 539.49 11.72C538.877 11.9466 538.317 12.06 537.81 12.06C537.117 12.06 536.584 11.9466 536.21 11.72C535.837 11.4933 535.65 11.1266 535.65 10.62C535.65 10.1 535.87 9.61995 536.31 9.17996C536.75 8.73996 537.357 8.35329 538.13 8.01996C538.917 7.68662 539.824 7.42662 540.85 7.23995C541.89 7.05329 542.997 6.95995 544.17 6.95995C546.53 6.95995 548.504 7.25996 550.09 7.85996C551.69 8.44662 552.89 9.40662 553.69 10.74C554.49 12.06 554.89 13.84 554.89 16.08C554.89 16.7466 554.857 17.3266 554.79 17.82C554.724 18.3133 554.637 18.7466 554.53 19.12C554.437 19.48 554.357 19.7933 554.29 20.06C554.224 20.3266 554.19 20.5733 554.19 20.8C554.19 21.12 554.29 21.4266 554.49 21.72C554.704 22 554.95 22.28 555.23 22.56C555.524 22.84 555.777 23.14 555.99 23.46C556.204 23.7666 556.31 24.1133 556.31 24.5C556.31 25.0733 556.124 25.4866 555.75 25.74C555.377 25.9933 554.964 26.12 554.51 26.12C554.097 26.12 553.75 25.98 553.47 25.7C553.204 25.4333 552.957 25.1666 552.73 24.9C552.517 24.6333 552.25 24.5 551.93 24.5C551.744 24.5 551.537 24.5533 551.31 24.66C551.097 24.7666 550.83 24.9333 550.51 25.16C550.11 25.4533 549.597 25.78 548.97 26.14C548.357 26.5133 547.57 26.8333 546.61 27.1C545.65 27.38 544.47 27.52 543.07 27.52ZM543.61 24.46C544.437 24.46 545.237 24.3333 546.01 24.08C546.784 23.8133 547.477 23.4533 548.09 23C548.704 22.5333 549.19 21.9933 549.55 21.38C549.91 20.7533 550.09 20.08 550.09 19.36C550.09 18.9066 549.937 18.58 549.63 18.38C549.337 18.18 548.85 18.0533 548.17 18C547.49 17.9466 546.59 17.92 545.47 17.92C544.364 17.92 543.337 18.0333 542.39 18.26C541.444 18.4733 540.684 18.84 540.11 19.36C539.537 19.8666 539.25 20.56 539.25 21.44C539.25 22.12 539.424 22.68 539.77 23.12C540.117 23.56 540.617 23.8933 541.27 24.12C541.924 24.3466 542.704 24.46 543.61 24.46Z" fill="#6F8F72"/>
</svg>
