<svg width="241" height="67" viewBox="0 0 241 67" fill="none" xmlns="http://www.w3.org/2000/svg">
<path d="M5.25613 21.528C3.86946 21.2293 2.92013 20.5307 2.40813 19.432C1.90679 18.3333 1.65613 16.872 1.65613 15.048C1.65613 14.5253 1.66679 13.928 1.68813 13.256C1.72013 12.5733 1.76279 11.864 1.81613 11.128C1.86946 10.392 1.92813 9.672 1.99213 8.968C2.05613 8.264 2.12013 7.61867 2.18413 7.032C2.24813 6.44533 2.30679 5.97067 2.36013 5.608C2.57346 4.18933 2.88813 3.16 3.30413 2.52C3.72013 1.88 4.28546 1.56 5.00013 1.56C5.45879 1.56 5.80013 1.66133 6.02413 1.864C6.24813 2.056 6.39746 2.33333 6.47213 2.696C6.54679 3.05867 6.58413 3.49067 6.58413 3.992C6.58413 4.32267 6.57346 4.712 6.55213 5.16C6.53079 5.59733 6.50946 6.06667 6.48813 6.568C6.46679 7.06933 6.44546 7.59733 6.42413 8.152C6.40279 8.696 6.38146 9.24 6.36013 9.784C6.33879 10.328 6.32279 10.8613 6.31213 11.384C6.31213 11.896 6.31746 12.3813 6.32813 12.84C6.34946 13.7467 6.40279 14.504 6.48813 15.112C6.58413 15.72 6.76546 16.2 7.03213 16.552C7.29879 16.8933 7.68813 17.144 8.20013 17.304C8.72279 17.4533 9.42146 17.5333 10.2961 17.544C11.0535 17.576 11.7681 17.608 12.4401 17.64C13.1228 17.6613 13.6828 17.688 14.1201 17.72C14.7601 17.6773 15.2828 17.6613 15.6881 17.672C16.0935 17.672 16.3975 17.7093 16.6001 17.784C16.7708 17.8693 16.8935 17.992 16.9681 18.152C17.0535 18.3013 17.0961 18.5147 17.0961 18.792C17.0961 19.24 16.9575 19.6187 16.6801 19.928C16.4028 20.2373 16.0135 20.4987 15.5121 20.712C15.0215 20.9253 14.4508 21.112 13.8001 21.272C13.1175 21.432 12.3281 21.56 11.4321 21.656C10.5361 21.752 9.64546 21.8 8.76013 21.8C8.40813 21.8 8.01346 21.7893 7.57613 21.768C7.14946 21.7573 6.72813 21.7307 6.31213 21.688C5.90679 21.6453 5.55479 21.592 5.25613 21.528ZM26.1439 22.552C25.2799 22.552 24.4585 22.4667 23.6799 22.296C22.9119 22.1253 22.2292 21.8533 21.6319 21.48C21.0345 21.1067 20.5652 20.6213 20.2239 20.024C19.8825 19.4267 19.7119 18.696 19.7119 17.832C19.7119 16.8507 19.9519 16.0453 20.4319 15.416C20.9119 14.7867 21.5625 14.296 22.3839 13.944C23.2159 13.5813 24.1492 13.3307 25.1839 13.192C26.2185 13.0533 27.2905 12.984 28.3999 12.984C28.7412 12.984 29.0879 12.9947 29.4399 13.016C29.7919 13.0373 30.1225 13.0587 30.4319 13.08C30.7519 13.1013 31.0132 13.112 31.2159 13.112C31.4932 13.112 31.6799 13.0693 31.7759 12.984C31.8719 12.888 31.9199 12.728 31.9199 12.504C31.9199 12.088 31.8665 11.72 31.7599 11.4C31.6639 11.08 31.5199 10.7973 31.3279 10.552C31.1359 10.3067 30.9065 10.0987 30.6399 9.928C30.2132 9.64 29.6959 9.43733 29.0879 9.32C28.4905 9.192 27.8452 9.128 27.1519 9.128C26.3305 9.128 25.5999 9.21333 24.9599 9.384C24.3305 9.55467 23.7705 9.73067 23.2799 9.912C22.7892 10.0933 22.3412 10.184 21.9359 10.184C21.3812 10.184 20.9545 10.0933 20.6559 9.912C20.3572 9.73067 20.2079 9.43733 20.2079 9.032C20.2079 8.616 20.3839 8.232 20.7359 7.88C21.0879 7.528 21.5732 7.21867 22.1919 6.952C22.8212 6.68533 23.5465 6.47733 24.3679 6.328C25.1999 6.17867 26.0852 6.104 27.0239 6.104C28.9119 6.104 30.4905 6.344 31.7599 6.824C33.0399 7.29333 33.9999 8.06133 34.6399 9.128C35.2799 10.184 35.5999 11.608 35.5999 13.4C35.5999 13.9333 35.5732 14.3973 35.5199 14.792C35.4665 15.1867 35.3972 15.5333 35.3119 15.832C35.2372 16.12 35.1732 16.3707 35.1199 16.584C35.0665 16.7973 35.0399 16.9947 35.0399 17.176C35.0399 17.432 35.1199 17.6773 35.2799 17.912C35.4505 18.136 35.6479 18.36 35.8719 18.584C36.1065 18.808 36.3092 19.048 36.4799 19.304C36.6505 19.5493 36.7359 19.8267 36.7359 20.136C36.7359 20.5947 36.5865 20.9253 36.2879 21.128C35.9892 21.3307 35.6585 21.432 35.2959 21.432C34.9652 21.432 34.6879 21.32 34.4639 21.096C34.2505 20.8827 34.0532 20.6693 33.8719 20.456C33.7012 20.2427 33.4879 20.136 33.2319 20.136C33.0825 20.136 32.9172 20.1787 32.7359 20.264C32.5652 20.3493 32.3519 20.4827 32.0959 20.664C31.7759 20.8987 31.3652 21.16 30.8639 21.448C30.3732 21.7467 29.7439 22.0027 28.9759 22.216C28.2079 22.44 27.2639 22.552 26.1439 22.552ZM26.5759 20.104C27.2372 20.104 27.8772 20.0027 28.4959 19.8C29.1145 19.5867 29.6692 19.2987 30.1599 18.936C30.6505 18.5627 31.0399 18.1307 31.3279 17.64C31.6159 17.1387 31.7599 16.6 31.7599 16.024C31.7599 15.6613 31.6372 15.4 31.3919 15.24C31.1572 15.08 30.7679 14.9787 30.2239 14.936C29.6799 14.8933 28.9599 14.872 28.0639 14.872C27.1785 14.872 26.3572 14.9627 25.5999 15.144C24.8425 15.3147 24.2345 15.608 23.7759 16.024C23.3172 16.4293 23.0879 16.984 23.0879 17.688C23.0879 18.232 23.2265 18.68 23.5039 19.032C23.7812 19.384 24.1812 19.6507 24.7039 19.832C25.2265 20.0133 25.8505 20.104 26.5759 20.104ZM46.1911 21.544C45.5298 21.544 44.8418 21.512 44.1271 21.448C43.4125 21.3947 42.7405 21.3093 42.1111 21.192C41.4818 21.0747 40.9485 20.9307 40.5111 20.76C40.1165 20.6 39.7911 20.4187 39.5351 20.216C39.2898 20.0133 39.1671 19.7253 39.1671 19.352C39.1671 18.936 39.2898 18.6213 39.5351 18.408C39.7805 18.184 40.1378 18.072 40.6071 18.072C40.9378 18.072 41.3485 18.1307 41.8391 18.248C42.3405 18.3547 42.9058 18.472 43.5351 18.6C44.1645 18.7173 44.8311 18.776 45.5351 18.776C46.2285 18.776 46.8898 18.7173 47.5191 18.6C48.1485 18.472 48.6605 18.264 49.0551 17.976C49.4498 17.688 49.6471 17.2933 49.6471 16.792C49.6471 16.3333 49.5191 15.96 49.2631 15.672C49.0178 15.384 48.5858 15.1333 47.9671 14.92C47.3485 14.7067 46.4791 14.488 45.3591 14.264C44.1325 14.0187 43.0925 13.6987 42.2391 13.304C41.3965 12.9093 40.7511 12.424 40.3031 11.848C39.8658 11.2613 39.6471 10.5627 39.6471 9.752C39.6471 9.048 39.8445 8.44 40.2391 7.928C40.6445 7.40533 41.1938 6.97867 41.8871 6.648C42.5805 6.30667 43.3698 6.056 44.2551 5.896C45.1511 5.72533 46.0898 5.64 47.0711 5.64C47.6685 5.64 48.2765 5.67733 48.8951 5.752C49.5245 5.816 50.1058 5.91733 50.6391 6.056C51.1831 6.184 51.6205 6.35467 51.9511 6.568C52.2818 6.77067 52.4471 7.016 52.4471 7.304C52.4471 7.61333 52.3725 7.864 52.2231 8.056C52.0738 8.248 51.8765 8.38667 51.6311 8.472C51.3965 8.55733 51.1351 8.6 50.8471 8.6C50.3885 8.6 49.8605 8.54667 49.2631 8.44C48.6765 8.33333 48.0365 8.28 47.3431 8.28C46.7351 8.28 46.1698 8.344 45.6471 8.472C45.1245 8.58933 44.7031 8.78133 44.3831 9.048C44.0738 9.304 43.9191 9.64533 43.9191 10.072C43.9191 10.7013 44.2605 11.1867 44.9431 11.528C45.6365 11.8693 46.6498 12.1787 47.9831 12.456C49.2205 12.7013 50.2445 13.016 51.0551 13.4C51.8765 13.7733 52.4951 14.2533 52.9111 14.84C53.3271 15.416 53.5351 16.136 53.5351 17C53.5351 17.8213 53.3378 18.52 52.9431 19.096C52.5485 19.672 52.0098 20.1413 51.3271 20.504C50.6445 20.856 49.8605 21.1173 48.9751 21.288C48.0898 21.4587 47.1618 21.544 46.1911 21.544ZM70.0726 21.416C69.7633 21.416 69.486 21.352 69.2406 21.224C68.9953 21.1067 68.7713 20.9413 68.5686 20.728C68.3766 20.5147 68.2006 20.264 68.0406 19.976C67.8486 19.5707 67.6726 19.1013 67.5126 18.568C67.3526 18.0347 67.214 17.48 67.0966 16.904C66.99 16.3173 66.91 15.736 66.8566 15.16C66.8033 14.584 66.7766 14.0507 66.7766 13.56C66.7766 11.8213 67.102 10.3493 67.7526 9.144C68.4033 7.93867 69.342 7.02133 70.5686 6.392C71.7953 5.76267 73.2673 5.448 74.9846 5.448C75.71 5.448 76.4033 5.50133 77.0646 5.608C77.7366 5.71467 78.334 5.87467 78.8566 6.088C79.3793 6.29067 79.79 6.54667 80.0886 6.856C80.398 7.15467 80.5526 7.50133 80.5526 7.896C80.5526 8.216 80.4833 8.47733 80.3446 8.68C80.206 8.872 80.0246 9.01067 79.8006 9.096C79.5873 9.18133 79.3633 9.224 79.1286 9.224C78.638 9.224 78.0993 9.144 77.5126 8.984C76.9366 8.81333 76.1846 8.728 75.2566 8.728C73.8593 8.728 72.8086 9.16 72.1046 10.024C71.4113 10.888 71.0646 12.0613 71.0646 13.544C71.0646 14.0773 71.0913 14.5947 71.1446 15.096C71.198 15.5867 71.262 16.0613 71.3366 16.52C71.4113 16.968 71.486 17.384 71.5606 17.768C71.6353 18.152 71.694 18.4933 71.7366 18.792C71.79 19.0907 71.8166 19.336 71.8166 19.528C71.8166 20.1893 71.6673 20.6693 71.3686 20.968C71.0806 21.2667 70.6486 21.416 70.0726 21.416ZM91.7589 22.104C89.9669 22.104 88.4149 21.832 87.1029 21.288C85.7909 20.744 84.7775 19.9067 84.0629 18.776C83.3482 17.6347 82.9909 16.184 82.9909 14.424C82.9909 12.9627 83.2309 11.688 83.7109 10.6C84.2015 9.50133 84.8735 8.584 85.7269 7.848C86.5802 7.112 87.5669 6.56267 88.6869 6.2C89.8069 5.82667 91.0015 5.64 92.2709 5.64C93.1349 5.64 93.9509 5.73067 94.7189 5.912C95.4975 6.09333 96.1855 6.376 96.7829 6.76C97.3909 7.13333 97.8655 7.61333 98.2069 8.2C98.5482 8.78667 98.7189 9.48533 98.7189 10.296C98.7189 11.16 98.5375 11.864 98.1749 12.408C97.8122 12.9413 97.3162 13.3627 96.6869 13.672C96.0575 13.9707 95.3429 14.1947 94.5429 14.344C93.7535 14.4827 92.9269 14.5893 92.0629 14.664C91.6255 14.7387 91.1082 14.8027 90.5109 14.856C89.9135 14.8987 89.3322 14.936 88.7669 14.968C88.2122 14.9893 87.7802 15 87.4709 15C87.1509 15 86.9322 15.0427 86.8149 15.128C86.6975 15.2133 86.6389 15.368 86.6389 15.592C86.6389 15.8587 86.7135 16.1733 86.8629 16.536C87.0122 16.888 87.2255 17.2347 87.5029 17.576C88.0149 18.2053 88.6069 18.6267 89.2789 18.84C89.9615 19.0427 90.7989 19.144 91.7909 19.144C92.6549 19.144 93.4442 19.0427 94.1589 18.84C94.8735 18.6267 95.5135 18.4187 96.0789 18.216C96.6549 18.0027 97.1722 17.896 97.6309 17.896C98.0469 17.896 98.3722 17.976 98.6069 18.136C98.8522 18.2853 98.9749 18.584 98.9749 19.032C98.9749 19.4373 98.7882 19.8267 98.4149 20.2C98.0522 20.5733 97.5455 20.8987 96.8949 21.176C96.2442 21.464 95.4815 21.688 94.6069 21.848C93.7322 22.0187 92.7829 22.104 91.7589 22.104ZM90.4949 13.208C91.3589 13.208 92.1642 13.128 92.9109 12.968C93.6575 12.7973 94.2602 12.5147 94.7189 12.12C95.1882 11.7147 95.4229 11.16 95.4229 10.456C95.4229 9.624 95.1189 9 94.5109 8.584C93.9029 8.15733 93.0495 7.944 91.9509 7.944C91.3002 7.944 90.6655 8.06133 90.0469 8.296C89.4282 8.52 88.8789 8.83467 88.3989 9.24C87.9189 9.64533 87.5349 10.104 87.2469 10.616C86.9589 11.128 86.8149 11.6773 86.8149 12.264C86.8149 12.5627 86.9322 12.7813 87.1669 12.92C87.4122 13.048 87.8015 13.128 88.3349 13.16C88.8789 13.192 89.5989 13.208 90.4949 13.208ZM110.821 21.96C109.551 21.96 108.362 21.784 107.253 21.432C106.154 21.0907 105.183 20.5787 104.341 19.896C103.509 19.2133 102.853 18.3707 102.373 17.368C101.903 16.3547 101.669 15.176 101.669 13.832C101.669 12.424 101.893 11.1653 102.341 10.056C102.789 8.936 103.423 7.98667 104.245 7.208C105.077 6.41867 106.074 5.82133 107.237 5.416C108.41 5 109.706 4.792 111.125 4.792C112.223 4.792 113.162 4.89867 113.941 5.112C114.719 5.32533 115.317 5.59733 115.733 5.928C116.149 6.25867 116.357 6.59467 116.357 6.936C116.357 7.14933 116.298 7.34667 116.181 7.528C116.063 7.70933 115.909 7.85333 115.717 7.96C115.525 8.056 115.322 8.104 115.109 8.104C114.863 8.104 114.597 8.056 114.309 7.96C114.031 7.85333 113.669 7.74667 113.221 7.64C112.773 7.53333 112.181 7.48 111.445 7.48C110.591 7.48 109.813 7.61867 109.109 7.896C108.405 8.17333 107.797 8.568 107.285 9.08C106.773 9.592 106.378 10.2 106.101 10.904C105.823 11.5973 105.685 12.3653 105.685 13.208C105.685 14.3387 105.914 15.2933 106.373 16.072C106.842 16.84 107.477 17.4213 108.277 17.816C109.087 18.2107 109.999 18.408 111.013 18.408C111.941 18.408 112.73 18.3173 113.381 18.136C114.031 17.944 114.575 17.72 115.013 17.464C115.461 17.208 115.829 16.984 116.117 16.792C116.405 16.6 116.645 16.504 116.837 16.504C117.189 16.504 117.461 16.584 117.653 16.744C117.845 16.8933 117.978 17.0853 118.053 17.32C118.138 17.544 118.181 17.7627 118.181 17.976C118.181 18.4347 118.01 18.8987 117.669 19.368C117.338 19.8373 116.858 20.2693 116.229 20.664C115.599 21.048 114.826 21.3573 113.909 21.592C113.002 21.8373 111.973 21.96 110.821 21.96ZM130.103 22.104C128.311 22.104 126.759 21.832 125.447 21.288C124.135 20.744 123.121 19.9067 122.407 18.776C121.692 17.6347 121.335 16.184 121.335 14.424C121.335 12.9627 121.575 11.688 122.055 10.6C122.545 9.50133 123.217 8.584 124.071 7.848C124.924 7.112 125.911 6.56267 127.031 6.2C128.151 5.82667 129.345 5.64 130.615 5.64C131.479 5.64 132.295 5.73067 133.063 5.912C133.841 6.09333 134.529 6.376 135.127 6.76C135.735 7.13333 136.209 7.61333 136.551 8.2C136.892 8.78667 137.063 9.48533 137.063 10.296C137.063 11.16 136.881 11.864 136.519 12.408C136.156 12.9413 135.66 13.3627 135.031 13.672C134.401 13.9707 133.687 14.1947 132.887 14.344C132.097 14.4827 131.271 14.5893 130.407 14.664C129.969 14.7387 129.452 14.8027 128.855 14.856C128.257 14.8987 127.676 14.936 127.111 14.968C126.556 14.9893 126.124 15 125.815 15C125.495 15 125.276 15.0427 125.159 15.128C125.041 15.2133 124.983 15.368 124.983 15.592C124.983 15.8587 125.057 16.1733 125.207 16.536C125.356 16.888 125.569 17.2347 125.847 17.576C126.359 18.2053 126.951 18.6267 127.623 18.84C128.305 19.0427 129.143 19.144 130.135 19.144C130.999 19.144 131.788 19.0427 132.503 18.84C133.217 18.6267 133.857 18.4187 134.423 18.216C134.999 18.0027 135.516 17.896 135.975 17.896C136.391 17.896 136.716 17.976 136.951 18.136C137.196 18.2853 137.319 18.584 137.319 19.032C137.319 19.4373 137.132 19.8267 136.759 20.2C136.396 20.5733 135.889 20.8987 135.239 21.176C134.588 21.464 133.825 21.688 132.951 21.848C132.076 22.0187 131.127 22.104 130.103 22.104ZM128.839 13.208C129.703 13.208 130.508 13.128 131.255 12.968C132.001 12.7973 132.604 12.5147 133.063 12.12C133.532 11.7147 133.767 11.16 133.767 10.456C133.767 9.624 133.463 9 132.855 8.584C132.247 8.15733 131.393 7.944 130.295 7.944C129.644 7.944 129.009 8.06133 128.391 8.296C127.772 8.52 127.223 8.83467 126.743 9.24C126.263 9.64533 125.879 10.104 125.591 10.616C125.303 11.128 125.159 11.6773 125.159 12.264C125.159 12.5627 125.276 12.7813 125.511 12.92C125.756 13.048 126.145 13.128 126.679 13.16C127.223 13.192 127.943 13.208 128.839 13.208ZM149.468 21.336C148.892 21.336 148.311 21.2507 147.724 21.08C147.148 20.9093 146.652 20.5893 146.236 20.12C145.831 19.64 145.591 18.9627 145.516 18.088C145.484 17.7787 145.452 17.4267 145.42 17.032C145.388 16.6373 145.356 16.216 145.324 15.768C145.303 15.3093 145.282 14.84 145.26 14.36C145.25 13.8693 145.234 13.3733 145.212 12.872C145.202 12.36 145.196 11.8533 145.196 11.352C145.186 10.872 145.095 10.5573 144.924 10.408C144.764 10.2587 144.514 10.168 144.172 10.136C143.97 10.1147 143.708 10.0987 143.388 10.088C143.079 10.0773 142.759 10.0613 142.428 10.04C142.098 10.0187 141.804 9.99733 141.548 9.976C141.132 9.93333 140.818 9.8 140.604 9.576C140.391 9.34133 140.284 9.01067 140.284 8.584C140.284 8.296 140.343 8.07733 140.46 7.928C140.588 7.768 140.764 7.64533 140.988 7.56C141.223 7.47467 141.484 7.416 141.772 7.384C142.338 7.33067 142.802 7.28267 143.164 7.24C143.538 7.19733 143.884 7.16 144.204 7.128C144.546 7.08533 144.786 6.99467 144.924 6.856C145.074 6.71733 145.17 6.46133 145.212 6.088C145.234 5.864 145.25 5.60267 145.26 5.304C145.282 5.00533 145.303 4.712 145.324 4.424C145.356 4.12533 145.388 3.86933 145.42 3.656C145.538 3.13333 145.703 2.74933 145.916 2.504C146.13 2.25867 146.471 2.136 146.94 2.136C147.324 2.136 147.623 2.2 147.836 2.328C148.06 2.44533 148.226 2.632 148.332 2.888C148.439 3.144 148.524 3.47467 148.588 3.88C148.61 4.21067 148.626 4.504 148.636 4.76C148.658 5.016 148.674 5.25067 148.684 5.464C148.695 5.66667 148.706 5.85333 148.716 6.024C148.738 6.19467 148.759 6.36533 148.78 6.536C148.812 6.84533 148.914 7.06933 149.084 7.208C149.255 7.336 149.506 7.416 149.836 7.448C150.124 7.48 150.439 7.51733 150.78 7.56C151.132 7.592 151.468 7.624 151.788 7.656C152.119 7.67733 152.391 7.70933 152.604 7.752C153.042 7.80533 153.415 7.92267 153.724 8.104C154.034 8.28533 154.188 8.584 154.188 9C154.188 9.384 154.066 9.688 153.82 9.912C153.575 10.1253 153.239 10.248 152.812 10.28C152.162 10.2907 151.559 10.296 151.004 10.296C150.45 10.2853 150.018 10.2853 149.708 10.296C149.463 10.3173 149.271 10.392 149.132 10.52C149.004 10.6373 148.93 10.9467 148.908 11.448C148.908 11.8533 148.908 12.2693 148.908 12.696C148.919 13.1227 148.93 13.5493 148.94 13.976C148.951 14.4027 148.967 14.824 148.988 15.24C149.01 15.6453 149.036 16.0293 149.068 16.392C149.1 16.7547 149.138 17.0853 149.18 17.384C149.266 18.0133 149.42 18.4347 149.644 18.648C149.879 18.8613 150.188 18.968 150.572 18.968C151.031 18.968 151.388 18.8773 151.644 18.696C151.911 18.504 152.135 18.312 152.316 18.12C152.508 17.928 152.722 17.832 152.956 17.832C153.223 17.832 153.415 17.9067 153.532 18.056C153.66 18.1947 153.724 18.4027 153.724 18.68C153.724 19.032 153.596 19.368 153.34 19.688C153.095 19.9973 152.764 20.28 152.348 20.536C151.943 20.7813 151.49 20.9733 150.988 21.112C150.487 21.2613 149.98 21.336 149.468 21.336ZM163.519 22.552C162.655 22.552 161.834 22.4667 161.055 22.296C160.287 22.1253 159.604 21.8533 159.007 21.48C158.41 21.1067 157.94 20.6213 157.599 20.024C157.258 19.4267 157.087 18.696 157.087 17.832C157.087 16.8507 157.327 16.0453 157.807 15.416C158.287 14.7867 158.938 14.296 159.759 13.944C160.591 13.5813 161.524 13.3307 162.559 13.192C163.594 13.0533 164.666 12.984 165.775 12.984C166.116 12.984 166.463 12.9947 166.815 13.016C167.167 13.0373 167.498 13.0587 167.807 13.08C168.127 13.1013 168.388 13.112 168.591 13.112C168.868 13.112 169.055 13.0693 169.151 12.984C169.247 12.888 169.295 12.728 169.295 12.504C169.295 12.088 169.242 11.72 169.135 11.4C169.039 11.08 168.895 10.7973 168.703 10.552C168.511 10.3067 168.282 10.0987 168.015 9.928C167.588 9.64 167.071 9.43733 166.463 9.32C165.866 9.192 165.22 9.128 164.527 9.128C163.706 9.128 162.975 9.21333 162.335 9.384C161.706 9.55467 161.146 9.73067 160.655 9.912C160.164 10.0933 159.716 10.184 159.311 10.184C158.756 10.184 158.33 10.0933 158.031 9.912C157.732 9.73067 157.583 9.43733 157.583 9.032C157.583 8.616 157.759 8.232 158.111 7.88C158.463 7.528 158.948 7.21867 159.567 6.952C160.196 6.68533 160.922 6.47733 161.743 6.328C162.575 6.17867 163.46 6.104 164.399 6.104C166.287 6.104 167.866 6.344 169.135 6.824C170.415 7.29333 171.375 8.06133 172.015 9.128C172.655 10.184 172.975 11.608 172.975 13.4C172.975 13.9333 172.948 14.3973 172.895 14.792C172.842 15.1867 172.772 15.5333 172.687 15.832C172.612 16.12 172.548 16.3707 172.495 16.584C172.442 16.7973 172.415 16.9947 172.415 17.176C172.415 17.432 172.495 17.6773 172.655 17.912C172.826 18.136 173.023 18.36 173.247 18.584C173.482 18.808 173.684 19.048 173.855 19.304C174.026 19.5493 174.111 19.8267 174.111 20.136C174.111 20.5947 173.962 20.9253 173.663 21.128C173.364 21.3307 173.034 21.432 172.671 21.432C172.34 21.432 172.063 21.32 171.839 21.096C171.626 20.8827 171.428 20.6693 171.247 20.456C171.076 20.2427 170.863 20.136 170.607 20.136C170.458 20.136 170.292 20.1787 170.111 20.264C169.94 20.3493 169.727 20.4827 169.471 20.664C169.151 20.8987 168.74 21.16 168.239 21.448C167.748 21.7467 167.119 22.0027 166.351 22.216C165.583 22.44 164.639 22.552 163.519 22.552ZM163.951 20.104C164.612 20.104 165.252 20.0027 165.871 19.8C166.49 19.5867 167.044 19.2987 167.535 18.936C168.026 18.5627 168.415 18.1307 168.703 17.64C168.991 17.1387 169.135 16.6 169.135 16.024C169.135 15.6613 169.012 15.4 168.767 15.24C168.532 15.08 168.143 14.9787 167.599 14.936C167.055 14.8933 166.335 14.872 165.439 14.872C164.554 14.872 163.732 14.9627 162.975 15.144C162.218 15.3147 161.61 15.608 161.151 16.024C160.692 16.4293 160.463 16.984 160.463 17.688C160.463 18.232 160.602 18.68 160.879 19.032C161.156 19.384 161.556 19.6507 162.079 19.832C162.602 20.0133 163.226 20.104 163.951 20.104ZM183.566 21.544C182.905 21.544 182.217 21.512 181.502 21.448C180.787 21.3947 180.115 21.3093 179.486 21.192C178.857 21.0747 178.323 20.9307 177.886 20.76C177.491 20.6 177.166 20.4187 176.91 20.216C176.665 20.0133 176.542 19.7253 176.542 19.352C176.542 18.936 176.665 18.6213 176.91 18.408C177.155 18.184 177.513 18.072 177.982 18.072C178.313 18.072 178.723 18.1307 179.214 18.248C179.715 18.3547 180.281 18.472 180.91 18.6C181.539 18.7173 182.206 18.776 182.91 18.776C183.603 18.776 184.265 18.7173 184.894 18.6C185.523 18.472 186.035 18.264 186.43 17.976C186.825 17.688 187.022 17.2933 187.022 16.792C187.022 16.3333 186.894 15.96 186.638 15.672C186.393 15.384 185.961 15.1333 185.342 14.92C184.723 14.7067 183.854 14.488 182.734 14.264C181.507 14.0187 180.467 13.6987 179.614 13.304C178.771 12.9093 178.126 12.424 177.678 11.848C177.241 11.2613 177.022 10.5627 177.022 9.752C177.022 9.048 177.219 8.44 177.614 7.928C178.019 7.40533 178.569 6.97867 179.262 6.648C179.955 6.30667 180.745 6.056 181.63 5.896C182.526 5.72533 183.465 5.64 184.446 5.64C185.043 5.64 185.651 5.67733 186.27 5.752C186.899 5.816 187.481 5.91733 188.014 6.056C188.558 6.184 188.995 6.35467 189.326 6.568C189.657 6.77067 189.822 7.016 189.822 7.304C189.822 7.61333 189.747 7.864 189.598 8.056C189.449 8.248 189.251 8.38667 189.006 8.472C188.771 8.55733 188.51 8.6 188.222 8.6C187.763 8.6 187.235 8.54667 186.638 8.44C186.051 8.33333 185.411 8.28 184.718 8.28C184.11 8.28 183.545 8.344 183.022 8.472C182.499 8.58933 182.078 8.78133 181.758 9.048C181.449 9.304 181.294 9.64533 181.294 10.072C181.294 10.7013 181.635 11.1867 182.318 11.528C183.011 11.8693 184.025 12.1787 185.358 12.456C186.595 12.7013 187.619 13.016 188.43 13.4C189.251 13.7733 189.87 14.2533 190.286 14.84C190.702 15.416 190.91 16.136 190.91 17C190.91 17.8213 190.713 18.52 190.318 19.096C189.923 19.672 189.385 20.1413 188.702 20.504C188.019 20.856 187.235 21.1173 186.35 21.288C185.465 21.4587 184.537 21.544 183.566 21.544ZM211.208 21.848C209.64 21.848 208.28 21.5813 207.128 21.048C205.986 20.5147 205.101 19.7253 204.472 18.68C203.853 17.624 203.544 16.3227 203.544 14.776C203.544 13.3253 203.826 12.0987 204.392 11.096C204.957 10.0933 205.768 9.336 206.824 8.824C207.88 8.30133 209.144 8.04 210.616 8.04C211.426 8.04 212.098 8.13067 212.632 8.312C213.176 8.48267 213.618 8.664 213.96 8.856C214.205 8.99467 214.424 9.11733 214.616 9.224C214.818 9.33067 214.962 9.384 215.048 9.384C215.218 9.384 215.304 9.22933 215.304 8.92C215.304 8.64267 215.277 8.29067 215.224 7.864C215.17 7.42667 215.106 6.952 215.032 6.44C214.968 5.928 214.893 5.416 214.808 4.904C214.733 4.392 214.669 3.91733 214.616 3.48C214.573 3.04267 214.552 2.69067 214.552 2.424C214.552 1.16533 215.165 0.535999 216.392 0.535999C216.829 0.535999 217.234 0.642666 217.608 0.855999C217.992 1.05867 218.301 1.37333 218.536 1.8C218.696 2.17333 218.85 2.68533 219 3.336C219.149 3.98667 219.288 4.712 219.416 5.512C219.554 6.312 219.672 7.12267 219.768 7.944C219.874 8.76533 219.954 9.53333 220.008 10.248C220.072 10.9627 220.104 11.5653 220.104 12.056C220.104 14.264 219.805 16.0933 219.208 17.544C218.621 18.9947 217.672 20.0773 216.36 20.792C215.058 21.496 213.341 21.848 211.208 21.848ZM211.32 19.432C212.301 19.432 213.128 19.2507 213.8 18.888C214.472 18.5253 214.978 18.008 215.32 17.336C215.672 16.6533 215.848 15.8427 215.848 14.904C215.848 13.976 215.677 13.2027 215.336 12.584C214.994 11.9547 214.514 11.48 213.896 11.16C213.277 10.84 212.53 10.68 211.656 10.68C210.706 10.68 209.88 10.8453 209.176 11.176C208.472 11.5067 207.928 11.9973 207.544 12.648C207.16 13.288 206.968 14.088 206.968 15.048C206.968 15.944 207.149 16.7227 207.512 17.384C207.874 18.0347 208.381 18.5413 209.032 18.904C209.682 19.256 210.445 19.432 211.32 19.432ZM232.04 22.104C230.248 22.104 228.696 21.832 227.384 21.288C226.072 20.744 225.059 19.9067 224.344 18.776C223.629 17.6347 223.272 16.184 223.272 14.424C223.272 12.9627 223.512 11.688 223.992 10.6C224.483 9.50133 225.155 8.584 226.008 7.848C226.861 7.112 227.848 6.56267 228.968 6.2C230.088 5.82667 231.283 5.64 232.552 5.64C233.416 5.64 234.232 5.73067 235 5.912C235.779 6.09333 236.467 6.376 237.064 6.76C237.672 7.13333 238.147 7.61333 238.488 8.2C238.829 8.78667 239 9.48533 239 10.296C239 11.16 238.819 11.864 238.456 12.408C238.093 12.9413 237.597 13.3627 236.968 13.672C236.339 13.9707 235.624 14.1947 234.824 14.344C234.035 14.4827 233.208 14.5893 232.344 14.664C231.907 14.7387 231.389 14.8027 230.792 14.856C230.195 14.8987 229.613 14.936 229.048 14.968C228.493 14.9893 228.061 15 227.752 15C227.432 15 227.213 15.0427 227.096 15.128C226.979 15.2133 226.92 15.368 226.92 15.592C226.92 15.8587 226.995 16.1733 227.144 16.536C227.293 16.888 227.507 17.2347 227.784 17.576C228.296 18.2053 228.888 18.6267 229.56 18.84C230.243 19.0427 231.08 19.144 232.072 19.144C232.936 19.144 233.725 19.0427 234.44 18.84C235.155 18.6267 235.795 18.4187 236.36 18.216C236.936 18.0027 237.453 17.896 237.912 17.896C238.328 17.896 238.653 17.976 238.888 18.136C239.133 18.2853 239.256 18.584 239.256 19.032C239.256 19.4373 239.069 19.8267 238.696 20.2C238.333 20.5733 237.827 20.8987 237.176 21.176C236.525 21.464 235.763 21.688 234.888 21.848C234.013 22.0187 233.064 22.104 232.04 22.104ZM230.776 13.208C231.64 13.208 232.445 13.128 233.192 12.968C233.939 12.7973 234.541 12.5147 235 12.12C235.469 11.7147 235.704 11.16 235.704 10.456C235.704 9.624 235.4 9 234.792 8.584C234.184 8.15733 233.331 7.944 232.232 7.944C231.581 7.944 230.947 8.06133 230.328 8.296C229.709 8.52 229.16 8.83467 228.68 9.24C228.2 9.64533 227.816 10.104 227.528 10.616C227.24 11.128 227.096 11.6773 227.096 12.264C227.096 12.5627 227.213 12.7813 227.448 12.92C227.693 13.048 228.083 13.128 228.616 13.16C229.16 13.192 229.88 13.208 230.776 13.208Z" fill="#6F8F72"/>
<path d="M26.0843 59.528C24.6976 59.2293 23.7483 58.5307 23.2363 57.432C22.7349 56.3333 22.4843 54.872 22.4843 53.048C22.4843 52.5253 22.4949 51.928 22.5163 51.256C22.5483 50.5733 22.5909 49.864 22.6443 49.128C22.6976 48.392 22.7563 47.672 22.8203 46.968C22.8843 46.264 22.9483 45.6187 23.0123 45.032C23.0763 44.4453 23.1349 43.9707 23.1883 43.608C23.4016 42.1893 23.7163 41.16 24.1323 40.52C24.5483 39.88 25.1136 39.56 25.8283 39.56C26.2869 39.56 26.6283 39.6613 26.8523 39.864C27.0763 40.056 27.2256 40.3333 27.3003 40.696C27.3749 41.0587 27.4123 41.4907 27.4123 41.992C27.4123 42.3227 27.4016 42.712 27.3803 43.16C27.3589 43.5973 27.3376 44.0667 27.3163 44.568C27.2949 45.0693 27.2736 45.5973 27.2523 46.152C27.2309 46.696 27.2096 47.24 27.1883 47.784C27.1669 48.328 27.1509 48.8613 27.1403 49.384C27.1403 49.896 27.1456 50.3813 27.1563 50.84C27.1776 51.7467 27.2309 52.504 27.3163 53.112C27.4123 53.72 27.5936 54.2 27.8603 54.552C28.1269 54.8933 28.5163 55.144 29.0283 55.304C29.5509 55.4533 30.2496 55.5333 31.1243 55.544C31.8816 55.576 32.5963 55.608 33.2683 55.64C33.9509 55.6613 34.5109 55.688 34.9483 55.72C35.5883 55.6773 36.1109 55.6613 36.5163 55.672C36.9216 55.672 37.2256 55.7093 37.4283 55.784C37.5989 55.8693 37.7216 55.992 37.7963 56.152C37.8816 56.3013 37.9243 56.5147 37.9243 56.792C37.9243 57.24 37.7856 57.6187 37.5083 57.928C37.2309 58.2373 36.8416 58.4987 36.3403 58.712C35.8496 58.9253 35.2789 59.112 34.6283 59.272C33.9456 59.432 33.1563 59.56 32.2603 59.656C31.3643 59.752 30.4736 59.8 29.5883 59.8C29.2363 59.8 28.8416 59.7893 28.4043 59.768C27.9776 59.7573 27.5563 59.7307 27.1403 59.688C26.7349 59.6453 26.3829 59.592 26.0843 59.528ZM46.972 60.552C46.108 60.552 45.2867 60.4667 44.508 60.296C43.74 60.1253 43.0573 59.8533 42.46 59.48C41.8627 59.1067 41.3933 58.6213 41.052 58.024C40.7107 57.4267 40.54 56.696 40.54 55.832C40.54 54.8507 40.78 54.0453 41.26 53.416C41.74 52.7867 42.3907 52.296 43.212 51.944C44.044 51.5813 44.9773 51.3307 46.012 51.192C47.0467 51.0533 48.1187 50.984 49.228 50.984C49.5693 50.984 49.916 50.9947 50.268 51.016C50.62 51.0373 50.9507 51.0587 51.26 51.08C51.58 51.1013 51.8413 51.112 52.044 51.112C52.3213 51.112 52.508 51.0693 52.604 50.984C52.7 50.888 52.748 50.728 52.748 50.504C52.748 50.088 52.6947 49.72 52.588 49.4C52.492 49.08 52.348 48.7973 52.156 48.552C51.964 48.3067 51.7347 48.0987 51.468 47.928C51.0413 47.64 50.524 47.4373 49.916 47.32C49.3187 47.192 48.6733 47.128 47.98 47.128C47.1587 47.128 46.428 47.2133 45.788 47.384C45.1587 47.5547 44.5987 47.7307 44.108 47.912C43.6173 48.0933 43.1693 48.184 42.764 48.184C42.2093 48.184 41.7827 48.0933 41.484 47.912C41.1853 47.7307 41.036 47.4373 41.036 47.032C41.036 46.616 41.212 46.232 41.564 45.88C41.916 45.528 42.4013 45.2187 43.02 44.952C43.6493 44.6853 44.3747 44.4773 45.196 44.328C46.028 44.1787 46.9133 44.104 47.852 44.104C49.74 44.104 51.3187 44.344 52.588 44.824C53.868 45.2933 54.828 46.0613 55.468 47.128C56.108 48.184 56.428 49.608 56.428 51.4C56.428 51.9333 56.4013 52.3973 56.348 52.792C56.2947 53.1867 56.2253 53.5333 56.14 53.832C56.0653 54.12 56.0013 54.3707 55.948 54.584C55.8947 54.7973 55.868 54.9947 55.868 55.176C55.868 55.432 55.948 55.6773 56.108 55.912C56.2787 56.136 56.476 56.36 56.7 56.584C56.9347 56.808 57.1373 57.048 57.308 57.304C57.4787 57.5493 57.564 57.8267 57.564 58.136C57.564 58.5947 57.4147 58.9253 57.116 59.128C56.8173 59.3307 56.4867 59.432 56.124 59.432C55.7933 59.432 55.516 59.32 55.292 59.096C55.0787 58.8827 54.8813 58.6693 54.7 58.456C54.5293 58.2427 54.316 58.136 54.06 58.136C53.9107 58.136 53.7453 58.1787 53.564 58.264C53.3933 58.3493 53.18 58.4827 52.924 58.664C52.604 58.8987 52.1933 59.16 51.692 59.448C51.2013 59.7467 50.572 60.0027 49.804 60.216C49.036 60.44 48.092 60.552 46.972 60.552ZM47.404 58.104C48.0653 58.104 48.7053 58.0027 49.324 57.8C49.9427 57.5867 50.4973 57.2987 50.988 56.936C51.4787 56.5627 51.868 56.1307 52.156 55.64C52.444 55.1387 52.588 54.6 52.588 54.024C52.588 53.6613 52.4653 53.4 52.22 53.24C51.9853 53.08 51.596 52.9787 51.052 52.936C50.508 52.8933 49.788 52.872 48.892 52.872C48.0067 52.872 47.1853 52.9627 46.428 53.144C45.6707 53.3147 45.0627 53.608 44.604 54.024C44.1453 54.4293 43.916 54.984 43.916 55.688C43.916 56.232 44.0547 56.68 44.332 57.032C44.6093 57.384 45.0093 57.6507 45.532 57.832C46.0547 58.0133 46.6787 58.104 47.404 58.104ZM73.8378 59.768C73.2298 59.768 72.7978 59.5813 72.5418 59.208C72.2858 58.8453 72.0724 58.3173 71.9018 57.624C71.8164 57.1867 71.7418 56.7067 71.6778 56.184C71.6138 55.6613 71.5658 55.1173 71.5338 54.552C71.5018 53.976 71.4751 53.3893 71.4538 52.792C71.4431 52.184 71.4378 51.576 71.4378 50.968C71.4591 50.2 71.4911 49.432 71.5338 48.664C71.5764 47.896 71.6351 47.16 71.7098 46.456C71.7844 45.7413 71.8698 45.1067 71.9658 44.552C72.0724 43.9867 72.1844 43.5387 72.3018 43.208C72.5791 42.4187 72.9471 41.7893 73.4058 41.32C73.8644 40.8507 74.3924 40.5147 74.9898 40.312C75.5871 40.0987 76.2111 39.992 76.8618 39.992C77.6084 39.992 78.2538 40.1573 78.7978 40.488C79.3524 40.8187 79.7791 41.2987 80.0778 41.928C80.2484 42.28 80.4191 42.7173 80.5898 43.24C80.7604 43.7627 80.9204 44.3173 81.0698 44.904C81.2298 45.4907 81.3738 46.0773 81.5018 46.664C81.6404 47.24 81.7578 47.7733 81.8538 48.264C81.9711 48.872 82.1044 49.4107 82.2538 49.88C82.4138 50.3387 82.6484 50.568 82.9578 50.568C83.2671 50.568 83.4964 50.376 83.6458 49.992C83.8058 49.608 83.9284 49.1813 84.0138 48.712C84.0991 48.168 84.1951 47.5867 84.3018 46.968C84.4084 46.3493 84.5258 45.736 84.6538 45.128C84.7924 44.5093 84.9364 43.9227 85.0858 43.368C85.2458 42.8133 85.4058 42.3227 85.5658 41.896C85.8538 41.288 86.2591 40.8187 86.7818 40.488C87.3151 40.1573 87.9978 39.992 88.8298 39.992C89.4484 39.992 90.0138 40.104 90.5258 40.328C91.0378 40.5413 91.4964 40.856 91.9018 41.272C92.3071 41.688 92.6484 42.2 92.9258 42.808C93.1711 43.3093 93.3791 43.976 93.5498 44.808C93.7311 45.6293 93.8698 46.5627 93.9658 47.608C94.0618 48.6427 94.1204 49.7253 94.1418 50.856C94.1418 51.4213 94.1418 51.9867 94.1418 52.552C94.1418 53.1173 94.1311 53.6827 94.1098 54.248C94.0884 54.8027 94.0564 55.352 94.0138 55.896C93.9818 56.4293 93.9284 56.952 93.8538 57.464C93.7044 58.0827 93.4644 58.536 93.1338 58.824C92.8138 59.1013 92.3498 59.24 91.7418 59.24C91.3684 59.24 91.0698 59.144 90.8458 58.952C90.6324 58.76 90.4938 58.488 90.4298 58.136C90.4084 57.7733 90.3871 57.3947 90.3658 57C90.3444 56.5947 90.3178 56.1787 90.2858 55.752C90.2644 55.3147 90.2431 54.8773 90.2218 54.44C90.2004 54.0027 90.1791 53.5707 90.1578 53.144C90.1258 52.3013 90.0831 51.4907 90.0298 50.712C89.9764 49.9227 89.9124 49.2187 89.8378 48.6C89.7738 47.9707 89.6938 47.496 89.5978 47.176C89.4164 46.5787 89.2084 46.1253 88.9738 45.816C88.7498 45.5067 88.4138 45.352 87.9658 45.352C87.5924 45.352 87.2618 45.5067 86.9738 45.816C86.6964 46.1147 86.4884 46.5627 86.3498 47.16C86.2964 47.416 86.2324 47.7413 86.1578 48.136C86.0831 48.52 86.0031 48.9467 85.9178 49.416C85.8431 49.8747 85.7631 50.3547 85.6778 50.856C85.6031 51.3467 85.5284 51.832 85.4538 52.312C85.3791 52.7813 85.3098 53.2187 85.2458 53.624C85.0858 54.456 84.8191 55.0853 84.4458 55.512C84.0831 55.928 83.5711 56.136 82.9098 56.136C82.1204 56.136 81.5551 55.8587 81.2138 55.304C80.8724 54.7493 80.5631 54.0027 80.2858 53.064C80.2218 52.7547 80.1418 52.376 80.0458 51.928C79.9498 51.48 79.8484 51.0053 79.7418 50.504C79.6351 49.992 79.5284 49.4853 79.4218 48.984C79.3151 48.4827 79.2138 48.0293 79.1178 47.624C79.0324 47.208 78.9524 46.872 78.8778 46.616C78.7391 46.0613 78.5471 45.656 78.3018 45.4C78.0671 45.144 77.7844 45.016 77.4538 45.016C76.9844 45.016 76.6431 45.192 76.4298 45.544C76.2271 45.896 76.0618 46.456 75.9338 47.224C75.8911 47.48 75.8538 47.8107 75.8218 48.216C75.7898 48.6213 75.7631 49.08 75.7418 49.592C75.7204 50.0933 75.6991 50.632 75.6778 51.208C75.6671 51.784 75.6618 52.3707 75.6618 52.968C75.6618 53.5867 75.6564 54.1733 75.6458 54.728C75.6458 55.2827 75.6351 55.8 75.6138 56.28C75.5924 56.76 75.5658 57.1867 75.5338 57.56C75.5124 57.9227 75.4804 58.2213 75.4378 58.456C75.3204 58.8507 75.1338 59.1653 74.8778 59.4C74.6324 59.6453 74.2858 59.768 73.8378 59.768ZM103.722 60.552C102.858 60.552 102.037 60.4667 101.258 60.296C100.49 60.1253 99.8073 59.8533 99.21 59.48C98.6127 59.1067 98.1433 58.6213 97.802 58.024C97.4607 57.4267 97.29 56.696 97.29 55.832C97.29 54.8507 97.53 54.0453 98.01 53.416C98.49 52.7867 99.1407 52.296 99.962 51.944C100.794 51.5813 101.727 51.3307 102.762 51.192C103.797 51.0533 104.869 50.984 105.978 50.984C106.319 50.984 106.666 50.9947 107.018 51.016C107.37 51.0373 107.701 51.0587 108.01 51.08C108.33 51.1013 108.591 51.112 108.794 51.112C109.071 51.112 109.258 51.0693 109.354 50.984C109.45 50.888 109.498 50.728 109.498 50.504C109.498 50.088 109.445 49.72 109.338 49.4C109.242 49.08 109.098 48.7973 108.906 48.552C108.714 48.3067 108.485 48.0987 108.218 47.928C107.791 47.64 107.274 47.4373 106.666 47.32C106.069 47.192 105.423 47.128 104.73 47.128C103.909 47.128 103.178 47.2133 102.538 47.384C101.909 47.5547 101.349 47.7307 100.858 47.912C100.367 48.0933 99.9193 48.184 99.514 48.184C98.9593 48.184 98.5327 48.0933 98.234 47.912C97.9353 47.7307 97.786 47.4373 97.786 47.032C97.786 46.616 97.962 46.232 98.314 45.88C98.666 45.528 99.1513 45.2187 99.77 44.952C100.399 44.6853 101.125 44.4773 101.946 44.328C102.778 44.1787 103.663 44.104 104.602 44.104C106.49 44.104 108.069 44.344 109.338 44.824C110.618 45.2933 111.578 46.0613 112.218 47.128C112.858 48.184 113.178 49.608 113.178 51.4C113.178 51.9333 113.151 52.3973 113.098 52.792C113.045 53.1867 112.975 53.5333 112.89 53.832C112.815 54.12 112.751 54.3707 112.698 54.584C112.645 54.7973 112.618 54.9947 112.618 55.176C112.618 55.432 112.698 55.6773 112.858 55.912C113.029 56.136 113.226 56.36 113.45 56.584C113.685 56.808 113.887 57.048 114.058 57.304C114.229 57.5493 114.314 57.8267 114.314 58.136C114.314 58.5947 114.165 58.9253 113.866 59.128C113.567 59.3307 113.237 59.432 112.874 59.432C112.543 59.432 112.266 59.32 112.042 59.096C111.829 58.8827 111.631 58.6693 111.45 58.456C111.279 58.2427 111.066 58.136 110.81 58.136C110.661 58.136 110.495 58.1787 110.314 58.264C110.143 58.3493 109.93 58.4827 109.674 58.664C109.354 58.8987 108.943 59.16 108.442 59.448C107.951 59.7467 107.322 60.0027 106.554 60.216C105.786 60.44 104.842 60.552 103.722 60.552ZM104.154 58.104C104.815 58.104 105.455 58.0027 106.074 57.8C106.693 57.5867 107.247 57.2987 107.738 56.936C108.229 56.5627 108.618 56.1307 108.906 55.64C109.194 55.1387 109.338 54.6 109.338 54.024C109.338 53.6613 109.215 53.4 108.97 53.24C108.735 53.08 108.346 52.9787 107.802 52.936C107.258 52.8933 106.538 52.872 105.642 52.872C104.757 52.872 103.935 52.9627 103.178 53.144C102.421 53.3147 101.813 53.608 101.354 54.024C100.895 54.4293 100.666 54.984 100.666 55.688C100.666 56.232 100.805 56.68 101.082 57.032C101.359 57.384 101.759 57.6507 102.282 57.832C102.805 58.0133 103.429 58.104 104.154 58.104ZM120.463 59.416C120.154 59.416 119.877 59.352 119.631 59.224C119.386 59.1067 119.162 58.9413 118.959 58.728C118.767 58.5147 118.591 58.264 118.431 57.976C118.239 57.5707 118.063 57.1013 117.903 56.568C117.743 56.0347 117.605 55.48 117.487 54.904C117.381 54.3173 117.301 53.736 117.247 53.16C117.194 52.584 117.167 52.0507 117.167 51.56C117.167 49.8213 117.493 48.3493 118.143 47.144C118.794 45.9387 119.733 45.0213 120.959 44.392C122.186 43.7627 123.658 43.448 125.375 43.448C126.101 43.448 126.794 43.5013 127.455 43.608C128.127 43.7147 128.725 43.8747 129.247 44.088C129.77 44.2907 130.181 44.5467 130.479 44.856C130.789 45.1547 130.943 45.5013 130.943 45.896C130.943 46.216 130.874 46.4773 130.735 46.68C130.597 46.872 130.415 47.0107 130.191 47.096C129.978 47.1813 129.754 47.224 129.519 47.224C129.029 47.224 128.49 47.144 127.903 46.984C127.327 46.8133 126.575 46.728 125.647 46.728C124.25 46.728 123.199 47.16 122.495 48.024C121.802 48.888 121.455 50.0613 121.455 51.544C121.455 52.0773 121.482 52.5947 121.535 53.096C121.589 53.5867 121.653 54.0613 121.727 54.52C121.802 54.968 121.877 55.384 121.951 55.768C122.026 56.152 122.085 56.4933 122.127 56.792C122.181 57.0907 122.207 57.336 122.207 57.528C122.207 58.1893 122.058 58.6693 121.759 58.968C121.471 59.2667 121.039 59.416 120.463 59.416ZM136.15 59.432C135.648 59.432 135.248 59.3307 134.95 59.128C134.662 58.936 134.459 58.6267 134.342 58.2C134.224 57.7627 134.166 57.2133 134.166 56.552C134.166 56.1893 134.171 55.752 134.182 55.24C134.203 54.728 134.23 54.1733 134.262 53.576C134.294 52.968 134.331 52.3547 134.374 51.736C134.416 51.1173 134.464 50.5253 134.518 49.96C134.571 49.384 134.624 48.8667 134.678 48.408C134.731 47.9493 134.784 47.5813 134.838 47.304C135.051 46.632 135.366 46.1307 135.782 45.8C136.208 45.4693 136.742 45.304 137.382 45.304C137.99 45.304 138.432 45.5333 138.71 45.992C138.987 46.4507 139.126 47.112 139.126 47.976C139.126 48.296 139.115 48.728 139.094 49.272C139.072 49.816 139.04 50.4187 138.998 51.08C138.955 51.7413 138.907 52.4187 138.854 53.112C138.811 53.8053 138.752 54.472 138.678 55.112C138.614 55.7413 138.55 56.3013 138.486 56.792C138.422 57.272 138.347 57.6347 138.262 57.88C138.048 58.456 137.766 58.856 137.414 59.08C137.072 59.3147 136.651 59.432 136.15 59.432ZM137.238 42.824C136.235 42.824 135.547 42.6533 135.174 42.312C134.8 41.9707 134.614 41.5867 134.614 41.16C134.614 40.616 134.811 40.1627 135.206 39.8C135.6 39.4267 136.086 39.144 136.661 38.952C137.238 38.76 137.814 38.664 138.39 38.664C138.806 38.664 139.19 38.7333 139.542 38.872C139.894 39.0107 140.171 39.224 140.374 39.512C140.587 39.8 140.694 40.1787 140.694 40.648C140.694 41.16 140.534 41.576 140.214 41.896C139.894 42.216 139.472 42.4507 138.95 42.6C138.427 42.7493 137.856 42.824 137.238 42.824ZM145.913 66.504C145.614 66.504 145.347 66.4293 145.113 66.28C144.889 66.1307 144.691 65.8853 144.521 65.544C144.35 65.2133 144.206 64.7707 144.089 64.216C144.014 63.7573 143.945 63.2613 143.881 62.728C143.817 62.2053 143.758 61.6667 143.705 61.112C143.662 60.568 143.625 60.008 143.593 59.432C143.561 58.8667 143.534 58.312 143.513 57.768C143.502 57.224 143.497 56.696 143.497 56.184C143.497 53.9653 143.811 52.0027 144.441 50.296C145.081 48.5787 146.073 47.2347 147.417 46.264C148.761 45.2827 150.499 44.792 152.633 44.792C153.987 44.792 155.177 44.984 156.201 45.368C157.235 45.7413 158.099 46.2747 158.793 46.968C159.486 47.6507 160.003 48.4667 160.345 49.416C160.697 50.3547 160.873 51.3947 160.873 52.536C160.873 53.688 160.707 54.7227 160.377 55.64C160.057 56.5467 159.545 57.32 158.841 57.96C158.137 58.6 157.225 59.0853 156.105 59.416C154.985 59.7467 153.619 59.912 152.009 59.912C151.262 59.912 150.643 59.8533 150.153 59.736C149.662 59.6293 149.273 59.5173 148.985 59.4C148.697 59.2933 148.483 59.24 148.345 59.24C148.142 59.24 147.987 59.304 147.881 59.432C147.785 59.56 147.721 59.8373 147.689 60.264C147.657 60.4773 147.635 60.7867 147.625 61.192C147.614 61.608 147.598 62.0507 147.577 62.52C147.566 63 147.555 63.4427 147.545 63.848C147.545 64.2533 147.539 64.5627 147.529 64.776C147.486 65.4267 147.326 65.8747 147.049 66.12C146.782 66.376 146.403 66.504 145.913 66.504ZM151.433 57.032C152.937 57.032 154.126 56.84 155.001 56.456C155.875 56.072 156.499 55.5173 156.873 54.792C157.257 54.056 157.449 53.1813 157.449 52.168C157.449 51.3787 157.315 50.6373 157.049 49.944C156.782 49.24 156.307 48.6693 155.625 48.232C154.942 47.7947 153.982 47.576 152.745 47.576C151.87 47.576 151.118 47.7253 150.489 48.024C149.859 48.312 149.347 48.728 148.953 49.272C148.569 49.816 148.286 50.456 148.105 51.192C147.923 51.928 147.833 52.7493 147.833 53.656C147.833 54.5627 147.939 55.2613 148.153 55.752C148.366 56.232 148.734 56.568 149.257 56.76C149.79 56.9413 150.515 57.032 151.433 57.032ZM173.096 59.848C171.859 59.848 170.664 59.7093 169.512 59.432C168.371 59.1547 167.347 58.712 166.44 58.104C165.544 57.496 164.835 56.7067 164.312 55.736C163.789 54.7547 163.528 53.56 163.528 52.152C163.528 50.6053 163.779 49.256 164.28 48.104C164.792 46.9413 165.496 45.976 166.392 45.208C167.288 44.4293 168.323 43.848 169.496 43.464C170.68 43.0693 171.944 42.872 173.288 42.872C174.504 42.872 175.693 43.0267 176.856 43.336C178.019 43.6453 179.064 44.1307 179.992 44.792C180.92 45.4533 181.656 46.312 182.2 47.368C182.755 48.4133 183.032 49.6773 183.032 51.16C183.032 52.28 182.803 53.3573 182.344 54.392C181.896 55.4267 181.24 56.3547 180.376 57.176C179.523 57.9867 178.483 58.632 177.256 59.112C176.04 59.6027 174.653 59.848 173.096 59.848ZM172.952 56.312C174.04 56.312 174.963 56.1467 175.72 55.816C176.477 55.4747 177.091 55.032 177.56 54.488C178.04 53.9333 178.387 53.3307 178.6 52.68C178.824 52.0293 178.936 51.384 178.936 50.744C178.936 49.848 178.76 49.0907 178.408 48.472C178.067 47.8427 177.608 47.336 177.032 46.952C176.467 46.568 175.832 46.2907 175.128 46.12C174.424 45.9387 173.704 45.848 172.968 45.848C172.008 45.848 171.101 46.056 170.248 46.472C169.395 46.8773 168.701 47.496 168.168 48.328C167.645 49.1493 167.384 50.1893 167.384 51.448C167.384 52.472 167.592 53.352 168.008 54.088C168.435 54.8133 169.064 55.368 169.896 55.752C170.728 56.1253 171.747 56.312 172.952 56.312ZM192.676 59.544C192.014 59.544 191.326 59.512 190.612 59.448C189.897 59.3947 189.225 59.3093 188.596 59.192C187.966 59.0747 187.433 58.9307 186.996 58.76C186.601 58.6 186.276 58.4187 186.02 58.216C185.774 58.0133 185.652 57.7253 185.652 57.352C185.652 56.936 185.774 56.6213 186.02 56.408C186.265 56.184 186.622 56.072 187.092 56.072C187.422 56.072 187.833 56.1307 188.324 56.248C188.825 56.3547 189.39 56.472 190.02 56.6C190.649 56.7173 191.316 56.776 192.02 56.776C192.713 56.776 193.374 56.7173 194.003 56.6C194.633 56.472 195.145 56.264 195.54 55.976C195.934 55.688 196.132 55.2933 196.132 54.792C196.132 54.3333 196.004 53.96 195.748 53.672C195.502 53.384 195.07 53.1333 194.452 52.92C193.833 52.7067 192.964 52.488 191.844 52.264C190.617 52.0187 189.577 51.6987 188.724 51.304C187.881 50.9093 187.236 50.424 186.788 49.848C186.35 49.2613 186.132 48.5627 186.132 47.752C186.132 47.048 186.329 46.44 186.724 45.928C187.129 45.4053 187.678 44.9787 188.372 44.648C189.065 44.3067 189.854 44.056 190.74 43.896C191.636 43.7253 192.574 43.64 193.556 43.64C194.153 43.64 194.761 43.6773 195.38 43.752C196.009 43.816 196.59 43.9173 197.124 44.056C197.668 44.184 198.105 44.3547 198.436 44.568C198.766 44.7707 198.932 45.016 198.932 45.304C198.932 45.6133 198.857 45.864 198.708 46.056C198.558 46.248 198.361 46.3867 198.116 46.472C197.881 46.5573 197.62 46.6 197.332 46.6C196.873 46.6 196.345 46.5467 195.748 46.44C195.161 46.3333 194.521 46.28 193.828 46.28C193.22 46.28 192.654 46.344 192.132 46.472C191.609 46.5893 191.188 46.7813 190.868 47.048C190.558 47.304 190.404 47.6453 190.404 48.072C190.404 48.7013 190.745 49.1867 191.428 49.528C192.121 49.8693 193.134 50.1787 194.468 50.456C195.705 50.7013 196.729 51.016 197.54 51.4C198.361 51.7733 198.98 52.2533 199.396 52.84C199.812 53.416 200.02 54.136 200.02 55C200.02 55.8213 199.822 56.52 199.428 57.096C199.033 57.672 198.494 58.1413 197.812 58.504C197.129 58.856 196.345 59.1173 195.46 59.288C194.574 59.4587 193.646 59.544 192.676 59.544ZM209.035 60.552C208.171 60.552 207.349 60.4667 206.571 60.296C205.803 60.1253 205.12 59.8533 204.523 59.48C203.925 59.1067 203.456 58.6213 203.115 58.024C202.773 57.4267 202.603 56.696 202.603 55.832C202.603 54.8507 202.843 54.0453 203.323 53.416C203.803 52.7867 204.453 52.296 205.275 51.944C206.107 51.5813 207.04 51.3307 208.075 51.192C209.109 51.0533 210.181 50.984 211.291 50.984C211.632 50.984 211.979 50.9947 212.331 51.016C212.683 51.0373 213.013 51.0587 213.323 51.08C213.643 51.1013 213.904 51.112 214.107 51.112C214.384 51.112 214.571 51.0693 214.667 50.984C214.763 50.888 214.811 50.728 214.811 50.504C214.811 50.088 214.757 49.72 214.651 49.4C214.555 49.08 214.411 48.7973 214.219 48.552C214.027 48.3067 213.797 48.0987 213.531 47.928C213.104 47.64 212.587 47.4373 211.979 47.32C211.381 47.192 210.736 47.128 210.043 47.128C209.221 47.128 208.491 47.2133 207.851 47.384C207.221 47.5547 206.661 47.7307 206.171 47.912C205.68 48.0933 205.232 48.184 204.827 48.184C204.272 48.184 203.845 48.0933 203.547 47.912C203.248 47.7307 203.099 47.4373 203.099 47.032C203.099 46.616 203.275 46.232 203.627 45.88C203.979 45.528 204.464 45.2187 205.083 44.952C205.712 44.6853 206.437 44.4773 207.259 44.328C208.091 44.1787 208.976 44.104 209.915 44.104C211.803 44.104 213.381 44.344 214.651 44.824C215.931 45.2933 216.891 46.0613 217.531 47.128C218.171 48.184 218.491 49.608 218.491 51.4C218.491 51.9333 218.464 52.3973 218.411 52.792C218.357 53.1867 218.288 53.5333 218.203 53.832C218.128 54.12 218.064 54.3707 218.01 54.584C217.957 54.7973 217.931 54.9947 217.931 55.176C217.931 55.432 218.011 55.6773 218.171 55.912C218.341 56.136 218.539 56.36 218.763 56.584C218.997 56.808 219.2 57.048 219.371 57.304C219.541 57.5493 219.627 57.8267 219.627 58.136C219.627 58.5947 219.477 58.9253 219.179 59.128C218.88 59.3307 218.549 59.432 218.187 59.432C217.856 59.432 217.579 59.32 217.355 59.096C217.141 58.8827 216.944 58.6693 216.763 58.456C216.592 58.2427 216.379 58.136 216.123 58.136C215.973 58.136 215.808 58.1787 215.627 58.264C215.456 58.3493 215.243 58.4827 214.987 58.664C214.667 58.8987 214.256 59.16 213.755 59.448C213.264 59.7467 212.635 60.0027 211.867 60.216C211.099 60.44 210.155 60.552 209.035 60.552ZM209.467 58.104C210.128 58.104 210.768 58.0027 211.387 57.8C212.005 57.5867 212.56 57.2987 213.051 56.936C213.541 56.5627 213.931 56.1307 214.219 55.64C214.507 55.1387 214.651 54.6 214.651 54.024C214.651 53.6613 214.528 53.4 214.283 53.24C214.048 53.08 213.659 52.9787 213.115 52.936C212.571 52.8933 211.851 52.872 210.955 52.872C210.069 52.872 209.248 52.9627 208.491 53.144C207.733 53.3147 207.125 53.608 206.667 54.024C206.208 54.4293 205.979 54.984 205.979 55.688C205.979 56.232 206.117 56.68 206.395 57.032C206.672 57.384 207.072 57.6507 207.595 57.832C208.117 58.0133 208.741 58.104 209.467 58.104Z" fill="#6F8F72"/>
</svg>
